<?xml version="1.0" encoding="utf-8"?>
<!-- Generator: Adobe Illustrator 22.1.0, SVG Export Plug-In . SVG Version: 6.00 Build 0)  -->
<svg version="1.1" id="Layer_1" xmlns="http://www.w3.org/2000/svg" xmlns:xlink="http://www.w3.org/1999/xlink" x="0px" y="0px"
	 viewBox="0 0 262.3 414" style="enable-background:new 0 0 262.3 414;" xml:space="preserve">
<style type="text/css">
	.st0{fill:#C12026;}
	.st1{font-family:'CenturyGothic-Bold';}
	.st2{font-size:29.64px;}
	.st3{fill:#C1C0C0;}
	.st4{font-size:20px;}
	.st5{fill:url(#SVGID_1_);}
	.st6{fill:url(#SVGID_2_);}
	.st7{fill:none;stroke:#C1C0C0;stroke-width:2;stroke-linecap:round;stroke-linejoin:round;}
	.st8{fill:url(#SVGID_3_);}
	.st9{fill:url(#SVGID_4_);}
	.st10{fill:url(#SVGID_5_);}
	.st11{fill:url(#SVGID_6_);}
</style>
<g id="Layer_2_1_">
	<g id="Layer_1-2">
		<text transform="matrix(1 0 0 1 138.8498 206.9625)" class="st0 st1 st2">108 HRS</text>
		<text transform="matrix(1 0 0 1 146.5243 230.9625)" class="st3 st1 st4">OCTOBER</text>
		
			<linearGradient id="SVGID_1_" gradientUnits="userSpaceOnUse" x1="4.24" y1="208.6875" x2="126" y2="208.6875" gradientTransform="matrix(1 0 0 -1 0 415.82)">
			<stop  offset="0.43" style="stop-color:#C1C0C0"/>
			<stop  offset="1" style="stop-color:#FFFFFF"/>
		</linearGradient>
		<path class="st5" d="M65.1,146.3c-33.6,0-60.9,27.3-60.8,60.9S31.5,268,65.2,268c33.6,0,60.8-27.3,60.8-60.9
			C126,173.5,98.7,146.3,65.1,146.3C65.1,146.3,65.1,146.3,65.1,146.3z M65.1,260c-29.2,0-52.8-23.7-52.8-52.9s23.7-52.8,52.8-52.8
			s52.8,23.7,52.8,52.8S94.3,260,65.1,260L65.1,260z"/>
		
			<linearGradient id="SVGID_2_" gradientUnits="userSpaceOnUse" x1="18.1151" y1="208.4475" x2="126.0002" y2="208.4475" gradientTransform="matrix(1 0 0 -1 0 415.82)">
			<stop  offset="0" style="stop-color:#88181C"/>
			<stop  offset="0.65" style="stop-color:#C12026"/>
		</linearGradient>
		<path class="st6" d="M125.4,216c0.1-0.9,0.3-1.9,0.3-2.8c0-0.2,0-0.4,0-0.5c0.1-0.8,0.1-1.6,0.2-2.4c0-0.8,0-1.3,0.1-2
			c0-0.3,0-0.6,0-0.9l0,0c0-16.2-6.4-31.7-17.8-43.1l-0.1,0.1c-11.4-11.4-26.9-17.9-43-17.9v8c29.2,0,52.9,23.7,52.8,52.9
			c0,7.6-1.7,15.2-4.8,22.1c-0.2,0.4-0.4,0.9-0.6,1.3c-0.2,0.3-0.3,0.7-0.5,1l0,0c-6.1,11.6-16.2,20.5-28.5,25
			c-0.5,0.1-1,0.3-1.4,0.6c-1.2,0.4-2.5,0.8-3.8,1.1h-0.1c-0.5,0.1-1,0.3-1.6,0.4c-0.6,0.1-0.8,0.2-1.3,0.3l-0.5,0.1l-1.6,0.3h-0.1
			c-2.9,0.4-5.8,0.6-8.7,0.6h-0.9c-0.9,0-1.8-0.1-2.8-0.2h-0.2c-13.6-1.2-25.5-7.7-34.6-17.3c-4.4-4.6-10.8-0.7-6.2,5.1
			c5,6.2,11.6,10.9,18.9,14.5c0.5,0.3,1,0.5,1.5,0.8c7,3.1,14.5,4.9,22.2,5.3l0,0c0.9,0,1.9,0.1,2.8,0.1l0,0c1,0,2.1,0,3.1-0.1l0,0
			c1,0,2-0.1,3.1-0.2h0.2c0.9-0.1,1.9-0.2,2.8-0.3h0.2c0.9-0.2,1.9-0.3,2.8-0.5h0.1c11.7-2.4,22.4-8.1,30.8-16.6l0,0
			C117.6,241.2,123.6,229.1,125.4,216z"/>
		<circle class="st7" cx="65.1" cy="207.1" r="64.1"/>
		<circle class="st7" cx="65.1" cy="207.1" r="49.3"/>
	</g>
</g>
<g id="Layer_2_2_">
	<g id="Layer_1-2_1_">
		<text transform="matrix(1 0 0 1 138.8498 349.005)" class="st0 st1 st2">104 HRS</text>
		<text transform="matrix(1 0 0 1 138.3212 373.005)" class="st3 st1 st4">NOVEMBER</text>
		
			<linearGradient id="SVGID_3_" gradientUnits="userSpaceOnUse" x1="4.24" y1="66.645" x2="126" y2="66.645" gradientTransform="matrix(1 0 0 -1 0 415.82)">
			<stop  offset="0.43" style="stop-color:#C1C0C0"/>
			<stop  offset="1" style="stop-color:#FFFFFF"/>
		</linearGradient>
		<path class="st8" d="M65.1,288.3c-33.6,0-60.9,27.3-60.8,60.9s27.3,60.9,60.9,60.8c33.6,0,60.8-27.3,60.8-60.9
			C126,315.6,98.7,288.3,65.1,288.3C65.1,288.3,65.1,288.3,65.1,288.3z M65.1,402c-29.2,0-52.8-23.7-52.8-52.9
			c0-29.2,23.7-52.9,52.8-52.9s52.8,23.7,52.8,52.9C117.9,378.4,94.3,402,65.1,402L65.1,402z"/>
		
			<linearGradient id="SVGID_4_" gradientUnits="userSpaceOnUse" x1="7.4848" y1="66.405" x2="126.0002" y2="66.405" gradientTransform="matrix(1 0 0 -1 0 415.82)">
			<stop  offset="0" style="stop-color:#88181C"/>
			<stop  offset="0.65" style="stop-color:#C12026"/>
		</linearGradient>
		<path class="st9" d="M125.4,358.1c0.1-0.9,0.3-1.9,0.3-2.8c0-0.2,0-0.4,0-0.5c0.1-0.8,0.1-1.6,0.2-2.4s0-1.3,0.1-2
			c0-0.3,0-0.6,0-0.9l0,0c0-16.2-6.4-31.7-17.8-43.1l-0.1,0.1c-11.4-11.4-26.9-17.9-43-17.9v8c29.2,0,52.9,23.7,52.8,52.9
			c0,7.6-1.7,15.2-4.8,22.1c-0.2,0.4-0.4,0.9-0.6,1.3c-0.2,0.3-0.3,0.7-0.5,1l0,0c-6.1,11.6-16.2,20.5-28.5,25
			c-0.5,0.1-1,0.3-1.4,0.5c-1.2,0.4-2.5,0.8-3.8,1.1h-0.1c-0.5,0.1-1,0.3-1.6,0.4c-0.6,0.1-0.8,0.2-1.3,0.3l-0.5,0.1l-1.6,0.3h-0.1
			c-2.9,0.4-5.8,0.6-8.7,0.6h-0.9c-0.9,0-1.8-0.1-2.8-0.2h-0.2c-20.3-1.8-37.8-15.1-44.9-34.3c-2.1-7.4-10.9-5.5-7.4,3.3
			c5.5,14.5,16.4,26.4,30.3,33.2c0.5,0.3,1,0.5,1.5,0.8c7,3.1,14.5,4.9,22.2,5.3l0,0c0.9,0,1.9,0.1,2.8,0.1l0,0c1,0,2.1,0,3.1-0.1
			l0,0c1-0.1,2-0.1,3.1-0.2h0.2c0.9-0.1,1.9-0.2,2.8-0.4h0.2c0.9-0.1,1.9-0.3,2.8-0.5h0.1c11.7-2.4,22.4-8.1,30.8-16.6l0,0
			C117.6,383.2,123.6,371.1,125.4,358.1z"/>
		<circle class="st7" cx="65.1" cy="349.2" r="64.1"/>
		<circle class="st7" cx="65.1" cy="349.2" r="49.3"/>
	</g>
</g>
<g id="Layer_2_3_">
	<g id="Layer_1-2_2_">
		<text transform="matrix(1 0 0 1 147.1496 64.92)" class="st0 st1 st2">23 HRS</text>
		<text transform="matrix(1 0 0 1 140.9188 88.92)" class="st3 st1 st4">SEPTEMBER</text>
		
			<linearGradient id="SVGID_5_" gradientUnits="userSpaceOnUse" x1="4.24" y1="350.9" x2="126" y2="350.9" gradientTransform="matrix(1 0 0 -1 0 415.82)">
			<stop  offset="0.43" style="stop-color:#C1C0C0"/>
			<stop  offset="1" style="stop-color:#FFFFFF"/>
		</linearGradient>
		<path class="st10" d="M65.1,4C31.5,4.1,4.2,31.3,4.2,65s27.3,60.9,60.9,60.8c33.6,0,60.8-27.3,60.8-60.9C126,31.3,98.7,4,65.1,4
			C65.1,4,65.1,4,65.1,4z M65.1,117.8c-29.2,0-52.8-23.7-52.8-52.8s23.7-52.8,52.8-52.8s52.8,23.7,52.8,52.8S94.3,117.8,65.1,117.8
			L65.1,117.8z"/>
		<linearGradient id="SVGID_6_" gradientUnits="userSpaceOnUse" x1="4.24" y1="65.09" x2="126" y2="65.09">
			<stop  offset="0" style="stop-color:#88181C"/>
			<stop  offset="0.65" style="stop-color:#C12026"/>
		</linearGradient>
		<path class="st11" d="M69.4,125.8c0.3,0,0.6,0,0.9-0.1C101.5,123.1,126,97,126,65.1c0-13.6-4.5-26.2-12-36.3c0,0,0-0.1-0.1-0.1
			c-0.1-0.2-0.3-0.4-0.4-0.6c-1.7-2.2-3.5-4.3-5.4-6.3l0,0C97,11,81.9,4.2,65.1,4.2c0,0,0,0,0,0v8c22.6,0,41.9,14.2,49.5,34.2
			c0.1,0.2,0.2,0.5,0.3,0.7c0.1,0.4,0.3,0.7,0.4,1.1c0.2,0.5,0.4,1.1,0.5,1.6c0,0.1,0,0.1,0,0.2c5.3,18,0.8,38.2-13.4,52.3
			c-5.4,5.4-11.9,9.5-19,12.2c-0.5,0.1-0.9,0.3-1.3,0.5c-0.4,0.1-0.7,0.3-1.1,0.4c-12.5,3.9-26,3-37.8-2.5c-0.4-0.2-0.9-0.5-1.4-0.6
			c-1.2-0.6-2.3-1.2-3.4-1.9l-0.1-0.1c-0.5-0.3-0.9-0.5-1.4-0.8c-0.5-0.3-0.7-0.5-1.1-0.7l-0.4-0.3l-1.4-1l-0.1-0.1
			c-2.3-1.7-4.5-3.6-6.6-5.7l-0.6-0.6c-0.7-0.7-1.3-1.4-1.9-2.1l-0.2-0.2c-13.1-15.6-16-37.4-7.5-56c3.7-6.7-3.8-11.6-7.5-2.9
			c-1.9,4.2-3.3,8.6-4.2,13c-0.7,2.5-1.2,6.5-1.2,12c0,20.1,9.8,38,24.9,49.1l0.1,0.1c0.5,0.4,1,0.7,1.5,1.1
			c0.2,0.1,0.3,0.2,0.5,0.3c0.1,0.1,0.2,0.1,0.3,0.2l0,0c6.5,4.3,13.7,7.3,21.2,8.8c0,0,0.1,0,0.1,0c2,0.4,4,0.7,6,0.9c0,0,0,0,0,0
			c0.9,0.1,1.9,0.2,2.8,0.2c0.1,0,0.3,0,0.4,0c1,0,1.9,0.1,2.9,0.1c0,0,0,0,0,0c0,0,0,0,0,0c0.1,0,0.3,0,0.4,0c0.8,0,1.5,0,2.3-0.1
			C68.3,125.9,68.9,125.8,69.4,125.8z"/>
		<circle class="st7" cx="65.1" cy="65.1" r="64.1"/>
		<circle class="st7" cx="65.1" cy="65.1" r="49.3"/>
	</g>
</g>
</svg>
