<svg xmlns="http://www.w3.org/2000/svg" xmlns:xlink="http://www.w3.org/1999/xlink" viewBox="0 0 880 785.12"><defs><style>.cls-1{fill:#c12026;}.cls-2,.cls-3{font-size:21px;}.cls-13,.cls-2,.cls-6{fill:#fff;}.cls-10,.cls-19,.cls-2,.cls-3,.cls-4,.cls-8{font-family:CenturyGothic-Bold, Century Gothic;font-weight:700;}.cls-10,.cls-19,.cls-20,.cls-3{fill:#88181c;}.cls-4{font-size:16px;}.cls-14,.cls-4,.cls-5,.cls-8{fill:#c1c0c0;}.cls-7{fill:#f1696a;}.cls-8{font-size:15px;}.cls-12,.cls-16,.cls-18,.cls-9{fill:none;}.cls-9{stroke:#c1c0c0;stroke-linecap:round;stroke-linejoin:round;stroke-width:2px;}.cls-10{font-size:29.64px;}.cls-11{fill:url(#linear-gradient);}.cls-12,.cls-16,.cls-18{stroke-miterlimit:10;}.cls-12{stroke:url(#linear-gradient-2);}.cls-13{font-size:21.35px;font-family:CenturyGothic, Century Gothic;}.cls-14,.cls-19{font-size:25px;}.cls-14{font-family:CollegiateHeavyOutline-Medium, CollegiateHeavyOutline;}.cls-15{fill:url(#linear-gradient-3);}.cls-16{stroke:url(#linear-gradient-4);}.cls-17{fill:url(#linear-gradient-5);}.cls-18{stroke:url(#linear-gradient-6);}</style><linearGradient id="linear-gradient" x1="361" y1="76.62" x2="361" y2="30.91" gradientUnits="userSpaceOnUse"><stop offset="0" stop-color="#88181c"/><stop offset="0.65" stop-color="#c12026"/></linearGradient><linearGradient id="linear-gradient-2" x1="425.74" y1="30.91" x2="425.74" y2="76.62" xlink:href="#linear-gradient"/><linearGradient id="linear-gradient-3" x1="114" y1="77.52" x2="114" y2="31.81" xlink:href="#linear-gradient"/><linearGradient id="linear-gradient-4" x1="178.74" y1="31.81" x2="178.74" y2="77.52" xlink:href="#linear-gradient"/><linearGradient id="linear-gradient-5" x1="555.5" y1="75.62" x2="555.5" y2="29.91" xlink:href="#linear-gradient"/><linearGradient id="linear-gradient-6" x1="572.74" y1="29.91" x2="572.74" y2="75.62" xlink:href="#linear-gradient"/></defs><title>Asset 24</title><g id="Layer_2" data-name="Layer 2"><g id="Layer_1-2" data-name="Layer 1"><rect class="cls-1" x="378" y="148.12" width="124" height="38"/><text class="cls-2" transform="translate(391.45 174.41)">1</text><text class="cls-3" transform="translate(412.82 217.53)">5 HRS</text><text class="cls-4" transform="translate(386.42 250.53)">MORE DETAILS</text><path class="cls-5" d="M440,260.88c-1.73,0-5.7-2.63-6-1.31-.66,2.92,5.15,6.88,6,6.88s6.66-4,6-6.88C445.7,258.25,441.74,260.88,440,260.88Z"/><polygon class="cls-6" points="486.16 160.46 475.23 171.39 475 174.35 477.96 174.12 488.89 163.19 486.16 160.46"/><path class="cls-6" d="M486.61,160l2.73,2.73.78-.78a.51.51,0,0,0,0-.72l-2-2a.51.51,0,0,0-.72,0Z"/><rect class="cls-1" x="502" y="148.12" width="124" height="38"/><text class="cls-2" transform="translate(515.45 174.41)">2</text><text class="cls-3" transform="translate(536.82 217.53)">6 HRS</text><text class="cls-4" transform="translate(510.42 250.53)">MORE DETAILS</text><path class="cls-5" d="M564,260.88c-1.73,0-5.7-2.63-6-1.31-.66,2.92,5.15,6.88,6,6.88s6.66-4,6-6.88C569.7,258.25,565.74,260.88,564,260.88Z"/><polygon class="cls-6" points="610.16 160.46 599.23 171.39 599 174.35 601.96 174.12 612.89 163.19 610.16 160.46"/><path class="cls-6" d="M610.61,160l2.73,2.73.78-.78a.51.51,0,0,0,0-.72l-2-2a.51.51,0,0,0-.72,0Z"/><rect class="cls-1" x="627" y="148.12" width="124" height="38"/><text class="cls-2" transform="translate(640.45 174.41)">3</text><text class="cls-3" transform="translate(661.82 217.53)">3 HRS</text><text class="cls-4" transform="translate(635.42 250.53)">MORE DETAILS</text><path class="cls-5" d="M689,260.88c-1.73,0-5.7-2.63-6-1.31-.66,2.92,5.15,6.88,6,6.88s6.66-4,6-6.88C694.7,258.25,690.74,260.88,689,260.88Z"/><polygon class="cls-6" points="735.16 160.46 724.23 171.39 724 174.35 726.96 174.12 737.89 163.19 735.16 160.46"/><path class="cls-6" d="M735.61,160l2.73,2.73.78-.78a.51.51,0,0,0,0-.72l-2-2a.51.51,0,0,0-.72,0Z"/><rect class="cls-7" x="751" y="148.12" width="124" height="38"/><text class="cls-2" transform="translate(764.45 174.41)">4</text><polygon class="cls-6" points="859.16 160.46 848.23 171.39 848 174.35 850.96 174.12 861.89 163.19 859.16 160.46"/><path class="cls-6" d="M859.61,160l2.73,2.73.78-.78a.51.51,0,0,0,0-.72l-2-2a.51.51,0,0,0-.72,0Z"/><rect class="cls-5" x="254" y="148.12" width="124" height="38"/><text class="cls-2" transform="translate(267.45 174.41)">31</text><rect class="cls-5" x="129" y="148.12" width="125" height="38"/><text class="cls-2" transform="translate(142.45 174.41)">30</text><rect class="cls-5" x="5" y="148.12" width="124" height="38"/><text class="cls-2" transform="translate(18.45 174.41)">29</text><rect class="cls-1" x="378" y="274.12" width="124" height="38"/><text class="cls-2" transform="translate(391.45 300.41)">8</text><text class="cls-3" transform="translate(412.82 343.53)">8 HRS</text><text class="cls-4" transform="translate(386.42 376.53)">MORE DETAILS</text><path class="cls-5" d="M440,386.88c-1.73,0-5.7-2.63-6-1.31-.66,2.92,5.15,6.88,6,6.88s6.66-4,6-6.88C445.7,384.25,441.74,386.88,440,386.88Z"/><polygon class="cls-6" points="486.16 286.46 475.23 297.39 475 300.35 477.96 300.12 488.89 289.19 486.16 286.46"/><path class="cls-6" d="M486.61,286l2.73,2.73.78-.78a.51.51,0,0,0,0-.72l-2-2a.51.51,0,0,0-.72,0Z"/><rect class="cls-1" x="502" y="274.12" width="124" height="38"/><text class="cls-2" transform="translate(515.45 300.41)">9</text><text class="cls-3" transform="translate(536.82 343.53)">0 HRS</text><text class="cls-4" transform="translate(510.42 376.53)">MORE DETAILS</text><path class="cls-5" d="M564,386.88c-1.73,0-5.7-2.63-6-1.31-.66,2.92,5.15,6.88,6,6.88s6.66-4,6-6.88C569.7,384.25,565.74,386.88,564,386.88Z"/><polygon class="cls-6" points="610.16 286.46 599.23 297.39 599 300.35 601.96 300.12 612.89 289.19 610.16 286.46"/><path class="cls-6" d="M610.61,286l2.73,2.73.78-.78a.51.51,0,0,0,0-.72l-2-2a.51.51,0,0,0-.72,0Z"/><rect class="cls-1" x="627" y="274.12" width="124" height="38"/><text class="cls-2" transform="translate(640.45 300.41)">10</text><text class="cls-3" transform="translate(661.82 343.53)">6 HRS</text><text class="cls-4" transform="translate(635.42 376.53)">MORE DETAILS</text><path class="cls-5" d="M689,386.88c-1.73,0-5.7-2.63-6-1.31-.66,2.92,5.15,6.88,6,6.88s6.66-4,6-6.88C694.7,384.25,690.74,386.88,689,386.88Z"/><polygon class="cls-6" points="735.16 286.46 724.23 297.39 724 300.35 726.96 300.12 737.89 289.19 735.16 286.46"/><path class="cls-6" d="M735.61,286l2.73,2.73.78-.78a.51.51,0,0,0,0-.72l-2-2a.51.51,0,0,0-.72,0Z"/><rect class="cls-7" x="5" y="274.12" width="124" height="38"/><text class="cls-2" transform="translate(18.45 300.41)">5</text><polygon class="cls-6" points="113.16 286.46 102.23 297.39 102 300.35 104.96 300.12 115.89 289.19 113.16 286.46"/><path class="cls-6" d="M113.61,286l2.73,2.73.78-.78a.51.51,0,0,0,0-.72l-2-2a.51.51,0,0,0-.72,0Z"/><rect class="cls-1" x="129" y="274.12" width="124" height="38"/><text class="cls-2" transform="translate(142.45 300.41)">6</text><text class="cls-3" transform="translate(163.82 343.53)">8 HRS</text><text class="cls-4" transform="translate(137.42 376.53)">MORE DETAILS</text><path class="cls-5" d="M191,386.88c-1.73,0-5.7-2.63-6-1.31-.66,2.92,5.15,6.88,6,6.88s6.66-4,6-6.88C196.7,384.25,192.74,386.88,191,386.88Z"/><polygon class="cls-6" points="237.16 286.46 226.23 297.39 226 300.35 228.96 300.12 239.89 289.19 237.16 286.46"/><path class="cls-6" d="M237.61,286l2.73,2.73.78-.78a.51.51,0,0,0,0-.72l-2-2a.51.51,0,0,0-.72,0Z"/><rect class="cls-1" x="254" y="274.12" width="124" height="38"/><text class="cls-2" transform="translate(267.45 300.41)">7</text><text class="cls-3" transform="translate(288.82 343.53)">5 HRS</text><text class="cls-4" transform="translate(262.42 376.53)">MORE DETAILS</text><path class="cls-5" d="M316,386.88c-1.73,0-5.7-2.63-6-1.31-.66,2.92,5.15,6.88,6,6.88s6.66-4,6-6.88C321.7,384.25,317.74,386.88,316,386.88Z"/><polygon class="cls-6" points="362.16 286.46 351.23 297.39 351 300.35 353.96 300.12 364.89 289.19 362.16 286.46"/><path class="cls-6" d="M362.61,286l2.73,2.73.78-.78a.51.51,0,0,0,0-.72l-2-2a.51.51,0,0,0-.72,0Z"/><rect class="cls-7" x="751" y="274.12" width="124" height="38"/><text class="cls-2" transform="translate(764.45 300.41)">11</text><polygon class="cls-6" points="859.16 286.46 848.23 297.39 848 300.35 850.96 300.12 861.89 289.19 859.16 286.46"/><path class="cls-6" d="M859.61,286l2.73,2.73.78-.78a.51.51,0,0,0,0-.72l-2-2a.51.51,0,0,0-.72,0Z"/><rect class="cls-1" x="378" y="401.12" width="124" height="38"/><text class="cls-2" transform="translate(391.45 427.41)">15</text><text class="cls-3" transform="translate(412.82 470.53)">6 HRS</text><text class="cls-4" transform="translate(386.42 503.53)">MORE DETAILS</text><path class="cls-5" d="M440,513.88c-1.73,0-5.7-2.63-6-1.31-.66,2.92,5.15,6.88,6,6.88s6.66-4,6-6.88C445.7,511.25,441.74,513.88,440,513.88Z"/><polygon class="cls-6" points="486.16 413.46 475.23 424.39 475 427.35 477.96 427.12 488.89 416.19 486.16 413.46"/><path class="cls-6" d="M486.61,413l2.73,2.73.78-.78a.51.51,0,0,0,0-.72l-2-2a.51.51,0,0,0-.72,0Z"/><rect class="cls-1" x="502" y="401.12" width="124" height="38"/><text class="cls-2" transform="translate(515.45 427.41)">16</text><text class="cls-3" transform="translate(536.82 470.53)">6 HRS</text><text class="cls-4" transform="translate(510.42 503.53)">MORE DETAILS</text><path class="cls-5" d="M564,513.88c-1.73,0-5.7-2.63-6-1.31-.66,2.92,5.15,6.88,6,6.88s6.66-4,6-6.88C569.7,511.25,565.74,513.88,564,513.88Z"/><polygon class="cls-6" points="610.16 413.46 599.23 424.39 599 427.35 601.96 427.12 612.89 416.19 610.16 413.46"/><path class="cls-6" d="M610.61,413l2.73,2.73.78-.78a.51.51,0,0,0,0-.72l-2-2a.51.51,0,0,0-.72,0Z"/><rect class="cls-1" x="627" y="401.12" width="124" height="38"/><text class="cls-2" transform="translate(640.45 427.41)">17</text><text class="cls-3" transform="translate(661.82 470.53)">3 HRS</text><text class="cls-4" transform="translate(635.42 503.53)">MORE DETAILS</text><path class="cls-5" d="M689,513.88c-1.73,0-5.7-2.63-6-1.31-.66,2.92,5.15,6.88,6,6.88s6.66-4,6-6.88C694.7,511.25,690.74,513.88,689,513.88Z"/><polygon class="cls-6" points="735.16 413.46 724.23 424.39 724 427.35 726.96 427.12 737.89 416.19 735.16 413.46"/><path class="cls-6" d="M735.61,413l2.73,2.73.78-.78a.51.51,0,0,0,0-.72l-2-2a.51.51,0,0,0-.72,0Z"/><rect class="cls-7" x="5" y="401.12" width="124" height="38"/><text class="cls-2" transform="translate(18.45 427.41)">12</text><polygon class="cls-6" points="113.16 413.46 102.23 424.39 102 427.35 104.96 427.12 115.89 416.19 113.16 413.46"/><path class="cls-6" d="M113.61,413l2.73,2.73.78-.78a.51.51,0,0,0,0-.72l-2-2a.51.51,0,0,0-.72,0Z"/><rect class="cls-1" x="129" y="401.12" width="124" height="38"/><text class="cls-2" transform="translate(142.45 427.41)">13</text><text class="cls-3" transform="translate(163.82 470.53)">4 HRS</text><text class="cls-4" transform="translate(137.42 503.53)">MORE DETAILS</text><path class="cls-5" d="M191,513.88c-1.73,0-5.7-2.63-6-1.31-.66,2.92,5.15,6.88,6,6.88s6.66-4,6-6.88C196.7,511.25,192.74,513.88,191,513.88Z"/><polygon class="cls-6" points="237.16 413.46 226.23 424.39 226 427.35 228.96 427.12 239.89 416.19 237.16 413.46"/><path class="cls-6" d="M237.61,413l2.73,2.73.78-.78a.51.51,0,0,0,0-.72l-2-2a.51.51,0,0,0-.72,0Z"/><rect class="cls-1" x="254" y="401.12" width="124" height="38"/><text class="cls-2" transform="translate(267.45 427.41)">14</text><text class="cls-3" transform="translate(288.82 470.53)">9 HRS</text><text class="cls-4" transform="translate(262.42 503.53)">MORE DETAILS</text><path class="cls-5" d="M316,513.88c-1.73,0-5.7-2.63-6-1.31-.66,2.92,5.15,6.88,6,6.88s6.66-4,6-6.88C321.7,511.25,317.74,513.88,316,513.88Z"/><polygon class="cls-6" points="362.16 413.46 351.23 424.39 351 427.35 353.96 427.12 364.89 416.19 362.16 413.46"/><path class="cls-6" d="M362.61,413l2.73,2.73.78-.78a.51.51,0,0,0,0-.72l-2-2a.51.51,0,0,0-.72,0Z"/><rect class="cls-7" x="751" y="401.12" width="124" height="38"/><text class="cls-2" transform="translate(764.45 427.41)">18</text><polygon class="cls-6" points="859.16 413.46 848.23 424.39 848 427.35 850.96 427.12 861.89 416.19 859.16 413.46"/><path class="cls-6" d="M859.61,413l2.73,2.73.78-.78a.51.51,0,0,0,0-.72l-2-2a.51.51,0,0,0-.72,0Z"/><rect class="cls-7" x="378" y="528.12" width="124" height="38"/><text class="cls-2" transform="translate(391.45 554.41)">22</text><polygon class="cls-6" points="486.16 540.46 475.23 551.39 475 554.35 477.96 554.12 488.89 543.19 486.16 540.46"/><path class="cls-6" d="M486.61,540l2.73,2.73.78-.78a.51.51,0,0,0,0-.72l-2-2a.51.51,0,0,0-.72,0Z"/><rect class="cls-7" x="502" y="528.12" width="124" height="38"/><text class="cls-2" transform="translate(515.45 554.41)">23</text><polygon class="cls-6" points="610.16 540.46 599.23 551.39 599 554.35 601.96 554.12 612.89 543.19 610.16 540.46"/><path class="cls-6" d="M610.61,540l2.73,2.73.78-.78a.51.51,0,0,0,0-.72l-2-2a.51.51,0,0,0-.72,0Z"/><rect class="cls-7" x="627" y="528.12" width="124" height="38"/><text class="cls-2" transform="translate(640.45 554.41)">24</text><polygon class="cls-6" points="735.16 540.46 724.23 551.39 724 554.35 726.96 554.12 737.89 543.19 735.16 540.46"/><path class="cls-6" d="M735.61,540l2.73,2.73.78-.78a.51.51,0,0,0,0-.72l-2-2a.51.51,0,0,0-.72,0Z"/><rect class="cls-7" x="5" y="528.12" width="124" height="38"/><text class="cls-2" transform="translate(18.45 554.41)">19</text><polygon class="cls-6" points="113.16 540.46 102.23 551.39 102 554.35 104.96 554.12 115.89 543.19 113.16 540.46"/><path class="cls-6" d="M113.61,540l2.73,2.73.78-.78a.51.51,0,0,0,0-.72l-2-2a.51.51,0,0,0-.72,0Z"/><rect class="cls-1" x="129" y="528.12" width="124" height="38"/><text class="cls-2" transform="translate(142.45 554.41)">20</text><text class="cls-3" transform="translate(163.82 597.53)">4 HRS</text><text class="cls-4" transform="translate(137.42 630.53)">MORE DETAILS</text><path class="cls-5" d="M191,640.88c-1.73,0-5.7-2.63-6-1.31-.66,2.92,5.15,6.88,6,6.88s6.66-4,6-6.88C196.7,638.25,192.74,640.88,191,640.88Z"/><polygon class="cls-6" points="237.16 540.46 226.23 551.39 226 554.35 228.96 554.12 239.89 543.19 237.16 540.46"/><path class="cls-6" d="M237.61,540l2.73,2.73.78-.78a.51.51,0,0,0,0-.72l-2-2a.51.51,0,0,0-.72,0Z"/><rect class="cls-1" x="254" y="528.12" width="124" height="38"/><text class="cls-2" transform="translate(267.45 554.41)">21</text><text class="cls-3" transform="translate(288.82 597.53)">3 HRS</text><text class="cls-4" transform="translate(262.42 630.53)">MORE DETAILS</text><path class="cls-5" d="M316,640.88c-1.73,0-5.7-2.63-6-1.31-.66,2.92,5.15,6.88,6,6.88s6.66-4,6-6.88C321.7,638.25,317.74,640.88,316,640.88Z"/><text class="cls-8" transform="translate(508.84 590.53)">THANKSGIVING</text><text class="cls-8" transform="translate(271.69 211.53)">HALLOWEEN</text><polygon class="cls-6" points="362.16 540.46 351.23 551.39 351 554.35 353.96 554.12 364.89 543.19 362.16 540.46"/><path class="cls-6" d="M362.61,540l2.73,2.73.78-.78a.51.51,0,0,0,0-.72l-2-2a.51.51,0,0,0-.72,0Z"/><rect class="cls-7" x="751" y="528.12" width="124" height="38"/><text class="cls-2" transform="translate(764.45 554.41)">25</text><polygon class="cls-6" points="859.16 540.46 848.23 551.39 848 554.35 850.96 554.12 861.89 543.19 859.16 540.46"/><path class="cls-6" d="M859.61,540l2.73,2.73.78-.78a.51.51,0,0,0,0-.72l-2-2a.51.51,0,0,0-.72,0Z"/><rect class="cls-1" x="378" y="655.12" width="124" height="38"/><text class="cls-2" transform="translate(391.45 681.41)">29</text><text class="cls-3" transform="translate(412.82 724.53)">6 HRS</text><text class="cls-4" transform="translate(386.42 757.53)">MORE DETAILS</text><path class="cls-5" d="M440,767.88c-1.73,0-5.7-2.63-6-1.31-.66,2.92,5.15,6.88,6,6.88s6.66-4,6-6.88C445.7,765.25,441.74,767.88,440,767.88Z"/><polygon class="cls-6" points="486.16 667.46 475.23 678.39 475 681.35 477.96 681.12 488.89 670.19 486.16 667.46"/><path class="cls-6" d="M486.61,667l2.73,2.73.78-.78a.51.51,0,0,0,0-.72l-2-2a.51.51,0,0,0-.72,0Z"/><rect class="cls-1" x="502" y="655.12" width="124" height="38"/><text class="cls-2" transform="translate(515.45 681.41)">30</text><text class="cls-3" transform="translate(536.82 724.53)">8 HRS</text><text class="cls-4" transform="translate(510.42 757.53)">MORE DETAILS</text><path class="cls-5" d="M564,767.88c-1.73,0-5.7-2.63-6-1.31-.66,2.92,5.15,6.88,6,6.88s6.66-4,6-6.88C569.7,765.25,565.74,767.88,564,767.88Z"/><polygon class="cls-6" points="610.16 667.46 599.23 678.39 599 681.35 601.96 681.12 612.89 670.19 610.16 667.46"/><path class="cls-6" d="M610.61,667l2.73,2.73.78-.78a.51.51,0,0,0,0-.72l-2-2a.51.51,0,0,0-.72,0Z"/><rect class="cls-5" x="627" y="655.12" width="124" height="38"/><text class="cls-2" transform="translate(640.45 681.41)">1</text><polygon class="cls-6" points="735.16 667.46 724.23 678.39 724 681.35 726.96 681.12 737.89 670.19 735.16 667.46"/><path class="cls-6" d="M735.61,667l2.73,2.73.78-.78a.51.51,0,0,0,0-.72l-2-2a.51.51,0,0,0-.72,0Z"/><rect class="cls-7" x="5" y="655.12" width="124" height="38"/><text class="cls-2" transform="translate(18.45 681.41)">26</text><polygon class="cls-6" points="113.16 667.46 102.23 678.39 102 681.35 104.96 681.12 115.89 670.19 113.16 667.46"/><path class="cls-6" d="M113.61,667l2.73,2.73.78-.78a.51.51,0,0,0,0-.72l-2-2a.51.51,0,0,0-.72,0Z"/><rect class="cls-1" x="129" y="655.12" width="124" height="38"/><text class="cls-2" transform="translate(142.45 681.41)">27</text><text class="cls-3" transform="translate(163.82 724.53)">7 HRS</text><text class="cls-4" transform="translate(137.42 757.53)">MORE DETAILS</text><path class="cls-5" d="M191,767.88c-1.73,0-5.7-2.63-6-1.31-.66,2.92,5.15,6.88,6,6.88s6.66-4,6-6.88C196.7,765.25,192.74,767.88,191,767.88Z"/><polygon class="cls-6" points="237.16 667.46 226.23 678.39 226 681.35 228.96 681.12 239.89 670.19 237.16 667.46"/><path class="cls-6" d="M237.61,667l2.73,2.73.78-.78a.51.51,0,0,0,0-.72l-2-2a.51.51,0,0,0-.72,0Z"/><rect class="cls-1" x="254" y="655.12" width="124" height="38"/><text class="cls-2" transform="translate(267.45 681.41)">28</text><text class="cls-3" transform="translate(288.82 724.53)">5 HRS</text><text class="cls-4" transform="translate(262.42 757.53)">MORE DETAILS</text><path class="cls-5" d="M316,767.88c-1.73,0-5.7-2.63-6-1.31-.66,2.92,5.15,6.88,6,6.88s6.66-4,6-6.88C321.7,765.25,317.74,767.88,316,767.88Z"/><polygon class="cls-6" points="362.16 667.46 351.23 678.39 351 681.35 353.96 681.12 364.89 670.19 362.16 667.46"/><path class="cls-6" d="M362.61,667l2.73,2.73.78-.78a.51.51,0,0,0,0-.72l-2-2a.51.51,0,0,0-.72,0Z"/><rect class="cls-5" x="751" y="655.12" width="124" height="38"/><text class="cls-2" transform="translate(764.45 681.41)">2</text><polygon class="cls-6" points="859.16 667.46 848.23 678.39 848 681.35 850.96 681.12 861.89 670.19 859.16 667.46"/><path class="cls-6" d="M859.61,667l2.73,2.73.78-.78a.51.51,0,0,0,0-.72l-2-2a.51.51,0,0,0-.72,0Z"/><rect class="cls-9" x="5" y="148.12" width="870" height="632.25"/><rect class="cls-9" x="5" y="148.12" width="124.29" height="126.45"/><rect class="cls-9" x="129.29" y="148.12" width="124.29" height="126.45"/><rect class="cls-9" x="253.57" y="148.12" width="124.29" height="126.45"/><rect class="cls-9" x="377.86" y="148.12" width="124.29" height="126.45"/><rect class="cls-9" x="502.14" y="148.12" width="124.29" height="126.45"/><rect class="cls-9" x="626.43" y="148.12" width="124.29" height="126.45"/><rect class="cls-9" x="750.71" y="148.12" width="124.29" height="126.45"/><rect class="cls-9" x="5" y="274.57" width="124.29" height="126.45"/><rect class="cls-9" x="129.29" y="274.57" width="124.29" height="126.45"/><rect class="cls-9" x="253.57" y="274.57" width="124.29" height="126.45"/><rect class="cls-9" x="377.86" y="274.57" width="124.29" height="126.45"/><rect class="cls-9" x="502.14" y="274.57" width="124.29" height="126.45"/><rect class="cls-9" x="626.43" y="274.57" width="124.29" height="126.45"/><rect class="cls-9" x="750.71" y="274.57" width="124.29" height="126.45"/><rect class="cls-9" x="5" y="401.02" width="124.29" height="126.45"/><rect class="cls-9" x="129.29" y="401.02" width="124.29" height="126.45"/><rect class="cls-9" x="253.57" y="401.02" width="124.29" height="126.45"/><rect class="cls-9" x="377.86" y="401.02" width="124.29" height="126.45"/><rect class="cls-9" x="502.14" y="401.02" width="124.29" height="126.45"/><rect class="cls-9" x="626.43" y="401.02" width="124.29" height="126.45"/><rect class="cls-9" x="750.71" y="401.02" width="124.29" height="126.45"/><rect class="cls-9" x="5" y="527.47" width="124.29" height="126.45"/><rect class="cls-9" x="129.29" y="527.47" width="124.29" height="126.45"/><rect class="cls-9" x="253.57" y="527.47" width="124.29" height="126.45"/><rect class="cls-9" x="377.86" y="527.47" width="124.29" height="126.45"/><rect class="cls-9" x="502.14" y="527.47" width="124.29" height="126.45"/><rect class="cls-9" x="626.43" y="527.47" width="124.29" height="126.45"/><rect class="cls-9" x="750.71" y="527.47" width="124.29" height="126.45"/><rect class="cls-9" x="5" y="653.92" width="124.29" height="126.45"/><rect class="cls-9" x="129.29" y="653.92" width="124.29" height="126.45"/><rect class="cls-9" x="253.57" y="653.92" width="124.29" height="126.45"/><rect class="cls-9" x="377.86" y="653.92" width="124.29" height="126.45"/><rect class="cls-9" x="502.14" y="653.92" width="124.29" height="126.45"/><rect class="cls-9" x="626.43" y="653.92" width="124.29" height="126.45"/><rect class="cls-9" x="750.71" y="653.92" width="124.29" height="126.45"/><text class="cls-10" transform="translate(59.49 133.95)">S</text><text class="cls-10" transform="translate(177.86 133.95)">M</text><text class="cls-10" transform="translate(309.97 133.95)">T</text><text class="cls-10" transform="translate(426.86 133.95)">W</text><text class="cls-10" transform="translate(547.89 133.95)">TH</text><text class="cls-10" transform="translate(681.08 133.95)">F</text><text class="cls-10" transform="translate(805.49 133.95)">S</text><rect class="cls-9" x="1" y="95.12" width="878" height="689"/><rect id="Login" class="cls-11" x="249.76" y="30.91" width="222.48" height="45.71" rx="15" ry="15"/><line class="cls-12" x1="425.74" y1="30.91" x2="425.74" y2="76.62"/><text class="cls-13" transform="translate(279.07 60.14)">NOVEMBER</text><path class="cls-6" d="M447.84,51.22c2.4,0,7.91-3.66,8.33-1.82.92,4.05-7.15,9.54-8.33,9.54s-9.24-5.49-8.32-9.54C439.94,47.56,445.45,51.22,447.84,51.22Z"/><text class="cls-14" transform="translate(316.63 22.35)">MONTH</text><rect id="Login-2" data-name="Login" class="cls-15" x="2.76" y="31.81" width="222.48" height="45.71" rx="15" ry="15"/><line class="cls-16" x1="178.74" y1="31.81" x2="178.74" y2="77.52"/><text class="cls-13" transform="translate(22.24 61.04)">JAMIE CURTIS</text><path class="cls-6" d="M200.84,52.12c2.4,0,7.91-3.66,8.33-1.82.92,4.05-7.15,9.54-8.33,9.54s-9.24-5.49-8.32-9.54C192.94,48.46,198.45,52.12,200.84,52.12Z"/><text class="cls-14" transform="translate(57.47 22.35)">STUDENT</text><rect id="Login-3" data-name="Login" class="cls-17" x="491.76" y="29.91" width="127.48" height="45.71" rx="15" ry="15"/><line class="cls-18" x1="572.74" y1="29.91" x2="572.74" y2="75.62"/><text class="cls-13" transform="translate(508.94 59.14)">2017</text><path class="cls-6" d="M594.84,50.22c2.4,0,7.91-3.66,8.33-1.82.92,4.05-7.15,9.54-8.33,9.54s-9.24-5.49-8.32-9.54C586.94,46.56,592.45,50.22,594.84,50.22Z"/><text class="cls-14" transform="translate(520.66 22.35)">YEAR</text><text class="cls-19" transform="translate(673.76 59.75)">+ ADD STUDENT</text><path class="cls-20" d="M855.42,67.72H673.59c-.6,0-1.08-.31-1.08-.69s.48-.7,1.08-.7H855.42c.6,0,1.09.31,1.09.7S856,67.72,855.42,67.72Z"/></g></g></svg>