<svg xmlns="http://www.w3.org/2000/svg" xmlns:xlink="http://www.w3.org/1999/xlink" viewBox="0 0 317.91 682.99"><defs><style>.cls-1{fill:none;stroke:#c1c0c0;stroke-linecap:round;stroke-linejoin:round;stroke-width:2px;}.cls-2{opacity:0.25;}.cls-3{font-size:15.37px;}.cls-14,.cls-3{fill:#c12026;}.cls-14,.cls-3,.cls-8{font-family:CenturyGothic-Bold, Century Gothic;font-weight:700;}.cls-4{font-size:30.74px;fill:#c1c0c0;font-family:CollegiateHeavyOutline-Medium, CollegiateHeavyOutline;}.cls-5{letter-spacing:-0.15em;}.cls-6{letter-spacing:-0.11em;}.cls-7{letter-spacing:0em;}.cls-8{font-size:24.01px;fill:#88181c;}.cls-9{fill:url(#linear-gradient);}.cls-10{fill:url(#linear-gradient-2);}.cls-11{fill:url(#linear-gradient-3);}.cls-12{fill:url(#linear-gradient-4);}.cls-13{fill:url(#linear-gradient-5);}.cls-14{font-size:25px;}</style><linearGradient id="linear-gradient" x1="91.96" y1="56.8" x2="131.96" y2="56.8" gradientUnits="userSpaceOnUse"><stop offset="0" stop-color="#88181c"/><stop offset="0.65" stop-color="#c12026"/></linearGradient><linearGradient id="linear-gradient-2" x1="91.96" y1="177.8" x2="189.96" y2="177.8" xlink:href="#linear-gradient"/><linearGradient id="linear-gradient-3" x1="91.96" y1="299.8" x2="249.96" y2="299.8" xlink:href="#linear-gradient"/><linearGradient id="linear-gradient-4" x1="91.96" y1="421.8" x2="229.96" y2="421.8" xlink:href="#linear-gradient"/><linearGradient id="linear-gradient-5" x1="91.96" y1="543.8" x2="151.96" y2="543.8" xlink:href="#linear-gradient"/></defs><title>Asset 21</title><g id="Layer_2" data-name="Layer 2"><g id="Layer_1-2" data-name="Layer 1"><rect class="cls-1" x="-98.31" y="167.86" width="578.25" height="244.53" transform="translate(480.94 99.31) rotate(90)"/><rect class="cls-1" x="-95.15" y="171.43" width="571.52" height="237.39" transform="translate(480.73 99.51) rotate(90)"/><g class="cls-2"><rect class="cls-1" x="151.56" y="4.48" width="19.88" height="571.51"/><rect class="cls-1" x="131.68" y="4.48" width="19.88" height="571.51"/><rect class="cls-1" x="111.8" y="4.48" width="19.88" height="571.51"/><rect class="cls-1" x="91.93" y="4.48" width="19.88" height="571.51"/><rect class="cls-1" x="72.05" y="4.48" width="19.88" height="571.51"/><rect class="cls-1" x="229.78" y="4.48" width="19.88" height="571.51"/><rect class="cls-1" x="209.91" y="4.48" width="19.88" height="571.51"/><rect class="cls-1" x="190.03" y="4.48" width="19.88" height="571.51"/><rect class="cls-1" x="289.43" y="4.6" width="19.88" height="571.51"/><rect class="cls-1" x="269.55" y="4.6" width="19.88" height="571.51"/><rect class="cls-1" x="249.68" y="4.6" width="19.88" height="571.51"/></g><line class="cls-1" x1="91.93" y1="573.24" x2="91.93" y2="584.71"/><line class="cls-1" x1="111.81" y1="573.24" x2="111.81" y2="584.71"/><line class="cls-1" x1="131.69" y1="573.24" x2="131.69" y2="584.71"/><line class="cls-1" x1="151.57" y1="573.24" x2="151.57" y2="584.71"/><line class="cls-1" x1="171.46" y1="573.24" x2="171.46" y2="584.71"/><line class="cls-1" x1="190.1" y1="573.24" x2="190.1" y2="584.71"/><line class="cls-1" x1="209.97" y1="573.24" x2="209.97" y2="584.71"/><line class="cls-1" x1="229.81" y1="573.24" x2="229.81" y2="584.71"/><line class="cls-1" x1="249.75" y1="573.24" x2="249.75" y2="584.71"/><line class="cls-1" x1="269.52" y1="573.24" x2="269.52" y2="584.71"/><line class="cls-1" x1="289.37" y1="573.24" x2="289.37" y2="584.71"/><line class="cls-1" x1="309.3" y1="573.24" x2="309.3" y2="584.71"/><text class="cls-3" transform="translate(52.38 91.44) rotate(-90)">MONDAY</text><text class="cls-3" transform="translate(52.38 209.91) rotate(-90)">TUESDAY</text><text class="cls-3" transform="translate(52.38 345.13) rotate(-90)">WEDNESDAY</text><text class="cls-3" transform="translate(52.38 458.38) rotate(-90)">THURSDAY</text><text class="cls-3" transform="translate(52.38 568.23) rotate(-90)">FRIDAY</text><text class="cls-3" transform="translate(106.78 602.31)">2</text><text class="cls-3" transform="translate(146.42 602.31)">4</text><text class="cls-3" transform="translate(186.07 602.31)">6</text><text class="cls-3" transform="translate(225.71 602.31)">8</text><text class="cls-3" transform="translate(261.05 602.31)">10</text><text class="cls-3" transform="translate(300.7 602.31)">12</text><text class="cls-4" transform="translate(69.65 642.02)">STUDENT DAI<tspan class="cls-5" x="200.25" y="0">L</tspan><tspan x="213.28" y="0">Y</tspan><tspan class="cls-6"><tspan x="20.39" y="36.88">A</tspan><tspan class="cls-7" x="39.39" y="36.88">TTENDANCE</tspan></tspan></text><text class="cls-8" transform="translate(20.63 378.48) rotate(-90)">DAYS OF THE WEEK</text><rect class="cls-9" x="91.96" y="45.3" width="40" height="23" rx="11.5" ry="11.5"/><rect class="cls-10" x="91.96" y="166.3" width="98" height="23" rx="11.5" ry="11.5"/><rect class="cls-11" x="91.96" y="288.3" width="158" height="23" rx="11.5" ry="11.5"/><rect class="cls-12" x="91.96" y="410.3" width="138" height="23" rx="11.5" ry="11.5"/><rect class="cls-13" x="91.96" y="532.3" width="60" height="23" rx="11.5" ry="11.5"/><text class="cls-14" transform="translate(144.4 64.23)">3</text><text class="cls-14" transform="translate(203.4 186.23)">7</text><text class="cls-14" transform="translate(262.4 309.23)">9</text><text class="cls-14" transform="translate(243.4 431.23)">8</text><text class="cls-14" transform="translate(164.4 552.23)">4</text></g></g></svg>