<svg xmlns="http://www.w3.org/2000/svg" xmlns:xlink="http://www.w3.org/1999/xlink" viewBox="0 0 1185.75 785.12"><defs><style>.cls-1{font-size:18px;}.cls-1,.cls-13,.cls-6{fill:#c1c0c0;}.cls-1,.cls-16,.cls-18,.cls-4,.cls-8{font-family:CenturyGothic-Bold, Century Gothic;font-weight:700;}.cls-2{font-size:30px;}.cls-16,.cls-17,.cls-2,.cls-8{fill:#88181c;}.cls-3{fill:#c12026;}.cls-4,.cls-8{font-size:29.64px;}.cls-11,.cls-12,.cls-18,.cls-4{fill:#fff;}.cls-5{fill:#f1696a;}.cls-10,.cls-15,.cls-7{fill:none;}.cls-7{stroke:#c1c0c0;stroke-linecap:round;stroke-linejoin:round;stroke-width:2px;}.cls-9{fill:url(#linear-gradient);}.cls-10,.cls-15{stroke-miterlimit:10;}.cls-10{stroke:url(#linear-gradient-2);}.cls-11{font-size:21.35px;font-family:CenturyGothic, Century Gothic;}.cls-13,.cls-16{font-size:25px;}.cls-13{font-family:CollegiateHeavyOutline-Medium, CollegiateHeavyOutline;}.cls-14{fill:url(#linear-gradient-3);}.cls-15{stroke:url(#linear-gradient-4);}.cls-18{font-size:15px;}</style><linearGradient id="linear-gradient" x1="519.38" y1="76.62" x2="519.38" y2="30.91" gradientUnits="userSpaceOnUse"><stop offset="0" stop-color="#88181c"/><stop offset="0.65" stop-color="#c12026"/></linearGradient><linearGradient id="linear-gradient-2" x1="584.11" y1="30.91" x2="584.11" y2="76.62" xlink:href="#linear-gradient"/><linearGradient id="linear-gradient-3" x1="713.88" y1="75.62" x2="713.88" y2="29.91" xlink:href="#linear-gradient"/><linearGradient id="linear-gradient-4" x1="731.11" y1="29.91" x2="731.11" y2="75.62" xlink:href="#linear-gradient"/></defs><title>Asset 23</title><g id="Layer_2" data-name="Layer 2"><g id="Layer_1-2" data-name="Layer 1"><text class="cls-1" transform="translate(529.72 222.9)">AVAILABLE HRS<tspan class="cls-2"><tspan x="56.75" y="36">9</tspan></tspan></text><rect class="cls-3" x="508.88" y="148.12" width="168" height="47"/><text class="cls-4" transform="translate(522.32 182.95)">1</text><text class="cls-1" transform="translate(696.72 222.9)">AVAILABLE HRS<tspan class="cls-2"><tspan x="56.75" y="36">9</tspan></tspan></text><rect class="cls-3" x="675.88" y="148.12" width="168" height="47"/><text class="cls-4" transform="translate(689.32 182.95)">2</text><text class="cls-1" transform="translate(864.72 222.9)">AVAILABLE HRS<tspan class="cls-2"><tspan x="56.75" y="36">9</tspan></tspan></text><rect class="cls-3" x="843.88" y="148.12" width="168" height="47"/><text class="cls-4" transform="translate(857.32 182.95)">3</text><text class="cls-1" transform="translate(1031.72 222.9)">AVAILABLE HRS<tspan class="cls-2"><tspan x="56.75" y="36">0</tspan></tspan></text><rect class="cls-5" x="1010.88" y="148.12" width="168" height="47"/><text class="cls-4" transform="translate(1024.32 182.95)">4</text><rect class="cls-6" x="5.88" y="148.12" width="168" height="47"/><text class="cls-4" transform="translate(19.32 182.95)">29</text><rect class="cls-6" x="172.88" y="148.12" width="168" height="47"/><text class="cls-4" transform="translate(186.32 182.95)">30</text><rect class="cls-6" x="340.88" y="148.12" width="168" height="47"/><text class="cls-4" transform="translate(354.32 182.95)">31</text><text class="cls-1" transform="translate(529.72 348.9)">AVAILABLE HRS<tspan class="cls-2"><tspan x="56.75" y="36">9</tspan></tspan></text><rect class="cls-3" x="508.88" y="274.12" width="168" height="47"/><text class="cls-4" transform="translate(522.32 308.95)">8</text><text class="cls-1" transform="translate(696.72 348.9)">AVAILABLE HRS<tspan class="cls-2"><tspan x="56.75" y="36">9</tspan></tspan></text><rect class="cls-3" x="675.88" y="274.12" width="168" height="47"/><text class="cls-4" transform="translate(689.32 308.95)">9</text><text class="cls-1" transform="translate(864.72 348.9)">AVAILABLE HRS<tspan class="cls-2"><tspan x="56.75" y="36">9</tspan></tspan></text><rect class="cls-3" x="843.88" y="274.12" width="168" height="47"/><text class="cls-4" transform="translate(857.32 308.95)">10</text><text class="cls-1" transform="translate(1032.72 348.9)">AVAILABLE HRS<tspan class="cls-2"><tspan x="56.75" y="36">0</tspan></tspan></text><rect class="cls-5" x="1011.88" y="274.12" width="168" height="47"/><text class="cls-4" transform="translate(1025.32 308.95)">11</text><text class="cls-1" transform="translate(26.72 348.9)">AVAILABLE HRS<tspan class="cls-2"><tspan x="56.75" y="36">0</tspan></tspan></text><rect class="cls-5" x="5.88" y="274.12" width="168" height="47"/><text class="cls-4" transform="translate(19.32 308.95)">5</text><text class="cls-1" transform="translate(193.72 348.9)">AVAILABLE HRS<tspan class="cls-2"><tspan x="56.75" y="36">9</tspan></tspan></text><rect class="cls-3" x="172.88" y="274.12" width="168" height="47"/><text class="cls-4" transform="translate(186.32 308.95)">6</text><text class="cls-1" transform="translate(361.72 348.9)">AVAILABLE HRS<tspan class="cls-2"><tspan x="56.75" y="36">9</tspan></tspan></text><rect class="cls-3" x="340.88" y="274.12" width="168" height="47"/><text class="cls-4" transform="translate(354.32 308.95)">7</text><text class="cls-1" transform="translate(529.72 474.9)">AVAILABLE HRS<tspan class="cls-2"><tspan x="56.75" y="36">9</tspan></tspan></text><rect class="cls-3" x="508.88" y="400.12" width="168" height="47"/><text class="cls-4" transform="translate(522.32 434.95)">15</text><text class="cls-1" transform="translate(696.72 474.9)">AVAILABLE HRS<tspan class="cls-2"><tspan x="56.75" y="36">9</tspan></tspan></text><rect class="cls-3" x="675.88" y="400.12" width="168" height="47"/><text class="cls-4" transform="translate(689.32 434.95)">16</text><text class="cls-1" transform="translate(864.72 474.9)">AVAILABLE HRS<tspan class="cls-2"><tspan x="56.75" y="36">9</tspan></tspan></text><rect class="cls-3" x="843.88" y="400.12" width="168" height="47"/><text class="cls-4" transform="translate(857.32 434.95)">17</text><text class="cls-1" transform="translate(1032.72 474.9)">AVAILABLE HRS<tspan class="cls-2"><tspan x="56.75" y="36">0</tspan></tspan></text><rect class="cls-5" x="1011.88" y="400.12" width="168" height="47"/><text class="cls-4" transform="translate(1025.32 434.95)">18</text><text class="cls-1" transform="translate(26.72 474.9)">AVAILABLE HRS<tspan class="cls-2"><tspan x="56.75" y="36">0</tspan></tspan></text><rect class="cls-5" x="5.88" y="400.12" width="168" height="47"/><text class="cls-4" transform="translate(19.32 434.95)">12</text><text class="cls-1" transform="translate(193.72 474.9)">AVAILABLE HRS<tspan class="cls-2"><tspan x="56.75" y="36">9</tspan></tspan></text><rect class="cls-3" x="172.88" y="400.12" width="168" height="47"/><text class="cls-4" transform="translate(186.32 434.95)">13</text><text class="cls-1" transform="translate(361.72 474.9)">AVAILABLE HRS<tspan class="cls-2"><tspan x="56.75" y="36">9</tspan></tspan></text><rect class="cls-3" x="340.88" y="400.12" width="168" height="47"/><text class="cls-4" transform="translate(354.32 434.95)">14</text><text class="cls-1" transform="translate(529.72 600.9)">AVAILABLE HRS<tspan class="cls-2"><tspan x="56.75" y="36">0</tspan></tspan></text><rect class="cls-5" x="508.88" y="526.12" width="168" height="47"/><text class="cls-4" transform="translate(522.32 560.95)">22</text><text class="cls-1" transform="translate(696.72 600.9)">AVAILABLE HRS<tspan class="cls-2"><tspan x="56.75" y="36">0</tspan></tspan></text><rect class="cls-5" x="675.88" y="526.12" width="168" height="47"/><text class="cls-4" transform="translate(689.32 560.95)">23</text><text class="cls-1" transform="translate(864.72 600.9)">AVAILABLE HRS<tspan class="cls-2"><tspan x="56.75" y="36">0</tspan></tspan></text><rect class="cls-5" x="843.88" y="526.12" width="168" height="47"/><text class="cls-4" transform="translate(857.32 560.95)">24</text><text class="cls-1" transform="translate(1032.72 600.9)">AVAILABLE HRS<tspan class="cls-2"><tspan x="56.75" y="36">0</tspan></tspan></text><rect class="cls-5" x="1011.88" y="526.12" width="168" height="47"/><text class="cls-4" transform="translate(1025.32 560.95)">25</text><text class="cls-1" transform="translate(26.72 600.9)">AVAILABLE HRS<tspan class="cls-2"><tspan x="56.75" y="36">0</tspan></tspan></text><rect class="cls-5" x="5.88" y="526.12" width="168" height="47"/><text class="cls-4" transform="translate(19.32 560.95)">19</text><text class="cls-1" transform="translate(193.72 600.9)">AVAILABLE HRS<tspan class="cls-2"><tspan x="56.75" y="36">9</tspan></tspan></text><rect class="cls-3" x="172.88" y="526.12" width="168" height="47"/><text class="cls-4" transform="translate(186.32 560.95)">20</text><text class="cls-1" transform="translate(361.72 600.9)">AVAILABLE HRS<tspan class="cls-2"><tspan x="56.75" y="36">4</tspan></tspan></text><rect class="cls-3" x="340.88" y="526.12" width="168" height="47"/><text class="cls-4" transform="translate(354.32 560.95)">21</text><text class="cls-1" transform="translate(529.72 726.9)">AVAILABLE HRS<tspan class="cls-2"><tspan x="56.75" y="36">9</tspan></tspan></text><rect class="cls-3" x="508.88" y="652.12" width="168" height="47"/><text class="cls-4" transform="translate(522.32 686.95)">29</text><text class="cls-1" transform="translate(696.72 726.9)">AVAILABLE HRS<tspan class="cls-2"><tspan x="56.75" y="36">9</tspan></tspan></text><rect class="cls-3" x="675.88" y="652.12" width="168" height="47"/><text class="cls-4" transform="translate(689.32 686.95)">30</text><rect class="cls-6" x="843.88" y="652.12" width="168" height="47"/><text class="cls-4" transform="translate(857.32 686.95)">1</text><rect class="cls-6" x="1011.88" y="652.12" width="168" height="47"/><text class="cls-4" transform="translate(1025.32 686.95)">2</text><text class="cls-1" transform="translate(26.72 726.9)">AVAILABLE HRS<tspan class="cls-2"><tspan x="56.75" y="36">0</tspan></tspan></text><rect class="cls-5" x="5.88" y="652.12" width="168" height="47"/><text class="cls-4" transform="translate(19.32 686.95)">26</text><text class="cls-1" transform="translate(193.72 726.9)">AVAILABLE HRS<tspan class="cls-2"><tspan x="56.75" y="36">9</tspan></tspan></text><rect class="cls-3" x="172.88" y="652.12" width="168" height="47"/><text class="cls-4" transform="translate(186.32 686.95)">27</text><text class="cls-1" transform="translate(361.72 726.9)">AVAILABLE HRS<tspan class="cls-2"><tspan x="56.75" y="36">9</tspan></tspan></text><rect class="cls-3" x="340.88" y="652.12" width="168" height="47"/><text class="cls-4" transform="translate(354.32 686.95)">28</text><rect class="cls-7" x="6.39" y="148.12" width="1172.96" height="632.25"/><rect class="cls-7" x="6.39" y="148.12" width="167.57" height="126.45"/><rect class="cls-7" x="173.96" y="148.12" width="167.57" height="126.45"/><rect class="cls-7" x="341.53" y="148.12" width="167.57" height="126.45"/><rect class="cls-7" x="509.09" y="148.12" width="167.57" height="126.45"/><rect class="cls-7" x="676.66" y="148.12" width="167.57" height="126.45"/><rect class="cls-7" x="844.22" y="148.12" width="167.57" height="126.45"/><rect class="cls-7" x="1011.79" y="148.12" width="167.57" height="126.45"/><rect class="cls-7" x="6.39" y="274.57" width="167.57" height="126.45"/><rect class="cls-7" x="173.96" y="274.57" width="167.57" height="126.45"/><rect class="cls-7" x="341.53" y="274.57" width="167.57" height="126.45"/><rect class="cls-7" x="509.09" y="274.57" width="167.57" height="126.45"/><rect class="cls-7" x="676.66" y="274.57" width="167.57" height="126.45"/><rect class="cls-7" x="844.22" y="274.57" width="167.57" height="126.45"/><rect class="cls-7" x="1011.79" y="274.57" width="167.57" height="126.45"/><rect class="cls-7" x="6.39" y="401.02" width="167.57" height="126.45"/><rect class="cls-7" x="173.96" y="401.02" width="167.57" height="126.45"/><rect class="cls-7" x="341.53" y="401.02" width="167.57" height="126.45"/><rect class="cls-7" x="509.09" y="401.02" width="167.57" height="126.45"/><rect class="cls-7" x="676.66" y="401.02" width="167.57" height="126.45"/><rect class="cls-7" x="844.22" y="401.02" width="167.57" height="126.45"/><rect class="cls-7" x="1011.79" y="401.02" width="167.57" height="126.45"/><rect class="cls-7" x="6.39" y="527.47" width="167.57" height="126.45"/><rect class="cls-7" x="173.96" y="527.47" width="167.57" height="126.45"/><rect class="cls-7" x="341.53" y="527.47" width="167.57" height="126.45"/><rect class="cls-7" x="509.09" y="527.47" width="167.57" height="126.45"/><rect class="cls-7" x="676.66" y="527.47" width="167.57" height="126.45"/><rect class="cls-7" x="844.22" y="527.47" width="167.57" height="126.45"/><rect class="cls-7" x="1011.79" y="527.47" width="167.57" height="126.45"/><rect class="cls-7" x="6.39" y="653.92" width="167.57" height="126.45"/><rect class="cls-7" x="173.96" y="653.92" width="167.57" height="126.45"/><rect class="cls-7" x="341.53" y="653.92" width="167.57" height="126.45"/><rect class="cls-7" x="509.09" y="653.92" width="167.57" height="126.45"/><rect class="cls-7" x="676.66" y="653.92" width="167.57" height="126.45"/><rect class="cls-7" x="844.22" y="653.92" width="167.57" height="126.45"/><rect class="cls-7" x="1011.79" y="653.92" width="167.57" height="126.45"/><text class="cls-8" transform="translate(82.61 133.95)">S</text><text class="cls-8" transform="translate(243.98 133.95)">M</text><text class="cls-8" transform="translate(419.09 133.95)">T</text><text class="cls-8" transform="translate(579.98 133.95)">W</text><text class="cls-8" transform="translate(744.01 133.95)">TH</text><text class="cls-8" transform="translate(921.2 133.95)">F</text><text class="cls-8" transform="translate(1087.61 133.95)">S</text><rect class="cls-7" x="1" y="95.12" width="1183.75" height="689"/><rect id="Login" class="cls-9" x="408.14" y="30.91" width="222.48" height="45.71" rx="15" ry="15"/><line class="cls-10" x1="584.11" y1="30.91" x2="584.11" y2="76.62"/><text class="cls-11" transform="translate(437.44 60.14)">NOVEMBER</text><path class="cls-12" d="M606.22,51.22c2.39,0,7.9-3.66,8.32-1.82.92,4.05-7.14,9.54-8.32,9.54s-9.25-5.49-8.33-9.54C598.31,47.56,603.82,51.22,606.22,51.22Z"/><text class="cls-13" transform="translate(475 22.35)">MONTH</text><rect id="Login-2" data-name="Login" class="cls-14" x="650.14" y="29.91" width="127.48" height="45.71" rx="15" ry="15"/><line class="cls-15" x1="731.11" y1="29.91" x2="731.11" y2="75.62"/><text class="cls-11" transform="translate(667.31 59.14)">2017</text><path class="cls-12" d="M753.22,50.22c2.39,0,7.9-3.66,8.32-1.82.92,4.05-7.14,9.54-8.32,9.54s-9.25-5.49-8.33-9.54C745.31,46.56,750.82,50.22,753.22,50.22Z"/><text class="cls-13" transform="translate(679.04 22.35)">YEAR</text><text class="cls-16" transform="translate(1047.88 67.75)">EDIT HOURS</text><path class="cls-17" d="M1183.44,75.72H1024.82c-.52,0-.94-.31-.94-.69s.42-.7.94-.7h158.62c.52,0,.94.31.94.7S1184,75.72,1183.44,75.72Z"/><g id="Layer_2-2" data-name="Layer 2"><g id="Layer_1-2-2" data-name="Layer 1-2"><polygon class="cls-17" points="1038.26 51.84 1024.65 65.43 1024.37 69.12 1028.05 68.83 1041.65 55.23 1038.26 51.84"/><path class="cls-17" d="M1038.82,51.27l3.4,3.43,1-1a.65.65,0,0,0,0-.9l-2.5-2.53a.65.65,0,0,0-.9,0Z"/></g></g><text class="cls-18" transform="translate(728.72 557.53)">THANKSGIVING</text><text class="cls-18" transform="translate(402.56 178.53)">HALLOWEEN</text></g></g></svg>