<svg xmlns="http://www.w3.org/2000/svg" xmlns:xlink="http://www.w3.org/1999/xlink" viewBox="0 0 303.1 255.63"><defs><style>.cls-1{fill:none;stroke:#c1c0c0;stroke-linecap:round;stroke-linejoin:round;stroke-width:2px;}.cls-2{opacity:0.25;}.cls-3,.cls-4{font-size:29.64px;}.cls-3,.cls-5{fill:#3d91cf;}.cls-10,.cls-13,.cls-3,.cls-4,.cls-5{font-family:CenturyGothic-Bold, Century Gothic;}.cls-11,.cls-13,.cls-3,.cls-4,.cls-5{font-weight:700;}.cls-12,.cls-4{fill:#c1c0c0;}.cls-5{font-size:11.86px;}.cls-6{fill:url(#linear-gradient);}.cls-7{fill:url(#linear-gradient-2);}.cls-8{fill:url(#linear-gradient-3);}.cls-9{fill:url(#linear-gradient-4);}.cls-10{font-size:25.94px;}.cls-10,.cls-13{fill:#37499e;}.cls-12{font-family:CollegiateHeavyOutline-Medium, CollegiateHeavyOutline;letter-spacing:0em;}.cls-13{font-size:16px;}</style><linearGradient id="linear-gradient" x1="77.16" y1="159.57" x2="77.16" y2="87.64" gradientUnits="userSpaceOnUse"><stop offset="0.35" stop-color="#37499e"/><stop offset="1" stop-color="#3d91cf"/></linearGradient><linearGradient id="linear-gradient-2" x1="125.4" y1="159.57" x2="125.4" y2="110.64" xlink:href="#linear-gradient"/><linearGradient id="linear-gradient-3" x1="173.65" y1="159.57" x2="173.65" y2="99.09" xlink:href="#linear-gradient"/><linearGradient id="linear-gradient-4" x1="221.9" y1="159.57" x2="221.9" y2="75.64" xlink:href="#linear-gradient"/></defs><title>Week (5)</title><g id="Layer_2" data-name="Layer 2"><g id="Layer_1-2" data-name="Layer 1"><g id="Week"><rect class="cls-1" x="45.21" y="1.94" width="256.88" height="170.8"/><rect class="cls-1" x="48.42" y="5.09" width="250.46" height="164.5"/><g class="cls-2"><rect class="cls-1" x="48.42" y="5.09" width="250.46" height="11.75"/><rect class="cls-1" x="48.42" y="16.84" width="250.46" height="11.75"/><rect class="cls-1" x="48.42" y="28.59" width="250.46" height="11.75"/><rect class="cls-1" x="48.42" y="40.34" width="250.46" height="11.75"/><rect class="cls-1" x="48.42" y="52.09" width="250.46" height="11.75"/><rect class="cls-1" x="48.42" y="63.84" width="250.46" height="11.75"/><rect class="cls-1" x="48.42" y="75.59" width="250.46" height="11.75"/><rect class="cls-1" x="48.42" y="87.34" width="250.46" height="11.75"/><rect class="cls-1" x="48.42" y="99.09" width="250.46" height="11.75"/><rect class="cls-1" x="48.42" y="110.84" width="250.46" height="11.75"/><rect class="cls-1" x="48.42" y="122.59" width="250.46" height="11.75"/><rect class="cls-1" x="48.42" y="134.34" width="250.46" height="11.75"/><rect class="cls-1" x="48.42" y="146.1" width="250.46" height="11.75"/><rect class="cls-1" x="48.42" y="157.85" width="250.46" height="11.75"/></g><line class="cls-1" x1="38.05" y1="157.85" x2="52.37" y2="157.85"/><line class="cls-1" x1="38.05" y1="146.1" x2="52.37" y2="146.1"/><line class="cls-1" x1="38.05" y1="134.34" x2="52.37" y2="134.34"/><line class="cls-1" x1="38.05" y1="122.59" x2="52.37" y2="122.59"/><line class="cls-1" x1="38.05" y1="110.84" x2="52.37" y2="110.84"/><line class="cls-1" x1="38.05" y1="99.09" x2="52.37" y2="99.09"/><line class="cls-1" x1="38.05" y1="87.34" x2="52.37" y2="87.34"/><line class="cls-1" x1="38.05" y1="75.59" x2="52.37" y2="75.59"/><line class="cls-1" x1="38.05" y1="63.84" x2="52.37" y2="63.84"/><line class="cls-1" x1="38.05" y1="52.09" x2="52.37" y2="52.09"/><line class="cls-1" x1="38.05" y1="40.34" x2="52.37" y2="40.34"/><line class="cls-1" x1="38.05" y1="28.59" x2="52.37" y2="28.59"/><line class="cls-1" x1="38.05" y1="16.84" x2="52.37" y2="16.84"/><line class="cls-1" x1="38.05" y1="5.09" x2="52.37" y2="5.09"/><text class="cls-3" transform="translate(63.82 208.47)">M</text><text class="cls-3" transform="translate(119.18 208.47)">T</text><text class="cls-3" transform="translate(160.32 208.47)">W</text><text class="cls-3" transform="translate(205.6 208.47)">TH</text><text class="cls-4" transform="translate(263.04 208.47)">F</text><text class="cls-5" transform="translate(27.81 150.26)">2</text><text class="cls-5" transform="translate(27.81 126.55)">4</text><text class="cls-5" transform="translate(27.81 102.46)">6</text><text class="cls-5" transform="translate(27.81 79.47)">8</text><text class="cls-5" transform="translate(22.27 55.74)">10</text><text class="cls-5" transform="translate(22.27 32.77)">12</text><text class="cls-5" transform="translate(22.27 10.18)">14</text><rect class="cls-6" x="72.16" y="87.64" width="10" height="71.93" rx="5" ry="5"/><rect class="cls-7" x="120.4" y="110.64" width="10" height="48.93" rx="5" ry="5"/><rect class="cls-8" x="168.65" y="99.09" width="10" height="60.48" rx="5" ry="5"/><rect class="cls-9" x="216.9" y="75.64" width="10" height="83.93" rx="5" ry="5"/><text class="cls-10" transform="translate(45.08 247.68)"><tspan class="cls-11">NOV. 27</tspan><tspan class="cls-12" x="102.69" y="0" xml:space="preserve"> TO </tspan><tspan class="cls-11" x="154.46" y="0">NOV. 30</tspan></text><text class="cls-13" transform="translate(13.74 113.9) rotate(-90)">HOURS</text></g></g></g></svg>