<svg xmlns="http://www.w3.org/2000/svg" xmlns:xlink="http://www.w3.org/1999/xlink" viewBox="0 0 853.88 665.94"><defs><style>.cls-1{fill:none;stroke:#c1c0c0;stroke-linecap:round;stroke-linejoin:round;stroke-width:2px;}.cls-2{opacity:0.25;}.cls-3{font-size:15.37px;}.cls-3,.cls-4{fill:#c12026;}.cls-3,.cls-4,.cls-6{font-family:CenturyGothic-Bold, Century Gothic;font-weight:700;}.cls-4{font-size:17.29px;}.cls-5{font-size:30.74px;fill:#c1c0c0;font-family:CollegiateHeavyOutline-Medium, CollegiateHeavyOutline;}.cls-6{font-size:24.01px;fill:#88181c;}.cls-7{fill:url(#linear-gradient);}.cls-8{fill:url(#linear-gradient-2);}.cls-9{fill:url(#linear-gradient-3);}.cls-10{fill:url(#linear-gradient-4);}.cls-11{fill:url(#linear-gradient-5);}.cls-12{fill:url(#linear-gradient-6);}.cls-13{fill:url(#linear-gradient-7);}.cls-14{fill:url(#linear-gradient-8);}.cls-15{fill:url(#linear-gradient-9);}</style><linearGradient id="linear-gradient" x1="104.68" y1="566.65" x2="104.68" y2="255.5" gradientUnits="userSpaceOnUse"><stop offset="0" stop-color="#88181c"/><stop offset="0.65" stop-color="#c12026"/></linearGradient><linearGradient id="linear-gradient-2" x1="191.13" y1="566.65" x2="191.13" y2="482.19" xlink:href="#linear-gradient"/><linearGradient id="linear-gradient-3" x1="277.58" y1="566.13" x2="277.58" y2="312.18" xlink:href="#linear-gradient"/><linearGradient id="linear-gradient-4" x1="364.03" y1="566.65" x2="364.03" y2="122.95" xlink:href="#linear-gradient"/><linearGradient id="linear-gradient-5" x1="451.49" y1="566.65" x2="451.49" y2="150.81" xlink:href="#linear-gradient"/><linearGradient id="linear-gradient-6" x1="537.97" y1="566.65" x2="537.97" y2="321.78" xlink:href="#linear-gradient"/><linearGradient id="linear-gradient-7" x1="624.45" y1="566.65" x2="624.45" y2="255.5" xlink:href="#linear-gradient"/><linearGradient id="linear-gradient-8" x1="710.92" y1="566.65" x2="710.92" y2="292.97" xlink:href="#linear-gradient"/><linearGradient id="linear-gradient-9" x1="797.4" y1="566.65" x2="797.4" y2="245.9" xlink:href="#linear-gradient"/></defs><title>Asset 20</title><g id="Layer_2" data-name="Layer 2"><g id="Layer_1-2" data-name="Layer 1"><rect class="cls-1" x="69.07" y="7.38" width="783.8" height="571.52"/><rect class="cls-1" x="72.44" y="10.57" width="777.08" height="565.76"/><g class="cls-2"><rect class="cls-1" x="72.28" y="444.11" width="780.31" height="9.41"/><rect class="cls-1" x="72.28" y="453.53" width="780.31" height="9.41"/><rect class="cls-1" x="72.28" y="462.94" width="780.31" height="9.41"/><rect class="cls-1" x="72.28" y="472.35" width="780.31" height="9.41"/><rect class="cls-1" x="72.28" y="481.76" width="780.31" height="9.41"/><rect class="cls-1" x="72.28" y="491.18" width="780.31" height="9.41"/><rect class="cls-1" x="72.28" y="500.59" width="780.31" height="9.41"/><rect class="cls-1" x="72.28" y="510" width="780.31" height="9.41"/><rect class="cls-1" x="72.28" y="519.41" width="780.31" height="9.41"/><rect class="cls-1" x="72.28" y="528.82" width="780.31" height="9.41"/><rect class="cls-1" x="72.28" y="538.24" width="780.31" height="9.41"/><rect class="cls-1" x="72.28" y="547.65" width="780.31" height="9.41"/><rect class="cls-1" x="72.28" y="557.06" width="780.31" height="9.41"/><rect class="cls-1" x="72.28" y="566.47" width="780.31" height="9.41"/><rect class="cls-1" x="72.28" y="311.95" width="780.31" height="9.41"/><rect class="cls-1" x="72.28" y="321.36" width="780.31" height="9.41"/><rect class="cls-1" x="72.28" y="330.77" width="780.31" height="9.41"/><rect class="cls-1" x="72.28" y="340.19" width="780.31" height="9.41"/><rect class="cls-1" x="72.28" y="349.6" width="780.31" height="9.41"/><rect class="cls-1" x="72.28" y="359.01" width="780.31" height="9.41"/><rect class="cls-1" x="72.28" y="368.42" width="780.31" height="9.41"/><rect class="cls-1" x="72.28" y="377.83" width="780.31" height="9.41"/><rect class="cls-1" x="72.28" y="387.25" width="780.31" height="9.41"/><rect class="cls-1" x="72.28" y="396.66" width="780.31" height="9.41"/><rect class="cls-1" x="72.28" y="406.07" width="780.31" height="9.41"/><rect class="cls-1" x="72.28" y="415.48" width="780.31" height="9.41"/><rect class="cls-1" x="72.28" y="424.89" width="780.31" height="9.41"/><rect class="cls-1" x="72.28" y="179.78" width="780.31" height="9.41"/><rect class="cls-1" x="72.28" y="189.2" width="780.31" height="9.41"/><rect class="cls-1" x="72.28" y="198.61" width="780.31" height="9.41"/><rect class="cls-1" x="72.28" y="208.02" width="780.31" height="9.41"/><rect class="cls-1" x="72.28" y="217.43" width="780.31" height="9.41"/><rect class="cls-1" x="72.28" y="226.84" width="780.31" height="9.41"/><rect class="cls-1" x="72.28" y="236.26" width="780.31" height="9.41"/><rect class="cls-1" x="72.28" y="245.67" width="780.31" height="9.41"/><rect class="cls-1" x="72.28" y="255.08" width="780.31" height="9.41"/><rect class="cls-1" x="72.28" y="264.49" width="780.31" height="9.41"/><rect class="cls-1" x="72.28" y="273.9" width="780.31" height="9.41"/><rect class="cls-1" x="72.28" y="283.32" width="780.31" height="9.41"/><rect class="cls-1" x="72.28" y="292.73" width="780.31" height="9.41"/><rect class="cls-1" x="72.28" y="47.62" width="780.31" height="9.41"/><rect class="cls-1" x="72.28" y="57.03" width="780.31" height="9.41"/><rect class="cls-1" x="72.28" y="66.44" width="780.31" height="9.41"/><rect class="cls-1" x="72.28" y="75.85" width="780.31" height="9.41"/><rect class="cls-1" x="72.28" y="85.27" width="780.31" height="9.41"/><rect class="cls-1" x="72.28" y="94.68" width="780.31" height="9.41"/><rect class="cls-1" x="72.28" y="104.09" width="780.31" height="9.41"/><rect class="cls-1" x="72.28" y="113.5" width="780.31" height="9.41"/><rect class="cls-1" x="72.28" y="122.91" width="780.31" height="9.41"/><rect class="cls-1" x="72.28" y="132.33" width="780.31" height="9.41"/><rect class="cls-1" x="72.28" y="141.74" width="780.31" height="9.41"/><rect class="cls-1" x="72.28" y="151.15" width="780.31" height="9.41"/><rect class="cls-1" x="72.28" y="160.56" width="780.31" height="9.41"/><line class="cls-1" x1="852.59" y1="10.57" x2="72.28" y2="10.57"/><rect class="cls-1" x="72.28" y="10.57" width="780.31" height="9.41"/><rect class="cls-1" x="72.28" y="19.99" width="780.31" height="9.41"/><rect class="cls-1" x="72.28" y="29.4" width="780.31" height="9.41"/></g><line class="cls-1" x1="60.49" y1="566.47" x2="71.96" y2="566.47"/><line class="cls-1" x1="60.49" y1="557.06" x2="71.96" y2="557.06"/><line class="cls-1" x1="60.49" y1="547.65" x2="71.96" y2="547.65"/><line class="cls-1" x1="60.49" y1="538.24" x2="71.96" y2="538.24"/><line class="cls-1" x1="60.49" y1="528.82" x2="71.96" y2="528.82"/><line class="cls-1" x1="60.49" y1="519.41" x2="71.96" y2="519.41"/><line class="cls-1" x1="60.49" y1="510" x2="71.96" y2="510"/><line class="cls-1" x1="60.49" y1="500.59" x2="71.96" y2="500.59"/><line class="cls-1" x1="60.49" y1="491.18" x2="71.96" y2="491.18"/><line class="cls-1" x1="60.49" y1="481.76" x2="71.96" y2="481.76"/><line class="cls-1" x1="60.49" y1="472.35" x2="71.96" y2="472.35"/><line class="cls-1" x1="60.49" y1="462.94" x2="71.96" y2="462.94"/><line class="cls-1" x1="60.49" y1="453.53" x2="71.96" y2="453.53"/><line class="cls-1" x1="60.49" y1="444.11" x2="71.96" y2="444.11"/><line class="cls-1" x1="60.49" y1="434.31" x2="71.96" y2="434.31"/><line class="cls-1" x1="60.49" y1="424.89" x2="71.96" y2="424.89"/><line class="cls-1" x1="60.49" y1="415.48" x2="71.96" y2="415.48"/><line class="cls-1" x1="60.49" y1="406.07" x2="71.96" y2="406.07"/><line class="cls-1" x1="60.49" y1="396.66" x2="71.96" y2="396.66"/><line class="cls-1" x1="60.49" y1="387.25" x2="71.96" y2="387.25"/><line class="cls-1" x1="60.49" y1="377.83" x2="71.96" y2="377.83"/><line class="cls-1" x1="60.49" y1="368.42" x2="71.96" y2="368.42"/><line class="cls-1" x1="60.49" y1="359.01" x2="71.96" y2="359.01"/><line class="cls-1" x1="60.49" y1="349.6" x2="71.96" y2="349.6"/><line class="cls-1" x1="60.49" y1="340.19" x2="71.96" y2="340.19"/><line class="cls-1" x1="60.49" y1="330.77" x2="71.96" y2="330.77"/><line class="cls-1" x1="60.49" y1="321.36" x2="71.96" y2="321.36"/><line class="cls-1" x1="60.49" y1="311.95" x2="71.96" y2="311.95"/><line class="cls-1" x1="60.49" y1="302.14" x2="71.96" y2="302.14"/><line class="cls-1" x1="60.49" y1="292.73" x2="71.96" y2="292.73"/><line class="cls-1" x1="60.49" y1="283.32" x2="71.96" y2="283.32"/><line class="cls-1" x1="60.49" y1="273.9" x2="71.96" y2="273.9"/><line class="cls-1" x1="60.49" y1="264.49" x2="71.96" y2="264.49"/><line class="cls-1" x1="60.49" y1="255.08" x2="71.96" y2="255.08"/><line class="cls-1" x1="60.49" y1="245.67" x2="71.96" y2="245.67"/><line class="cls-1" x1="60.49" y1="236.26" x2="71.96" y2="236.26"/><line class="cls-1" x1="60.49" y1="226.84" x2="71.96" y2="226.84"/><line class="cls-1" x1="60.49" y1="217.43" x2="71.96" y2="217.43"/><line class="cls-1" x1="60.49" y1="208.02" x2="71.96" y2="208.02"/><line class="cls-1" x1="60.49" y1="198.61" x2="71.96" y2="198.61"/><line class="cls-1" x1="60.49" y1="189.2" x2="71.96" y2="189.2"/><line class="cls-1" x1="60.49" y1="179.78" x2="71.96" y2="179.78"/><line class="cls-1" x1="60.49" y1="169.97" x2="71.96" y2="169.97"/><line class="cls-1" x1="60.49" y1="160.56" x2="71.96" y2="160.56"/><line class="cls-1" x1="60.49" y1="151.15" x2="71.96" y2="151.15"/><line class="cls-1" x1="60.49" y1="141.74" x2="71.96" y2="141.74"/><line class="cls-1" x1="60.49" y1="132.33" x2="71.96" y2="132.33"/><line class="cls-1" x1="60.49" y1="122.91" x2="71.96" y2="122.91"/><line class="cls-1" x1="60.49" y1="113.5" x2="71.96" y2="113.5"/><line class="cls-1" x1="60.49" y1="104.09" x2="71.96" y2="104.09"/><line class="cls-1" x1="60.49" y1="94.68" x2="71.96" y2="94.68"/><line class="cls-1" x1="60.49" y1="85.27" x2="71.96" y2="85.27"/><line class="cls-1" x1="60.49" y1="75.85" x2="71.96" y2="75.85"/><line class="cls-1" x1="60.49" y1="66.44" x2="71.96" y2="66.44"/><line class="cls-1" x1="60.49" y1="57.03" x2="71.96" y2="57.03"/><line class="cls-1" x1="60.49" y1="47.62" x2="71.96" y2="47.62"/><line class="cls-1" x1="60.49" y1="39.01" x2="71.96" y2="39.01"/><line class="cls-1" x1="60.49" y1="29.6" x2="71.96" y2="29.6"/><line class="cls-1" x1="60.49" y1="20.18" x2="71.96" y2="20.18"/><line class="cls-1" x1="60.49" y1="10.41" x2="71.96" y2="10.41"/><text class="cls-3" transform="translate(84.12 600.56)">RYAN<tspan x="-5.69" y="18.44">BARTER</tspan></text><text class="cls-3" transform="translate(167.77 600.56)">LESLEY<tspan x="-11.37" y="18.44">CARRING</tspan></text><text class="cls-3" transform="translate(255.42 600.56)">JAMIE<tspan x="-2.31" y="18.44">CURTIS</tspan></text><text class="cls-3" transform="translate(340.14 600.56)">SEETAL<tspan x="6.3" y="18.44">GURI</tspan></text><text class="cls-3" transform="translate(421.8 600.56)">RAMON<tspan x="2.61" y="18.44">LEVITER</tspan></text><text class="cls-3" transform="translate(496.22 600.56)">ZACHARAY<tspan x="6.15" y="18.44">MONSON</tspan></text><text class="cls-3" transform="translate(597.08 600.56)">ASHLEY<tspan x="-11.52" y="18.44">MORTIMER</tspan></text><text class="cls-3" transform="translate(692.41 600.56)">ALEX<tspan x="-15.37" y="18.44">RANDALL</tspan></text><text class="cls-3" transform="translate(783.44 600.56)">KIM<tspan x="-24.28" y="18.44">REYNOLDS</tspan></text><text class="cls-4" transform="translate(44.15 541.4)">4</text><text class="cls-4" transform="translate(44.15 503.69)">8</text><text class="cls-4" transform="translate(37.53 466.29)">12</text><text class="cls-4" transform="translate(37.53 352.52)">24</text><text class="cls-4" transform="translate(37.53 316.03)">28</text><text class="cls-4" transform="translate(37.53 201.96)">40</text><text class="cls-4" transform="translate(37.53 162.69)">44</text><text class="cls-4" transform="translate(37.53 125.86)">48</text><text class="cls-4" transform="translate(37.53 277.23)">32</text><text class="cls-4" transform="translate(37.53 240.73)">36</text><text class="cls-4" transform="translate(37.53 427.82)">16</text><text class="cls-4" transform="translate(37.53 390.99)">20</text><text class="cls-4" transform="translate(37.53 88.19)">52</text><text class="cls-4" transform="translate(37.53 51.7)">56</text><text class="cls-4" transform="translate(37.53 14.85)">60</text><text class="cls-5" transform="translate(381.86 661.85)">STUDENTS</text><text class="cls-6" transform="translate(20.63 389.91) rotate(-90)">COMMUNITY HOURS</text><rect class="cls-7" x="99.88" y="255.5" width="9.61" height="311.14" rx="4.8" ry="4.8"/><rect class="cls-8" x="186.33" y="482.19" width="9.61" height="84.45" rx="4.8" ry="4.8"/><rect class="cls-9" x="272.78" y="312.18" width="9.61" height="253.95" rx="4.8" ry="4.8"/><rect class="cls-10" x="359.23" y="122.95" width="9.61" height="443.7" rx="4.8" ry="4.8"/><rect class="cls-11" x="446.69" y="150.81" width="9.61" height="415.84" rx="4.8" ry="4.8"/><rect class="cls-12" x="533.17" y="321.78" width="9.61" height="244.86" rx="4.8" ry="4.8"/><rect class="cls-13" x="619.64" y="255.5" width="9.61" height="311.14" rx="4.8" ry="4.8"/><rect class="cls-14" x="706.12" y="292.97" width="9.61" height="273.68" rx="4.8" ry="4.8"/><rect class="cls-15" x="792.6" y="245.9" width="9.61" height="320.75" rx="4.8" ry="4.8"/><text class="cls-4" transform="translate(95.16 245.38)">34</text><text class="cls-4" transform="translate(181.61 472.07)">10</text><text class="cls-4" transform="translate(268.06 302.05)">28</text><text class="cls-4" transform="translate(354.51 113.79)">48</text><text class="cls-4" transform="translate(441.92 141.64)">45</text><text class="cls-4" transform="translate(528.37 311.66)">27</text><text class="cls-4" transform="translate(614.82 246.34)">34</text><text class="cls-4" transform="translate(701.26 282.84)">30</text><text class="cls-4" transform="translate(787.71 235.78)">35</text></g></g></svg>