<?xml version="1.0" encoding="utf-8"?>
<!-- Generator: Adobe Illustrator 22.1.0, SVG Export Plug-In . SVG Version: 6.00 Build 0)  -->
<svg version="1.1" id="Layer_1" xmlns="http://www.w3.org/2000/svg" xmlns:xlink="http://www.w3.org/1999/xlink" x="0px" y="0px"
	 viewBox="0 0 281 130.1" style="enable-background:new 0 0 281 130.1;" xml:space="preserve">
<style type="text/css">
	.st0{fill:#C12026;}
	.st1{font-family:'CenturyGothic-Bold';}
	.st2{font-size:29.64px;}
	.st3{enable-background:new    ;}
	.st4{fill:#C1C0C0;}
	.st5{font-size:20px;}
	.st6{fill:url(#SVGID_1_);}
	.st7{fill:url(#SVGID_2_);}
	.st8{fill:none;stroke:#C1C0C0;stroke-width:2;stroke-linecap:round;stroke-linejoin:round;}
</style>
<g>
	<text transform="matrix(1 0 0 1 152.4899 65.15)" class="st0 st1 st2">232 HRS</text>
	<text transform="matrix(1 0 0 1 138.5303 89.15)" class="st3"><tspan x="0" y="0" class="st4 st1 st5">Year to date </tspan><tspan x="40.8" y="24" class="st4 st1 st5">TOTAL</tspan></text>
	<g>
		
			<linearGradient id="SVGID_1_" gradientUnits="userSpaceOnUse" x1="4.2" y1="66.92" x2="125.94" y2="66.92" gradientTransform="matrix(1 0 0 -1 0 132)">
			<stop  offset="0.43" style="stop-color:#C1C0C0"/>
			<stop  offset="1" style="stop-color:#FFFFFF"/>
		</linearGradient>
		<path class="st6" d="M65.1,4.2C31.5,4.2,4.2,31.5,4.2,65.1s27.2,60.9,60.9,60.9s60.9-27.2,60.9-60.9c0,0,0,0,0,0
			C125.9,31.5,98.7,4.2,65.1,4.2z M65.1,117.9c-29.2,0-52.8-23.6-52.8-52.8s23.6-52.8,52.8-52.8s52.8,23.6,52.8,52.8c0,0,0,0,0,0
			C117.9,94.3,94.3,117.9,65.1,117.9C65.1,117.9,65.1,117.9,65.1,117.9z"/>
		
			<linearGradient id="SVGID_2_" gradientUnits="userSpaceOnUse" x1="65.08" y1="82.4983" x2="125.9585" y2="82.4983" gradientTransform="matrix(1 0 0 -1 0 132)">
			<stop  offset="0" style="stop-color:#88181C"/>
			<stop  offset="0.65" style="stop-color:#C12026"/>
		</linearGradient>
		<path class="st7" d="M65.1,4.2v8c29.2,0,52.9,23.7,52.8,52.9c0,7.6-1.7,15.2-4.8,22.1c-3.8,6.8,3.8,11.6,7.5,2.9
			c13.8-30.7,0.1-66.7-30.6-80.5C82.2,6,73.7,4.2,65.1,4.2z"/>
		<circle class="st8" cx="65.1" cy="65.1" r="64.1"/>
		<circle class="st8" cx="65.1" cy="65.1" r="49.3"/>
	</g>
</g>
</svg>
