<svg xmlns="http://www.w3.org/2000/svg" xmlns:xlink="http://www.w3.org/1999/xlink" viewBox="0 0 253.57 270.93"><defs><style>.cls-1{font-size:29.64px;fill:#3d91cf;font-family:CenturyGothic-Bold, Century Gothic;font-weight:700;}.cls-2{font-size:25.94px;fill:#c1c0c0;font-family:CollegiateHeavyOutline-Medium, CollegiateHeavyOutline;}.cls-3{fill:url(#linear-gradient);}.cls-4{fill:url(#linear-gradient-2);}.cls-5{fill:none;stroke:#c1c0c0;stroke-linecap:round;stroke-linejoin:round;stroke-width:2px;}</style><linearGradient id="linear-gradient" x1="65.79" y1="65.21" x2="187.78" y2="65.21" gradientUnits="userSpaceOnUse"><stop offset="0.43" stop-color="#c1c0c0"/><stop offset="1" stop-color="#fff"/></linearGradient><linearGradient id="linear-gradient-2" x1="126.78" y1="49.61" x2="187.78" y2="49.61" gradientUnits="userSpaceOnUse"><stop offset="0.35" stop-color="#37499e"/><stop offset="1" stop-color="#3d91cf"/></linearGradient></defs><title>Asset 13</title><g id="Layer_2" data-name="Layer 2"><g id="Layer_1-2" data-name="Layer 1"><text class="cls-1" transform="translate(71.35 165.15)">232 HRS</text><text class="cls-2" transform="translate(68.87 205.23)">OVERALL<tspan x="-68.87" y="31.12">COMMUNITY HOURS</tspan></text><path class="cls-3" d="M126.78,4.22a61,61,0,1,0,61,61A61,61,0,0,0,126.78,4.22Zm0,113.94a52.95,52.95,0,1,1,52.95-52.95A52.95,52.95,0,0,1,126.78,118.16Z"/><path class="cls-4" d="M126.78,4.22v8A53,53,0,0,1,174.87,87.4c-3.75,6.77,3.78,11.63,7.53,2.89A61,61,0,0,0,126.78,4.22Z"/><circle class="cls-5" cx="126.78" cy="65.21" r="64.21"/><circle class="cls-5" cx="126.78" cy="65.21" r="49.39"/></g></g></svg>