<svg xmlns="http://www.w3.org/2000/svg" xmlns:xlink="http://www.w3.org/1999/xlink" viewBox="0 0 253.57 270.93"><defs><style>.cls-1{font-size:29.64px;font-family:CenturyGothic-Bold, Century Gothic;font-weight:700;}.cls-1,.cls-2{fill:#3d91cf;}.cls-2{font-size:25.94px;font-family:CollegiateHeavyOutline-Medium, CollegiateHeavyOutline;}.cls-3{fill:#c1c0c0;}.cls-4{fill:url(#linear-gradient);}.cls-5{fill:url(#linear-gradient-2);}.cls-6{fill:none;stroke:#c1c0c0;stroke-linecap:round;stroke-linejoin:round;stroke-width:2px;}</style><linearGradient id="linear-gradient" x1="65.79" y1="65.21" x2="187.78" y2="65.21" gradientUnits="userSpaceOnUse"><stop offset="0.43" stop-color="#c1c0c0"/><stop offset="1" stop-color="#fff"/></linearGradient><linearGradient id="linear-gradient-2" x1="69.07" y1="65.45" x2="187.87" y2="65.45" gradientUnits="userSpaceOnUse"><stop offset="0.35" stop-color="#37499e"/><stop offset="1" stop-color="#3d91cf"/></linearGradient></defs><title>Asset 12</title><g id="Layer_2" data-name="Layer 2"><g id="Layer_1-2" data-name="Layer 1"><text class="cls-1" transform="translate(71.35 165.15)">104 HRS</text><text class="cls-2" transform="translate(56.97 205.23)">NOVEMBER<tspan class="cls-3"><tspan x="-56.97" y="31.12">COMMUNITY HOURS</tspan></tspan></text><path class="cls-4" d="M126.78,4.22a61,61,0,1,0,61,61A61,61,0,0,0,126.78,4.22Zm0,113.94a52.95,52.95,0,1,1,52.95-52.95A52.95,52.95,0,0,1,126.78,118.16Z"/><path class="cls-5" d="M187.25,74.09c.13-.93.25-1.87.34-2.81,0-.18,0-.36,0-.54.07-.78.13-1.57.17-2.37s0-1.32,0-2c0-.32,0-.63,0-1h0A60.83,60.83,0,0,0,170,22.26l-.09.08A60.8,60.8,0,0,0,126.78,4.47v8a53,53,0,0,1,48.09,75.14,8.31,8.31,0,0,0-.58,1.32c-.17.34-.33.69-.51,1l0,0a53.12,53.12,0,0,1-28.57,25,10.39,10.39,0,0,0-1.43.56c-1.23.41-2.48.79-3.75,1.11l-.13,0c-.52.13-1,.26-1.57.37s-.84.18-1.27.26l-.46.09-1.64.28h-.1a51.9,51.9,0,0,1-8.71.58l-.9,0c-.93,0-1.86-.08-2.79-.16l-.24,0A53,53,0,0,1,77.26,83.76C75.13,76.32,66.37,78.21,69.9,87a61.13,61.13,0,0,0,30.39,33.26,12.49,12.49,0,0,0,1.51.76A60.74,60.74,0,0,0,124,126.37h0c.94,0,1.88.07,2.84.07h0c1,0,2.06,0,3.1-.08h0c1,0,2-.13,3.06-.23l.24,0c.94-.1,1.87-.22,2.8-.36l.24,0c.93-.14,1.86-.31,2.79-.5l.08,0a60.68,60.68,0,0,0,30.86-16.61l0,0a60.72,60.72,0,0,0,17.19-34.39Z"/><circle class="cls-6" cx="126.78" cy="65.21" r="64.21"/><circle class="cls-6" cx="126.78" cy="65.21" r="49.39"/></g></g></svg>