<svg xmlns="http://www.w3.org/2000/svg" xmlns:xlink="http://www.w3.org/1999/xlink" viewBox="0 0 253.57 240.06"><defs><style>.cls-1{font-size:29.64px;fill:#3d91cf;font-family:CenturyGothic-Bold, Century Gothic;font-weight:700;}.cls-2{font-size:25.94px;fill:#c1c0c0;font-family:CollegiateHeavyOutline-Medium, CollegiateHeavyOutline;}.cls-3{fill:url(#linear-gradient);}.cls-4{fill:url(#linear-gradient-2);}.cls-5{fill:none;stroke:#c1c0c0;stroke-linecap:round;stroke-linejoin:round;stroke-width:2px;}</style><linearGradient id="linear-gradient" x1="45.66" y1="86.4" x2="207.9" y2="86.4" gradientUnits="userSpaceOnUse"><stop offset="0.43" stop-color="#c1c0c0"/><stop offset="1" stop-color="#fff"/></linearGradient><linearGradient id="linear-gradient-2" x1="126.78" y1="65.65" x2="207.9" y2="65.65" gradientUnits="userSpaceOnUse"><stop offset="0.35" stop-color="#37499e"/><stop offset="1" stop-color="#3d91cf"/></linearGradient></defs><title>Hours</title><g id="Layer_2" data-name="Layer 2"><g id="Layer_1_copy" data-name="Layer 1 copy"><g id="Hours"><text class="cls-1" transform="translate(71.35 207.53)">232 HRS</text><text class="cls-2" transform="translate(0 236.61)">COMMUNITY HOURS</text><path class="cls-3" d="M126.78,5.28A81.12,81.12,0,1,0,207.9,86.4,81.12,81.12,0,0,0,126.78,5.28Zm0,151.54A70.42,70.42,0,1,1,197.2,86.4,70.42,70.42,0,0,1,126.78,156.82Z"/><path class="cls-4" d="M126.78,5.28V16a70.46,70.46,0,0,1,64,99.93c-5,9,5,15.47,10,3.84a81.16,81.16,0,0,0-74-114.47Z"/><circle class="cls-5" cx="126.78" cy="86.4" r="85.4"/><circle class="cls-5" cx="126.78" cy="86.4" r="65.69"/></g></g></g></svg>