<svg xmlns="http://www.w3.org/2000/svg" xmlns:xlink="http://www.w3.org/1999/xlink" viewBox="0 0 302.7 255.63"><defs><style>.cls-1{fill:none;stroke:#c1c0c0;stroke-linecap:round;stroke-linejoin:round;stroke-width:2px;}.cls-2{opacity:0.25;}.cls-3{font-size:29.64px;}.cls-3,.cls-4{fill:#3d91cf;}.cls-10,.cls-13,.cls-3,.cls-4{font-family:CenturyGothic-Bold, Century Gothic;}.cls-11,.cls-13,.cls-3,.cls-4{font-weight:700;}.cls-4{font-size:11.86px;}.cls-5{fill:url(#linear-gradient);}.cls-6{fill:url(#linear-gradient-2);}.cls-7{fill:url(#linear-gradient-3);}.cls-8{fill:url(#linear-gradient-4);}.cls-9{fill:url(#linear-gradient-5);}.cls-10{font-size:25.94px;}.cls-10,.cls-13{fill:#37499e;}.cls-12{fill:#c1c0c0;font-family:CollegiateHeavyOutline-Medium, CollegiateHeavyOutline;letter-spacing:0em;}.cls-13{font-size:16px;}</style><linearGradient id="linear-gradient" x1="76.77" y1="159.57" x2="76.77" y2="122.59" gradientUnits="userSpaceOnUse"><stop offset="0.35" stop-color="#37499e"/><stop offset="1" stop-color="#3d91cf"/></linearGradient><linearGradient id="linear-gradient-2" x1="125.01" y1="159.57" x2="125.01" y2="63.84" xlink:href="#linear-gradient"/><linearGradient id="linear-gradient-3" x1="173.26" y1="159.57" x2="173.26" y2="99.09" xlink:href="#linear-gradient"/><linearGradient id="linear-gradient-4" x1="221.51" y1="159.57" x2="221.51" y2="99.09" xlink:href="#linear-gradient"/><linearGradient id="linear-gradient-5" x1="269.76" y1="159.57" x2="269.76" y2="134.34" xlink:href="#linear-gradient"/></defs><title>Week (3)</title><g id="Layer_2" data-name="Layer 2"><g id="Layer_1-2" data-name="Layer 1"><g id="Week"><rect class="cls-1" x="44.82" y="1.94" width="256.88" height="170.8"/><rect class="cls-1" x="48.03" y="5.09" width="250.46" height="164.5"/><g class="cls-2"><rect class="cls-1" x="48.03" y="5.09" width="250.46" height="11.75"/><rect class="cls-1" x="48.03" y="16.84" width="250.46" height="11.75"/><rect class="cls-1" x="48.03" y="28.59" width="250.46" height="11.75"/><rect class="cls-1" x="48.03" y="40.34" width="250.46" height="11.75"/><rect class="cls-1" x="48.03" y="52.09" width="250.46" height="11.75"/><rect class="cls-1" x="48.03" y="63.84" width="250.46" height="11.75"/><rect class="cls-1" x="48.03" y="75.59" width="250.46" height="11.75"/><rect class="cls-1" x="48.03" y="87.34" width="250.46" height="11.75"/><rect class="cls-1" x="48.03" y="99.09" width="250.46" height="11.75"/><rect class="cls-1" x="48.03" y="110.84" width="250.46" height="11.75"/><rect class="cls-1" x="48.03" y="122.59" width="250.46" height="11.75"/><rect class="cls-1" x="48.03" y="134.34" width="250.46" height="11.75"/><rect class="cls-1" x="48.03" y="146.1" width="250.46" height="11.75"/><rect class="cls-1" x="48.03" y="157.85" width="250.46" height="11.75"/></g><line class="cls-1" x1="37.66" y1="157.85" x2="51.98" y2="157.85"/><line class="cls-1" x1="37.66" y1="146.1" x2="51.98" y2="146.1"/><line class="cls-1" x1="37.66" y1="134.34" x2="51.98" y2="134.34"/><line class="cls-1" x1="37.66" y1="122.59" x2="51.98" y2="122.59"/><line class="cls-1" x1="37.66" y1="110.84" x2="51.98" y2="110.84"/><line class="cls-1" x1="37.66" y1="99.09" x2="51.98" y2="99.09"/><line class="cls-1" x1="37.66" y1="87.34" x2="51.98" y2="87.34"/><line class="cls-1" x1="37.66" y1="75.59" x2="51.98" y2="75.59"/><line class="cls-1" x1="37.66" y1="63.84" x2="51.98" y2="63.84"/><line class="cls-1" x1="37.66" y1="52.09" x2="51.98" y2="52.09"/><line class="cls-1" x1="37.66" y1="40.34" x2="51.98" y2="40.34"/><line class="cls-1" x1="37.66" y1="28.59" x2="51.98" y2="28.59"/><line class="cls-1" x1="37.66" y1="16.84" x2="51.98" y2="16.84"/><line class="cls-1" x1="37.66" y1="5.09" x2="51.98" y2="5.09"/><text class="cls-3" transform="translate(63.43 208.47)">M</text><text class="cls-3" transform="translate(118.79 208.47)">T</text><text class="cls-3" transform="translate(159.93 208.47)">W</text><text class="cls-3" transform="translate(205.21 208.47)">TH</text><text class="cls-3" transform="translate(262.64 208.47)">F</text><text class="cls-4" transform="translate(27.42 150.26)">2</text><text class="cls-4" transform="translate(27.42 126.55)">4</text><text class="cls-4" transform="translate(27.42 102.46)">6</text><text class="cls-4" transform="translate(27.42 79.47)">8</text><text class="cls-4" transform="translate(21.88 55.74)">10</text><text class="cls-4" transform="translate(21.88 32.77)">12</text><text class="cls-4" transform="translate(21.88 10.18)">14</text><rect class="cls-5" x="71.76" y="122.59" width="10" height="36.98" rx="5" ry="5"/><rect class="cls-6" x="120.01" y="63.84" width="10" height="95.73" rx="5" ry="5"/><rect class="cls-7" x="168.26" y="99.09" width="10" height="60.48" rx="5" ry="5"/><rect class="cls-8" x="216.51" y="99.09" width="10" height="60.48" rx="5" ry="5"/><rect class="cls-9" x="264.76" y="134.34" width="10" height="25.23" rx="5" ry="5"/><text class="cls-10" transform="translate(44.69 247.68)"><tspan class="cls-11">NOV. 13</tspan><tspan class="cls-12" x="102.69" y="0" xml:space="preserve"> TO </tspan><tspan class="cls-11" x="154.46" y="0">NOV. 17</tspan></text><text class="cls-13" transform="translate(13.74 113.9) rotate(-90)">HOURS</text></g></g></g></svg>