<svg xmlns="http://www.w3.org/2000/svg" xmlns:xlink="http://www.w3.org/1999/xlink" viewBox="0 0 262.31 130.18"><defs><style>.cls-1{font-size:29.64px;fill:#c12026;font-family:CenturyGothic-Bold, Century Gothic;font-weight:700;}.cls-2{font-size:20px;fill:#c1c0c0;}.cls-3{fill:url(#linear-gradient);}.cls-4{fill:url(#linear-gradient-2);}.cls-5{fill:none;stroke:#c1c0c0;stroke-linecap:round;stroke-linejoin:round;stroke-width:2px;}</style><linearGradient id="linear-gradient" x1="4.21" y1="65.09" x2="125.97" y2="65.09" gradientUnits="userSpaceOnUse"><stop offset="0.43" stop-color="#c1c0c0"/><stop offset="1" stop-color="#fff"/></linearGradient><linearGradient id="linear-gradient-2" x1="7.49" y1="65.33" x2="126.06" y2="65.33" gradientUnits="userSpaceOnUse"><stop offset="0" stop-color="#88181c"/><stop offset="0.65" stop-color="#c12026"/></linearGradient></defs><title>Asset 22</title><g id="Layer_2" data-name="Layer 2"><g id="Layer_1-2" data-name="Layer 1"><text class="cls-1" transform="translate(149.28 64.92)">104 HRS<tspan class="cls-2"><tspan x="-2.16" y="24">THIS MONTH</tspan></tspan></text><path class="cls-3" d="M65.09,4.21A60.88,60.88,0,1,0,126,65.09,60.88,60.88,0,0,0,65.09,4.21Zm0,113.73a52.85,52.85,0,1,1,52.85-52.85A52.85,52.85,0,0,1,65.09,117.94Z"/><path class="cls-4" d="M125.44,74c.14-.93.25-1.86.34-2.81,0-.17,0-.35,0-.53.07-.78.13-1.57.17-2.36s0-1.33.05-2c0-.31,0-.62,0-.94h0a60.66,60.66,0,0,0-17.83-43.1l-.08.08A60.7,60.7,0,0,0,65.09,4.46v8a52.88,52.88,0,0,1,48,75,9.32,9.32,0,0,0-.59,1.31c-.17.34-.33.69-.5,1l0,0a53,53,0,0,1-28.51,25,8.52,8.52,0,0,0-1.43.55q-1.85.63-3.75,1.11l-.13,0c-.52.14-1,.26-1.57.37s-.84.18-1.26.26l-.46.09-1.64.28h-.1a52.74,52.74,0,0,1-8.69.58l-.9,0c-.93,0-1.85-.08-2.78-.16l-.24,0A52.88,52.88,0,0,1,15.66,83.6c-2.12-7.42-10.87-5.54-7.35,3.28a61.07,61.07,0,0,0,30.34,33.2,14.14,14.14,0,0,0,1.51.76,60.67,60.67,0,0,0,22.18,5.29h0c.94.05,1.88.07,2.83.07h0c1,0,2.07,0,3.1-.08h0c1-.05,2-.13,3.06-.23l.24,0c.93-.1,1.86-.21,2.79-.35l.24,0c.93-.15,1.86-.31,2.79-.5l.07,0a60.6,60.6,0,0,0,30.8-16.58l0,0A60.78,60.78,0,0,0,125.44,74Z"/><circle class="cls-5" cx="65.09" cy="65.09" r="64.09"/><circle class="cls-5" cx="65.09" cy="65.09" r="49.3"/></g></g></svg>