<svg xmlns="http://www.w3.org/2000/svg" xmlns:xlink="http://www.w3.org/1999/xlink" viewBox="0 0 260.36 130.15"><defs><style>.cls-1{font-size:29.64px;fill:#c12026;font-family:CenturyGothic-Bold, Century Gothic;font-weight:700;}.cls-2{font-size:20px;fill:#c1c0c0;}.cls-3{fill:url(#linear-gradient);}.cls-4{fill:url(#linear-gradient-2);}.cls-5{fill:none;stroke:#c1c0c0;stroke-linecap:round;stroke-linejoin:round;stroke-width:2px;}</style><linearGradient id="linear-gradient" x1="4.21" y1="65.08" x2="125.94" y2="65.08" gradientUnits="userSpaceOnUse"><stop offset="0.43" stop-color="#c1c0c0"/><stop offset="1" stop-color="#fff"/></linearGradient><linearGradient id="linear-gradient-2" x1="65.08" y1="49.51" x2="125.94" y2="49.51" gradientUnits="userSpaceOnUse"><stop offset="0" stop-color="#88181c"/><stop offset="0.65" stop-color="#c12026"/></linearGradient></defs><title>Asset 23</title><g id="Layer_2" data-name="Layer 2"><g id="Layer_1-2" data-name="Layer 1"><text class="cls-1" transform="translate(149.5 65.15)">232 HRS<tspan class="cls-2"><tspan x="26.84" y="24">TOTAL</tspan></tspan></text><path class="cls-3" d="M65.08,4.21a60.87,60.87,0,1,0,60.86,60.87A60.87,60.87,0,0,0,65.08,4.21Zm0,113.7a52.84,52.84,0,1,1,52.83-52.83A52.83,52.83,0,0,1,65.08,117.91Z"/><path class="cls-4" d="M65.08,4.21v8a52.88,52.88,0,0,1,48,75c-3.75,6.75,3.76,11.6,7.51,2.88A60.91,60.91,0,0,0,65.08,4.21Z"/><circle class="cls-5" cx="65.08" cy="65.08" r="64.08"/><circle class="cls-5" cx="65.08" cy="65.08" r="49.29"/></g></g></svg>