<?xml version="1.0" encoding="utf-8"?>
<!-- Generator: Adobe Illustrator 22.1.0, SVG Export Plug-In . SVG Version: 6.00 Build 0)  -->
<svg version="1.1" id="Layer_1" xmlns="http://www.w3.org/2000/svg" xmlns:xlink="http://www.w3.org/1999/xlink" x="0px" y="0px"
	 viewBox="0 0 303.1 255.6" style="enable-background:new 0 0 303.1 255.6;" xml:space="preserve">
<style type="text/css">
	.st0{fill:none;stroke:#C1C0C0;stroke-width:2;stroke-linecap:round;stroke-linejoin:round;}
	.st1{opacity:0.25;}
	.st2{fill:#C12026;}
	.st3{font-family:'CenturyGothic-Bold';}
	.st4{font-size:29.64px;}
	.st5{font-size:11.86px;}
	.st6{fill:url(#SVGID_1_);}
	.st7{fill:url(#SVGID_2_);}
	.st8{fill:url(#SVGID_3_);}
	.st9{fill:url(#SVGID_4_);}
	.st10{fill:#C1C0C0;}
	.st11{font-family:'CollegiateHeavyOutline-Medium';}
	.st12{font-size:25.94px;}
	.st13{fill:#88181C;}
	.st14{font-size:16px;}
</style>
<title>Week (2)</title>
<g id="Layer_2_1_">
	<g id="Layer_1-2">
		<g id="Week">
			<rect x="45.2" y="1.9" class="st0" width="256.9" height="170.8"/>
			<rect x="48.4" y="5.1" class="st0" width="250.5" height="164.5"/>
			<g class="st1">
				<rect x="48.4" y="5.1" class="st0" width="250.5" height="11.8"/>
				<rect x="48.4" y="16.8" class="st0" width="250.5" height="11.8"/>
				<rect x="48.4" y="28.6" class="st0" width="250.5" height="11.8"/>
				<rect x="48.4" y="40.3" class="st0" width="250.5" height="11.8"/>
				<rect x="48.4" y="52.1" class="st0" width="250.5" height="11.8"/>
				<rect x="48.4" y="63.8" class="st0" width="250.5" height="11.7"/>
				<rect x="48.4" y="75.6" class="st0" width="250.5" height="11.8"/>
				<rect x="48.4" y="87.3" class="st0" width="250.5" height="11.8"/>
				<rect x="48.4" y="99.1" class="st0" width="250.5" height="11.8"/>
				<rect x="48.4" y="110.8" class="st0" width="250.5" height="11.8"/>
				<rect x="48.4" y="122.6" class="st0" width="250.5" height="11.8"/>
				<rect x="48.4" y="134.3" class="st0" width="250.5" height="11.8"/>
				<rect x="48.4" y="146.1" class="st0" width="250.5" height="11.8"/>
				<rect x="48.4" y="157.9" class="st0" width="250.5" height="11.8"/>
			</g>
			<line class="st0" x1="38" y1="157.9" x2="52.4" y2="157.9"/>
			<line class="st0" x1="38" y1="146.1" x2="52.4" y2="146.1"/>
			<line class="st0" x1="38" y1="134.3" x2="52.4" y2="134.3"/>
			<line class="st0" x1="38" y1="122.6" x2="52.4" y2="122.6"/>
			<line class="st0" x1="38" y1="110.8" x2="52.4" y2="110.8"/>
			<line class="st0" x1="38" y1="99.1" x2="52.4" y2="99.1"/>
			<line class="st0" x1="38" y1="87.3" x2="52.4" y2="87.3"/>
			<line class="st0" x1="38" y1="75.6" x2="52.4" y2="75.6"/>
			<line class="st0" x1="38" y1="63.8" x2="52.4" y2="63.8"/>
			<line class="st0" x1="38" y1="52.1" x2="52.4" y2="52.1"/>
			<line class="st0" x1="38" y1="40.3" x2="52.4" y2="40.3"/>
			<line class="st0" x1="38" y1="28.6" x2="52.4" y2="28.6"/>
			<line class="st0" x1="38" y1="16.8" x2="52.4" y2="16.8"/>
			<line class="st0" x1="38" y1="5.1" x2="52.4" y2="5.1"/>
			<g>
				<text transform="matrix(1 0 0 1 63.82 208.47)" class="st2 st3 st4">M</text>
			</g>
			<g>
				<text transform="matrix(1 0 0 1 119.18 208.47)" class="st2 st3 st4">T</text>
			</g>
			<g>
				<text transform="matrix(1 0 0 1 160.32 208.47)" class="st2 st3 st4">W</text>
			</g>
			<g>
				<text transform="matrix(1 0 0 1 205.6 208.47)" class="st2 st3 st4">TH</text>
			</g>
			<g>
				<text transform="matrix(1 0 0 1 263.04 208.47)" class="st2 st3 st4">F</text>
			</g>
			<g>
				<text transform="matrix(1 0 0 1 27.81 150.26)" class="st2 st3 st5">2</text>
			</g>
			<g>
				<text transform="matrix(1 0 0 1 27.81 126.55)" class="st2 st3 st5">4</text>
			</g>
			<g>
				<text transform="matrix(1 0 0 1 27.81 102.46)" class="st2 st3 st5">6</text>
			</g>
			<g>
				<text transform="matrix(1 0 0 1 27.81 79.47)" class="st2 st3 st5">8</text>
			</g>
			<g>
				<text transform="matrix(1 0 0 1 22.27 55.74)" class="st2 st3 st5">10</text>
			</g>
			<g>
				<text transform="matrix(1 0 0 1 22.27 32.77)" class="st2 st3 st5">12</text>
			</g>
			<g>
				<text transform="matrix(1 0 0 1 22.27 10.18)" class="st2 st3 st5">14</text>
			</g>
			
				<linearGradient id="SVGID_1_" gradientUnits="userSpaceOnUse" x1="125.4" y1="98.43" x2="125.4" y2="147.36" gradientTransform="matrix(1 0 0 -1 0 258)">
				<stop  offset="0" style="stop-color:#88181C"/>
				<stop  offset="0.6517" style="stop-color:#C12026"/>
			</linearGradient>
			<path class="st6" d="M125.4,110.6L125.4,110.6c2.8,0,5,2.2,5,5v38.9c0,2.8-2.2,5-5,5h0c-2.8,0-5-2.2-5-5v-38.9
				C120.4,112.9,122.6,110.6,125.4,110.6z"/>
			
				<linearGradient id="SVGID_2_" gradientUnits="userSpaceOnUse" x1="173.65" y1="98.43" x2="173.65" y2="182.36" gradientTransform="matrix(1 0 0 -1 0 258)">
				<stop  offset="0" style="stop-color:#88181C"/>
				<stop  offset="0.6517" style="stop-color:#C12026"/>
			</linearGradient>
			<path class="st7" d="M173.6,75.6L173.6,75.6c2.8,0,5,2.2,5,5v73.9c0,2.8-2.2,5-5,5l0,0c-2.8,0-5-2.2-5-5V80.6
				C168.6,77.9,170.9,75.6,173.6,75.6z"/>
			
				<linearGradient id="SVGID_3_" gradientUnits="userSpaceOnUse" x1="77.4" y1="98.85" x2="77.4" y2="181.78" gradientTransform="matrix(1 0 0 -1 0 258)">
				<stop  offset="0" style="stop-color:#88181C"/>
				<stop  offset="0.6517" style="stop-color:#C12026"/>
			</linearGradient>
			<path class="st8" d="M77.4,76.2L77.4,76.2c2.8,0,5,2.2,5,5v72.9c0,2.8-2.2,5-5,5l0,0c-2.8,0-5-2.2-5-5V81.2
				C72.4,78.5,74.6,76.2,77.4,76.2z"/>
			
				<linearGradient id="SVGID_4_" gradientUnits="userSpaceOnUse" x1="270.15" y1="98.43" x2="270.15" y2="159.36" gradientTransform="matrix(1 0 0 -1 0 258)">
				<stop  offset="0" style="stop-color:#88181C"/>
				<stop  offset="0.6517" style="stop-color:#C12026"/>
			</linearGradient>
			<path class="st9" d="M270.1,98.6L270.1,98.6c2.8,0,5,2.2,5,5v50.9c0,2.8-2.2,5-5,5l0,0c-2.8,0-5-2.2-5-5v-50.9
				C265.1,100.9,267.4,98.6,270.1,98.6z"/>
			<text transform="matrix(1 0 0 1 99.2684 247.68)" class="st10 st11 st12">THIS WEEK</text>
			<g>
				<text transform="matrix(6.123234e-17 -1 1 6.123234e-17 13.74 113.9004)" class="st13 st3 st14">HOURS</text>
			</g>
		</g>
	</g>
</g>
</svg>
