<svg xmlns="http://www.w3.org/2000/svg" xmlns:xlink="http://www.w3.org/1999/xlink" viewBox="0 0 280.83 241.13"><defs><style>.cls-1{fill:none;stroke:#c1c0c0;stroke-linecap:round;stroke-linejoin:round;stroke-width:2px;}.cls-2{opacity:0.25;}.cls-3{font-size:29.64px;}.cls-3,.cls-4{fill:#3d91cf;font-family:CenturyGothic-Bold, Century Gothic;font-weight:700;}.cls-4{font-size:11.86px;}.cls-5{fill:url(#linear-gradient);}.cls-6{fill:url(#linear-gradient-2);}.cls-7{fill:url(#linear-gradient-3);}.cls-8{fill:url(#linear-gradient-4);}.cls-9{fill:url(#linear-gradient-5);}.cls-10{font-size:25.94px;fill:#c1c0c0;font-family:CollegiateHeavyOutline-Medium, CollegiateHeavyOutline;}</style><linearGradient id="linear-gradient" x1="54.89" y1="159.57" x2="54.89" y2="122.59" gradientUnits="userSpaceOnUse"><stop offset="0.35" stop-color="#37499e"/><stop offset="1" stop-color="#3d91cf"/></linearGradient><linearGradient id="linear-gradient-2" x1="103.14" y1="159.57" x2="103.14" y2="63.84" xlink:href="#linear-gradient"/><linearGradient id="linear-gradient-3" x1="151.38" y1="159.57" x2="151.38" y2="99.09" xlink:href="#linear-gradient"/><linearGradient id="linear-gradient-4" x1="199.63" y1="159.57" x2="199.63" y2="99.09" xlink:href="#linear-gradient"/><linearGradient id="linear-gradient-5" x1="247.88" y1="159.57" x2="247.88" y2="134.34" xlink:href="#linear-gradient"/></defs><title>Week</title><g id="Layer_2" data-name="Layer 2"><g id="Layer_1_copy" data-name="Layer 1 copy"><g id="Week"><rect class="cls-1" x="22.94" y="1.94" width="256.88" height="170.8"/><rect class="cls-1" x="26.15" y="5.09" width="250.46" height="164.5"/><g class="cls-2"><rect class="cls-1" x="26.15" y="5.09" width="250.46" height="11.75"/><rect class="cls-1" x="26.15" y="16.84" width="250.46" height="11.75"/><rect class="cls-1" x="26.15" y="28.59" width="250.46" height="11.75"/><rect class="cls-1" x="26.15" y="40.34" width="250.46" height="11.75"/><rect class="cls-1" x="26.15" y="52.09" width="250.46" height="11.75"/><rect class="cls-1" x="26.15" y="63.84" width="250.46" height="11.75"/><rect class="cls-1" x="26.15" y="75.59" width="250.46" height="11.75"/><rect class="cls-1" x="26.15" y="87.34" width="250.46" height="11.75"/><rect class="cls-1" x="26.15" y="99.09" width="250.46" height="11.75"/><rect class="cls-1" x="26.15" y="110.84" width="250.46" height="11.75"/><rect class="cls-1" x="26.15" y="122.59" width="250.46" height="11.75"/><rect class="cls-1" x="26.15" y="134.34" width="250.46" height="11.75"/><rect class="cls-1" x="26.15" y="146.1" width="250.46" height="11.75"/><rect class="cls-1" x="26.15" y="157.85" width="250.46" height="11.75"/></g><line class="cls-1" x1="15.78" y1="157.85" x2="30.1" y2="157.85"/><line class="cls-1" x1="15.78" y1="146.1" x2="30.1" y2="146.1"/><line class="cls-1" x1="15.78" y1="134.34" x2="30.1" y2="134.34"/><line class="cls-1" x1="15.78" y1="122.59" x2="30.1" y2="122.59"/><line class="cls-1" x1="15.78" y1="110.84" x2="30.1" y2="110.84"/><line class="cls-1" x1="15.78" y1="99.09" x2="30.1" y2="99.09"/><line class="cls-1" x1="15.78" y1="87.34" x2="30.1" y2="87.34"/><line class="cls-1" x1="15.78" y1="75.59" x2="30.1" y2="75.59"/><line class="cls-1" x1="15.78" y1="63.84" x2="30.1" y2="63.84"/><line class="cls-1" x1="15.78" y1="52.09" x2="30.1" y2="52.09"/><line class="cls-1" x1="15.78" y1="40.34" x2="30.1" y2="40.34"/><line class="cls-1" x1="15.78" y1="28.59" x2="30.1" y2="28.59"/><line class="cls-1" x1="15.78" y1="16.84" x2="30.1" y2="16.84"/><line class="cls-1" x1="15.78" y1="5.09" x2="30.1" y2="5.09"/><text class="cls-3" transform="translate(41.55 208.47)">M</text><text class="cls-3" transform="translate(96.91 208.47)">T</text><text class="cls-3" transform="translate(138.05 208.47)">W</text><text class="cls-3" transform="translate(183.33 208.47)">TH</text><text class="cls-3" transform="translate(240.77 208.47)">F</text><text class="cls-4" transform="translate(5.54 150.26)">2</text><text class="cls-4" transform="translate(5.54 126.55)">4</text><text class="cls-4" transform="translate(5.54 102.46)">6</text><text class="cls-4" transform="translate(5.54 79.47)">8</text><text class="cls-4" transform="translate(0 55.74)">10</text><text class="cls-4" transform="translate(0 32.77)">12</text><text class="cls-4" transform="translate(0 10.18)">14</text><rect class="cls-5" x="49.89" y="122.59" width="10" height="36.98" rx="5" ry="5"/><rect class="cls-6" x="98.13" y="63.84" width="10" height="95.73" rx="5" ry="5"/><rect class="cls-7" x="146.38" y="99.09" width="10" height="60.48" rx="5" ry="5"/><rect class="cls-8" x="194.63" y="99.09" width="10" height="60.48" rx="5" ry="5"/><rect class="cls-9" x="242.88" y="134.34" width="10" height="25.23" rx="5" ry="5"/><text class="cls-10" transform="translate(30.55 237.68)">HOURS THIS WEEK</text></g></g></g></svg>