<svg xmlns="http://www.w3.org/2000/svg" xmlns:xlink="http://www.w3.org/1999/xlink" viewBox="0 0 125.43 151.83"><defs><style>.cls-1{fill:url(#linear-gradient);}.cls-2{fill:#374da1;}.cls-3{fill:#c1c0c0;}.cls-4{fill:#fff;}.cls-5{fill:url(#linear-gradient-2);}.cls-6{fill:#37499e;}.cls-7{fill:url(#linear-gradient-3);}</style><linearGradient id="linear-gradient" x1="13.35" y1="70.5" x2="125.43" y2="70.5" gradientUnits="userSpaceOnUse"><stop offset="0" stop-color="#3d91cf"/><stop offset="1" stop-color="#7fc1d5"/></linearGradient><linearGradient id="linear-gradient-2" x1="32.76" y1="62.97" x2="106.11" y2="62.97" xlink:href="#linear-gradient"/><linearGradient id="linear-gradient-3" x1="898.41" y1="-920.25" x2="925.76" y2="-920.25" gradientTransform="matrix(0.12, -0.99, 0.99, 0.12, 834.27, 1150.89)" gradientUnits="userSpaceOnUse"><stop offset="0" stop-color="#37499e"/><stop offset="0.53" stop-color="#3d8ecd"/><stop offset="1" stop-color="#37499e"/></linearGradient></defs><title>Asset 5</title><g id="Layer_2" data-name="Layer 2"><g id="Layer_1_copy" data-name="Layer 1 copy"><rect class="cls-1" x="13.35" width="112.08" height="141"/><path class="cls-2" d="M8.27,0C3.72,0,0,3.15,0,7V130.51C0,136.28,5.58,141,12.41,141h.94V0Z"/><path class="cls-3" d="M10.14,122.37H125.43a0,0,0,0,1,0,0v13.4a0,0,0,0,1,0,0H10.14a4.63,4.63,0,0,1-4.63-4.63V127a4.63,4.63,0,0,1,4.63-4.63Z"/><g id="Logo"><ellipse class="cls-4" cx="69.46" cy="63.09" rx="40.48" ry="34.23"/><ellipse class="cls-5" cx="69.43" cy="62.97" rx="36.68" ry="31.01"/><path class="cls-4" d="M69.44,59.36,51.65,68.81S55.11,86,56.21,87c.4.34,3.81.53,8.07.61a69.08,69.08,0,0,1-.51-7.69c0-2.64,2.55-4.79,5.67-4.79s5.66,2.15,5.66,4.79a68.85,68.85,0,0,1-.51,7.67c4.37-.09,7.88-.29,8.23-.59.94-.79,4.4-18.16,4.4-18.16Z"/><path class="cls-6" d="M90.5,65.53,69.44,54.33,48.37,65.53a1.58,1.58,0,0,0-.79,1.33,1.83,1.83,0,0,0,2,1.66,2.24,2.24,0,0,0,1-.24h0l.12-.06,18.76-10,18.75,10,.12.07h0a2.24,2.24,0,0,0,1,.24,1.83,1.83,0,0,0,2-1.66A1.58,1.58,0,0,0,90.5,65.53Z"/><path class="cls-6" d="M82.77,42.84l-13.33-7.1-13.38,7.1a1.57,1.57,0,0,0-.79,1.32,1.84,1.84,0,0,0,2,1.67,2.13,2.13,0,0,0,1-.25h0l.12-.07,11.07-5.86,11,5.86.13.06h0a2.1,2.1,0,0,0,1,.25,1.84,1.84,0,0,0,2-1.67A1.6,1.6,0,0,0,82.77,42.84Z"/><path class="cls-4" d="M78.09,57.85l-8.57-4.46-8.61,4.46C60.27,57.31,59.15,46,59.15,46l10.29-5.47L79.72,46S78.64,57.39,78.09,57.85Z"/><ellipse class="cls-6" cx="69.44" cy="43.84" rx="0.93" ry="0.79"/><path class="cls-6" d="M73.14,50.31c-.26,0-.55-1.13-.55-2.67a3.2,3.2,0,0,0-6.31,0c0,1.85-.33,2.67-.54,2.67a.51.51,0,0,0-.55.46.5.5,0,0,0,.55.46h7.4a.5.5,0,0,0,.54-.46A.51.51,0,0,0,73.14,50.31Z"/></g><path class="cls-7" d="M36.85,125.27c2,16.19-.92,27.11-6.2,26.54a22.74,22.74,0,0,0-3-2.69,17.59,17.59,0,0,0-3.35-1.65,51.52,51.52,0,0,1-8,2.56,14.4,14.4,0,0,1-1.89.11c-.46,0-.38,0-.19,0,4.6-.35,7.28-10.79,6-24.86C20.26,125.27,36.85,125.22,36.85,125.27Z"/></g></g></svg>