<svg xmlns="http://www.w3.org/2000/svg" viewBox="0 0 22 22"><defs><style>.cls-1{fill:#fff;}</style></defs><title>Asset 2</title><g id="Layer_2" data-name="Layer 2"><g id="Layer_1-2" data-name="Layer 1"><path class="cls-1" d="M11,4.25a1.44,1.44,0,0,1,1.08.46,1.57,1.57,0,0,1,0,2.2A1.45,1.45,0,0,1,11,7.36,1.47,1.47,0,0,1,9.92,6.9a1.55,1.55,0,0,1-.45-1.12A1.47,1.47,0,0,1,9.92,4.7,1.46,1.46,0,0,1,11,4.25ZM9.8,8.19h2.4v9.56H9.8Z"/><path class="cls-1" d="M12.87,21.85a11,11,0,1,1,9-9A11,11,0,0,1,12.87,21.85ZM12.53,2.13a9,9,0,1,0,7.34,7.34A9,9,0,0,0,12.53,2.13Z"/></g></g></svg>