<svg xmlns="http://www.w3.org/2000/svg" xmlns:xlink="http://www.w3.org/1999/xlink" viewBox="0 0 220.81 84.73"><defs><style>.cls-1{fill:none;}.cls-2{isolation:isolate;}.cls-3{fill:url(#linear-gradient);}.cls-4{fill:url(#linear-gradient-2);}.cls-5{fill:url(#linear-gradient-3);}.cls-6{fill:url(#linear-gradient-4);}.cls-7{fill:url(#linear-gradient-5);}.cls-8{fill:url(#linear-gradient-6);}.cls-9{opacity:0.5;mix-blend-mode:multiply;}.cls-10{clip-path:url(#clip-path);}.cls-11{fill:#966400;}.cls-12{fill:url(#linear-gradient-7);}.cls-13{fill:url(#linear-gradient-8);}.cls-14{clip-path:url(#clip-path-2);}.cls-15{fill:url(#linear-gradient-9);}</style><linearGradient id="linear-gradient" y1="24.34" x2="61.73" y2="24.34" gradientUnits="userSpaceOnUse"><stop offset="0" stop-color="#37499e"/><stop offset="1" stop-color="#3d91cf"/></linearGradient><linearGradient id="linear-gradient-2" x1="23.31" y1="37.9" x2="61.76" y2="37.9" gradientUnits="userSpaceOnUse"><stop offset="0" stop-color="#3d91cf"/><stop offset="1" stop-color="#7fc1d5"/></linearGradient><linearGradient id="linear-gradient-3" x1="1471.74" y1="24.34" x2="1533.47" y2="24.34" gradientTransform="matrix(-1, 0, 0, 1, 1692.55, 0)" xlink:href="#linear-gradient"/><linearGradient id="linear-gradient-4" x1="1495.05" y1="37.9" x2="1533.5" y2="37.9" gradientTransform="matrix(-1, 0, 0, 1, 1692.55, 0)" xlink:href="#linear-gradient-2"/><linearGradient id="linear-gradient-5" x1="58.3" y1="91.71" x2="162.08" y2="-12.07" gradientUnits="userSpaceOnUse"><stop offset="0" stop-color="#37499e"/><stop offset="0.52" stop-color="#3d91cf"/><stop offset="1" stop-color="#37499e"/></linearGradient><linearGradient id="linear-gradient-6" x1="2057.72" y1="0.11" x2="2057.72" y2="84.57" gradientTransform="matrix(-1, 0, 0, 1, 2159.61, 0)" gradientUnits="userSpaceOnUse"><stop offset="0.27" stop-color="#bc8b00"/><stop offset="1" stop-color="#966400"/></linearGradient><clipPath id="clip-path" transform="translate(0 -0.11)"><path class="cls-1" d="M132,27.92l-.94-.17-16.52-3L110.25,14l5.57-14L101.88.12h0c-1.84,0-3.61,1.74-4.74,5.19L89.45,24.75,72,27.92c-4.83.68-7.33,6.13-3,11.06L81.72,54.47,78.64,76.88c-.42,4.52,1.31,7.4,4.19,7.41v.06h13.7L102,72.83l16.2,10.63a5.72,5.72,0,0,0,3.09,1.1h13.86l-5.3-11.8h-5.08l-2.51-18.3,11.71-14.25L135,39C138.69,34.44,137.13,28.6,132,27.92Z"/></clipPath><linearGradient id="linear-gradient-7" x1="2014.89" y1="78.53" x2="2071.63" y2="21.79" gradientTransform="matrix(-1, 0, 0, 1, 2159.61, 0)" gradientUnits="userSpaceOnUse"><stop offset="0" stop-color="#bc8b00"/><stop offset="0.49" stop-color="#f4cd0b"/><stop offset="0.61" stop-color="#f2f2f2"/><stop offset="0.66" stop-color="#f4cd0b"/></linearGradient><linearGradient id="linear-gradient-8" x1="2042.82" y1="3.31" x2="2042.82" y2="81.38" xlink:href="#linear-gradient-6"/><clipPath id="clip-path-2" transform="translate(0 -0.11)"><path class="cls-1" d="M124.77,38.75V36.6h-5.33V60.06h1.89v4.11h-8.9V60.06h1.89V36.6H109v2.15h-3.56V32.53H128.3v6.22ZM122.7,41.1V39h-1.19V57.76h1.85v8.76h-13V57.76h1.85V39h-1.14V41.1h-7.72V30.18h27V41.1Zm.92-3.18V40h5.82V31.26H104.32V40h5.82V37.92h3V58.79h-1.85v6.66h11.1V58.79h-1.85V37.92Z"/></clipPath><linearGradient id="linear-gradient-9" x1="116.35" y1="30.18" x2="116.35" y2="66.52" gradientTransform="matrix(1, 0, 0, 1, 0, 0)" xlink:href="#linear-gradient-6"/></defs><title>Day</title><g class="cls-2"><g id="Layer_2" data-name="Layer 2"><g id="Layer_1_copy" data-name="Layer 1 copy"><g id="Day"><g id="Best"><path class="cls-3" d="M61.43,39.72C26.79,47.49-.11,45,0,35.17A44.85,44.85,0,0,0,5.19,29,31.2,31.2,0,0,0,8,22.47S2.13,13.08.77,8.44A20.17,20.17,0,0,1,.13,5c-.1-.85-.1-.7,0-.35,1.74,8.32,24.74,10.63,55,4.78,3.53-.68,5.86.41,6.66,5.49C61.73,16.21,61.55,39.69,61.43,39.72Z" transform="translate(0 -0.11)"/><path class="cls-4" d="M23.31,22.92s0-5.24,11.86-5.24,11,3.67,19.29,3.67,7.26-6.45,7.26-6.45v46L23.31,54.52Z" transform="translate(0 -0.11)"/><path class="cls-5" d="M159.39,39.72C194,47.49,220.92,45,220.81,35.17A45.62,45.62,0,0,1,215.62,29a31.5,31.5,0,0,1-2.84-6.56s5.91-9.39,7.26-14A21.3,21.3,0,0,0,220.69,5c.1-.85.09-.7,0-.35C219,13,196,15.29,165.75,9.44c-3.53-.68-5.86.41-6.66,5.49C159.09,16.21,159.27,39.69,159.39,39.72Z" transform="translate(0 -0.11)"/><path class="cls-6" d="M197.5,22.92s0-5.24-11.86-5.24-11,3.67-19.29,3.67-7.25-6.45-7.25-6.45v46l38.4-6.37Z" transform="translate(0 -0.11)"/><path class="cls-7" d="M112,34.92h-3.63c-43.11,0-85.2-.05-85.07-12v31.6c-.13,12.13,40.73,12,86.88,12s87,.13,86.88-12V22.92C197.2,34.87,155.12,34.92,112,34.92Z" transform="translate(0 -0.11)"/><g id="Best-2" data-name="Best"><path class="cls-8" d="M72,27.92l17.46-3.17L97.14,5.31C98.27,1.86,100,.08,101.88.12h13.9L110.25,14l4.24,10.73,16.52,3,.94.17c5.18.68,6.74,6.52,3,11.06l-1,1.24L122.23,54.47l2.51,18.3h5.08L137,84.57H121.26a5.72,5.72,0,0,1-3.09-1.1L102,72.83,96.55,84.31H82.83v0c-2.88,0-4.61-2.89-4.19-7.41l3.08-22.41L69,39C64.66,34.05,67.16,28.6,72,27.92Z" transform="translate(0 -0.11)"/><g class="cls-9"><g class="cls-10"><rect class="cls-11" x="92.01" y="5.91" width="20.07" height="0.67"/><rect class="cls-11" x="92.94" y="3.91" width="20.07" height="0.67"/><rect class="cls-11" x="75.27" y="19.91" width="33.77" height="0.67"/><rect class="cls-11" x="72.77" y="21.92" width="33.77" height="0.67"/><rect class="cls-11" x="73.42" y="23.92" width="33.77" height="0.67"/><rect class="cls-11" x="70.04" y="25.94" width="33.77" height="0.67"/><rect class="cls-11" x="75.92" y="54" width="33.77" height="0.67"/><rect class="cls-11" x="75.84" y="52.01" width="33.77" height="0.67"/><rect class="cls-11" x="73.34" y="50" width="33.77" height="0.67"/><rect class="cls-11" x="71.66" y="80.05" width="58" height="0.67"/><rect class="cls-11" x="80.26" y="84.06" width="60.01" height="0.67"/><rect class="cls-11" x="75.96" y="82.06" width="58" height="0.67"/></g></g><path class="cls-12" d="M148.6,27.92l-1-.17-17.81-3L121.49,5.31c-3-7.12-8-6.73-10.41,0l-8.29,19.44L84,27.92c-5.21.68-7.9,6.13-3.24,11.06L94.45,54.47,91.13,76.88c-.59,5.9,2.78,9,7.69,6.58l17.46-10.63,17.47,10.63c5.28,3.22,8.31-1.07,7.69-6.58l-3.32-22.41,12.62-14.25,1.1-1.24C155.86,34.44,154.18,28.6,148.6,27.92Z" transform="translate(0 -0.11)"/><path class="cls-13" d="M84,39.23,96.69,53.55,93.62,74.26c-.54,5.46,2.57,8.35,7.11,6.09l16.14-9.82L133,80.35c4.88,3,7.68-1,7.1-6.09l-3.07-20.71,11.68-13.17,1-1.15c3.72-4.19,2.16-9.59-3-10.22l-.94-.16-16.47-2.77-7.66-18c-2.77-6.58-7.44-6.22-9.62,0l-7.66,18L87,29C82.19,29.64,79.7,34.68,84,39.23Zm1.76.1C81.67,34.92,84,30,88.6,29.42l16.52-2.83L112.4,9.17c2.07-6,6.5-6.38,9.13,0l7.27,17.42,15.63,2.68.89.15c4.9.61,6.37,5.85,2.84,9.91l-1,1.11L136.12,53.2,139,73.27c.55,4.94-2.11,8.79-6.74,5.91L117,69.65l-15.32,9.53c-4.31,2.18-7.26-.62-6.75-5.91L97.8,53.2Z" transform="translate(0 -0.11)"/><g class="cls-14"><rect class="cls-11" x="90.66" y="17.68" width="48.59" height="61.13"/><path class="cls-15" d="M124.24,38.75V36.6h-5.33V60.06h1.9v4.11H111.9V60.06h1.9V36.6h-5.29v2.15h-3.57V32.53h22.83v6.22Zm-2.07,2.35V39H121V57.76h1.85v8.76h-13V57.76h1.86V39h-1.15V41.1h-7.71V30.18h27V41.1Zm.93-3.18V40h5.82V31.26H103.79V40h5.82V37.92h3V58.79H110.8v6.66h11.11V58.79h-1.85V37.92Z" transform="translate(0 -0.11)"/></g></g></g></g></g></g></g></svg>