<svg xmlns="http://www.w3.org/2000/svg" viewBox="0 0 168.64 168.64"><defs><style>.cls-1{fill:#618a42;}.cls-2{fill:#b2c65f;}.cls-3{fill:#fcf8cd;}.cls-4{fill:#463927;}</style></defs><title>Asset 3</title><g id="Layer_2" data-name="Layer 2"><g id="Layer_1-2" data-name="Layer 1"><g id="Logo"><circle class="cls-1" cx="84.32" cy="84.32" r="84.32"/><circle class="cls-2" cx="84.26" cy="84.03" r="76.39"/><path class="cls-3" d="M84.26,75.13l-37,23.27s7.21,42.46,9.5,44.75c.83.83,7.94,1.31,16.8,1.51-1.06-9.95-1.06-19-1.06-19a11.8,11.8,0,1,1,23.6,0s0,9-1,18.91c9.08-.24,16.4-.74,17.12-1.46,2-2,9.18-44.75,9.18-44.75Z"/><path class="cls-4" d="M128.13,90.32,84.26,62.72,40.39,90.32a4.09,4.09,0,0,0,2.45,7.37,4,4,0,0,0,2.11-.6h0a2.42,2.42,0,0,0,.24-.15L84.26,72.39l39.06,24.54a2.17,2.17,0,0,0,.25.16h0a4,4,0,0,0,2.1.6,4.09,4.09,0,0,0,2.45-7.37Z"/><path class="cls-4" d="M112,34.42,84.26,16.93,56.41,34.42A4.08,4.08,0,0,0,61,41.19h0l.24-.15L84.26,26.6,107.21,41l.26.16h0a4.05,4.05,0,0,0,2.1.6A4.09,4.09,0,0,0,112,34.42Z"/><path class="cls-3" d="M102.29,71.41l-17.86-11-17.93,11c-1.32-1.33-3.67-29.26-3.67-29.26L84.26,28.69l21.43,13.46S103.43,70.27,102.29,71.41Z"/><circle class="cls-1" cx="84.26" cy="36.89" r="1.93"/><path class="cls-1" d="M92,52.83c-.54,0-1.14-2.78-1.14-6.57a6.57,6.57,0,1,0-13.14,0c0,4.54-.69,6.57-1.13,6.57a1.14,1.14,0,0,0,0,2.28H92a1.14,1.14,0,0,0,0-2.28Z"/></g></g></g></svg>