<svg xmlns="http://www.w3.org/2000/svg" viewBox="0 0 51.33 51.33"><defs><style>.cls-1{fill:#fff;}.cls-2{fill:#3d91cf;}.cls-3{fill:#37499e;}</style></defs><title>Logo</title><g id="Layer_2" data-name="Layer 2"><g id="Layer_1_copy" data-name="Layer 1 copy"><g id="Logo"><circle class="cls-1" cx="25.67" cy="25.67" r="25.67"/><circle class="cls-2" cx="25.65" cy="25.58" r="23.25"/><path class="cls-1" d="M25.65,22.87,14.37,30s2.2,12.93,2.9,13.63c.25.25,2.41.39,5.11.45-.32-3-.32-5.77-.32-5.77a3.59,3.59,0,0,1,7.18,0s0,2.74-.32,5.76a22.43,22.43,0,0,0,5.21-.44c.6-.6,2.8-13.63,2.8-13.63Z"/><path class="cls-3" d="M39,27.49l-13.35-8.4-13.36,8.4A1.25,1.25,0,0,0,13,29.74a1.17,1.17,0,0,0,.64-.19h0l.08,0L25.65,22l11.89,7.47.07,0h0a1.15,1.15,0,0,0,.64.19A1.25,1.25,0,0,0,39,27.49Z"/><path class="cls-3" d="M34.1,10.48,25.65,5.15l-8.48,5.33a1.23,1.23,0,0,0-.5,1,1.25,1.25,0,0,0,1.24,1.25,1.29,1.29,0,0,0,.65-.18h0l.07,0,7-4.39,7,4.39.08,0h0a1.28,1.28,0,0,0,.64.18,1.25,1.25,0,0,0,1.25-1.25A1.23,1.23,0,0,0,34.1,10.48Z"/><path class="cls-1" d="M31.14,21.74,25.7,18.39l-5.46,3.35c-.4-.41-1.11-8.91-1.11-8.91l6.52-4.1,6.52,4.1S31.48,21.39,31.14,21.74Z"/><circle class="cls-3" cx="25.65" cy="11.23" r="0.59"/><path class="cls-3" d="M28,16.08c-.16,0-.34-.85-.34-2a2,2,0,1,0-4,0c0,1.38-.21,2-.35,2a.35.35,0,0,0-.34.35.34.34,0,0,0,.34.34H28a.34.34,0,0,0,.35-.34A.35.35,0,0,0,28,16.08Z"/></g></g></g></svg>