<svg xmlns="http://www.w3.org/2000/svg" xmlns:xlink="http://www.w3.org/1999/xlink" viewBox="0 0 124.27 152.13"><defs><style>.cls-1,.cls-6{fill:none;}.cls-2{isolation:isolate;}.cls-3{fill:url(#linear-gradient);}.cls-4{fill:url(#linear-gradient-2);}.cls-5{clip-path:url(#clip-path);}.cls-6{stroke:#fff;stroke-miterlimit:10;}.cls-7{opacity:0.5;mix-blend-mode:darken;}</style><linearGradient id="linear-gradient" x1="100.09" y1="75.33" x2="0" y2="75.33" gradientUnits="userSpaceOnUse"><stop offset="0" stop-color="#89181c"/><stop offset="0.56" stop-color="#8b181c"/><stop offset="1" stop-color="#c12026"/></linearGradient><linearGradient id="linear-gradient-2" x1="120" y1="80.2" x2="35.26" y2="80.2" gradientUnits="userSpaceOnUse"><stop offset="0" stop-color="#89181c"/><stop offset="1" stop-color="#c12026"/></linearGradient><clipPath id="clip-path"><path class="cls-1" d="M35.26,150.26l1-140.15c0-1.6,1.66-2.43,2.69-1.36l80.53,84.57a2,2,0,0,1-.26,3L37.68,151.87C36.61,152.61,35.25,151.7,35.26,150.26Z"/></clipPath></defs><title>Asset 13</title><g class="cls-2"><g id="Layer_2" data-name="Layer 2"><g id="Layer_1-2" data-name="Layer 1"><path class="cls-3" d="M.1,139.25,36.22,10.06a1.81,1.81,0,0,1,3.33-.63l60.16,93.81a2.34,2.34,0,0,1-.95,3.4L2.48,142C1,142.56-.38,141,.1,139.25Z"/><path class="cls-4" d="M35.26,150.26l1-140.15c0-1.6,1.66-2.43,2.69-1.36l80.53,84.57a2,2,0,0,1-.26,3L37.68,151.87C36.61,152.61,35.25,151.7,35.26,150.26Z"/><g class="cls-5"><polyline class="cls-6" points="39.06 8.77 39.06 145.86 119.72 91.03"/><polyline class="cls-6" points="43.33 0 43.33 137.09 123.99 82.25"/></g><path class="cls-7" d="M119.47,93.32,39.3,9.14A1.62,1.62,0,0,0,39.13,9l-.19-.2c-1-1-2.53-.3-2.66,1.18l-.06.13L.1,139.25C-.38,141,1,142.56,2.48,142l32.93-12.1-.15,20.34c0,1.44,1.35,2.35,2.42,1.61l81.53-55.58A2,2,0,0,0,119.47,93.32Z"/></g></g></g></svg>