<svg xmlns="http://www.w3.org/2000/svg" xmlns:xlink="http://www.w3.org/1999/xlink" viewBox="0 0 213.11 124.53"><defs><style>.cls-1{fill:#618a42;}.cls-2{fill:#405f2c;}.cls-3{fill:#b2c65f;}.cls-4{fill:url(#linear-gradient);}.cls-5{fill:url(#linear-gradient-2);}.cls-6{fill:url(#linear-gradient-3);}.cls-10,.cls-11,.cls-7,.cls-8,.cls-9{fill:none;stroke-miterlimit:10;}.cls-7{stroke:url(#linear-gradient-4);}.cls-8{stroke:url(#linear-gradient-5);}.cls-9{stroke:url(#linear-gradient-6);}.cls-10{stroke:url(#linear-gradient-7);}.cls-11{stroke:url(#linear-gradient-8);}</style><linearGradient id="linear-gradient" x1="9.22" y1="77.63" x2="92.17" y2="125.52" gradientUnits="userSpaceOnUse"><stop offset="0" stop-color="#fff"/><stop offset="0.07" stop-color="#f4cd0b"/><stop offset="0.33" stop-color="#6e4600"/></linearGradient><linearGradient id="linear-gradient-2" x1="13.84" y1="94.23" x2="13.84" y2="124.07" gradientTransform="translate(12.98 -0.66) rotate(6.78)" gradientUnits="userSpaceOnUse"><stop offset="0.27" stop-color="#bc8b00"/><stop offset="1" stop-color="#966400"/></linearGradient><linearGradient id="linear-gradient-3" x1="0.77" y1="99.85" x2="19.7" y2="118.78" gradientTransform="translate(12.98 -0.66) rotate(6.78)" gradientUnits="userSpaceOnUse"><stop offset="0" stop-color="#bc8b00"/><stop offset="0.49" stop-color="#f4cd0b"/><stop offset="0.61" stop-color="#f2f2f2"/><stop offset="0.66" stop-color="#f4cd0b"/></linearGradient><linearGradient id="linear-gradient-4" x1="3.65" y1="112.22" x2="15.9" y2="113.68" gradientTransform="matrix(1, 0, 0, 1, 0, 0)" xlink:href="#linear-gradient-2"/><linearGradient id="linear-gradient-5" x1="6.25" y1="99.7" x2="10.43" y2="100.2" gradientTransform="matrix(1, 0, 0, 1, 0, 0)" xlink:href="#linear-gradient-2"/><linearGradient id="linear-gradient-6" x1="12.12" y1="100.4" x2="16.31" y2="100.9" gradientTransform="matrix(1, 0, 0, 1, 0, 0)" xlink:href="#linear-gradient-2"/><linearGradient id="linear-gradient-7" x1="1.41" y1="105.71" x2="5.59" y2="106.2" gradientTransform="matrix(1, 0, 0, 1, 0, 0)" xlink:href="#linear-gradient-2"/><linearGradient id="linear-gradient-8" x1="15.42" y1="107.37" x2="19.6" y2="107.87" gradientTransform="matrix(1, 0, 0, 1, 0, 0)" xlink:href="#linear-gradient-2"/></defs><title>Asset 15</title><g id="Layer_2" data-name="Layer 2"><g id="Layer_1-2" data-name="Layer 1"><path class="cls-1" d="M206.37,9.74l-.67-.41C205.39,17,196.33,24,188.6,26.39L153.23,47.57,81.5,70.09,28.87,74.21c-7.79,2.22-19.16,1.38-23.65-4.86l-.42.74s2.3,13.92,6.59,22a2.48,2.48,0,0,0,.34.46c6.12,12.94,53.63,10.52,108-5.74C174.56,70.41,215.87,46,213,31.88a.34.34,0,0,0,0-.1C212.1,22.64,206.37,9.74,206.37,9.74Z"/><path class="cls-2" d="M28.87,74.21l-4.09.32C38.7,62.92,69,48.78,105.48,37.86c36.08-10.8,68.83-15.65,87-13.78l-3.86,2.31C196.33,24,205.39,17,205.7,9.33l-9.63-5.9c-19.73-6.62-60.27.3-96.61,11.18s-70,25.13-86.58,41.58L5.22,69.35C9.71,75.59,21.08,76.43,28.87,74.21Z"/><path class="cls-3" d="M97.89,14C42.25,30.69.55,55.56,4.75,69.58s52.7,11.89,108.34-4.77,97.33-41.53,93.13-55.55S153.52-2.62,97.89,14Zm13.9,44.89C59.24,74.67,13.74,77.77,10.18,65.87S46.33,31.56,98.89,15.82,196.94-3,200.51,8.89,164.35,43.2,111.79,58.93Z"/><path class="cls-4" d="M32.22,100.61a7.71,7.71,0,0,1-2.89,1.28c-3.38.73-7.07-.76-10.13-3.68a21.85,21.85,0,0,1-5.63-9.31c-2.41-7.81-.2-15.15,4.93-17.27a7.34,7.34,0,0,1,1.35-.43,10.24,10.24,0,0,1,7.65,1.73c1.57.1,3.23.16,5,.17-4-4.09-9-6.23-13.6-5.25a10.42,10.42,0,0,0-4.55,2.28c-4.44,3.8-6.09,11.4-3.62,19.39a28,28,0,0,0,1.74,4.25c4,7.91,11.4,12.85,18,11.44a10.6,10.6,0,0,0,6.46-4.37C35.26,100.8,33.71,100.72,32.22,100.61Z"/><path class="cls-5" d="M24.51,108.45c.4-3.41-.8-6.36-2.69-6.59a2.14,2.14,0,0,0-.67,0l.06-.42c.4-3.41-.8-6.36-2.69-6.59l-5.7-.68L9.1,93.77s-.2,2.79-.61,6.2c0,.14,0,.28,0,.42a1.82,1.82,0,0,0-.64-.19C5.92,100,4.06,102.56,3.65,106s.77,6.28,2.61,6.58a17.49,17.49,0,0,0-.78,3.34c-.17,1.45.1,7.52.1,7.52l3.81.45,5.49.65c2.56.31,5-2.76,5.52-6.84a17.13,17.13,0,0,0,0-3.44C22.29,114.38,24.11,111.82,24.51,108.45Z"/><path class="cls-6" d="M20.93,108c.41-3.41-.8-6.37-2.68-6.59a2,2,0,0,0-.68,0c0-.14.05-.28.07-.42.4-3.41-.8-6.37-2.69-6.59-1.25-.15-2.48.94-3.3,2.67-.38-1.88-1.33-3.22-2.57-3.37-1.89-.23-3.76,2.37-4.16,5.78,0,.14,0,.28,0,.42a2.07,2.07,0,0,0-.64-.2c-1.89-.22-3.76,2.37-4.16,5.78s.77,6.28,2.61,6.57a16.86,16.86,0,0,0-.78,3.35c-.48,4.08,1.2,7.64,3.76,8a4,4,0,0,0,3-1.23,4,4,0,0,0,2.63,1.9c2.56.3,5-2.77,5.53-6.85a17.82,17.82,0,0,0,0-3.43C18.71,114,20.53,111.39,20.93,108Z"/><path class="cls-7" d="M14.23,110.56c-.91-2.94-2.36-5.37-3.52-5.51s-3.09,1.81-4.65,4.41a8,8,0,0,1-.56,1,15.53,15.53,0,0,0-1.76,5.21c-.3,2.48.72,4.64,2.28,4.83s3.12-2.27,3.12-2.27.95,2.75,2.51,2.94,3-1.68,3.35-4.16a15.87,15.87,0,0,0-.53-5.61A5.27,5.27,0,0,1,14.23,110.56Z"/><path class="cls-8" d="M8,103.22a.93.93,0,0,0,.63-.17l.08,0a4.4,4.4,0,0,0,1.28-2.86c.21-1.8-.33-3.35-1.21-3.46S7,98,6.75,99.76,7.07,103.12,8,103.22Z"/><path class="cls-9" d="M13.19,103.54l.06.07a1,1,0,0,0,.57.31c.89.11,1.77-1.27,2-3.08s-.33-3.36-1.21-3.46-1.77,1.27-2,3.08A4.35,4.35,0,0,0,13.19,103.54Z"/><path class="cls-10" d="M3.89,102.68c-.88-.1-1.77,1.28-2,3.09s.33,3.35,1.21,3.46a1.31,1.31,0,0,0,1.11-.65c.15-.28.3-.56.46-.83a5.84,5.84,0,0,0,.42-1.61C5.31,104.34,4.77,102.79,3.89,102.68Z"/><path class="cls-11" d="M17.9,104.35c-.88-.11-1.77,1.27-2,3.08a6.07,6.07,0,0,0,0,1.66c.09.3.18.61.26.91.22.51.53.85.92.89.88.11,1.77-1.27,2-3.08S18.78,104.45,17.9,104.35Z"/></g></g></svg>