<svg xmlns="http://www.w3.org/2000/svg" xmlns:xlink="http://www.w3.org/1999/xlink" viewBox="0 0 289.06 122.19"><defs><style>.cls-1{fill:url(#linear-gradient);}.cls-2{fill:url(#linear-gradient-2);}.cls-3{fill:#6d4a0d;stroke:#563b03;}.cls-3,.cls-4,.cls-7{stroke-miterlimit:10;}.cls-4,.cls-7{fill:none;stroke-linecap:round;}.cls-4{stroke:#422a01;}.cls-5{fill:#422a01;}.cls-6{fill:#563b03;}.cls-7{stroke:#6d4a0d;}.cls-8{fill:#f6dfb1;}.cls-9{opacity:0.5;}</style><linearGradient id="linear-gradient" x1="3.9" y1="71.14" x2="284.56" y2="71.14" gradientUnits="userSpaceOnUse"><stop offset="0" stop-color="#89181c"/><stop offset="1" stop-color="#c12026"/></linearGradient><linearGradient id="linear-gradient-2" x1="143.81" x2="143.81" y2="81.27" gradientUnits="userSpaceOnUse"><stop offset="0.16" stop-color="#563b03"/><stop offset="1" stop-color="#6d4a0d"/></linearGradient></defs><title>Asset 18</title><g id="Layer_2" data-name="Layer 2"><g id="Layer_1-2" data-name="Layer 1"><g id="Bed"><path class="cls-1" d="M284.56,53.89c0,55.13-61.16,68.3-138.66,68.3s-142-15.85-142-68.3c0-43.11,60-32.68,137.52-32.68S284.56,10.78,284.56,53.89Z"/><path class="cls-2" d="M4.5,43.18C6.91,47.29,43,81.27,141.42,81.27S282.71,56.43,284.56,45.06C286,36.22,281,27.39,268,19.92a101.83,101.83,0,0,0-21.61-8.87c-2.41-.72-8.14-.91-10.81-1.58-11-2.73-20.95-5.46-36.42-7-7.9-.79-16.43.48-25.58.07S154.66,0,144.23,0q-20.56,0-38.09,1.15C85.57,2.46,71.43,6.71,57.06,9.79s-29,5-37.31,9.2C4.84,26.52-.15,35.26,4.5,43.18Z"/><path class="cls-3" d="M141.42,81.27c-52.63,0-87.06-9.18-106.68-16.87C11.46,55.27,2,45.88.75,43.86,0,42.63,1,41.26,3.11,40.8h0c.78,1.26,15,11.36,36,19.63,18.71,7.33,51.64,16.08,102.28,16.08,53.45,0,87.12-6.94,106-12.76C269.07,57.05,284.19,47,285,42.43h0c2.2.14,3.8,1.3,3.57,2.61C286.36,57.67,241,81.27,141.42,81.27Z"/><path class="cls-4" d="M235.56,35.27c0,5.57-10.65,8.62-29,12.1-7.47,1.42-16.93,4.55-26.35,5.4-11.13,1-18.75-.35-31.65-.35-7.85,0-20.14,1.69-27.42,1.31-8.39-.45-16.33-1.14-23.61-2-6.27-.76-9.77-3.92-15-5-17.28-3.47-30.33-6.09-30.33-11.47"/><path class="cls-5" d="M101.21,52.13l-1.74-.2Z"/><path class="cls-5" d="M104.27,52.45l-1.8-.19Z"/><path class="cls-5" d="M115,53.35l-3.21-.23Z"/><path class="cls-5" d="M107.44,52.75l-1.93-.18Z"/><path class="cls-5" d="M118.26,53.56l-2.67-.17Z"/><path class="cls-5" d="M110.86,53l-2.24-.18Z"/><path class="cls-5" d="M180.21,52.77h.09l-.28,0Z"/><path class="cls-5" d="M121.14,53.73h.13l-1.84-.1Z"/><path class="cls-5" d="M97.53,51.7l.71.09-.87-.11Z"/><path class="cls-5" d="M111.78,53.12l-.92-.08Z"/><path class="cls-5" d="M115.59,53.39l-.6,0Z"/><path class="cls-5" d="M119.43,53.63l-1.17-.07Z"/><path class="cls-5" d="M143.81,33.11a314.08,314.08,0,0,0-34.07,1.58c-7.46.9-13-1.74-18.63-.4-20.78,5-30.73,4-33.26,6.31,5.41,2.26,14.29,4,24.71,6.14,5.16,1,8.64,4.14,14.81,4.94l.87.11,1.23.14,1.74.2,1.26.13,1.8.19,1.24.12,1.93.18,1.18.11,2.24.18.92.08,3.21.23.6,0,2.67.17,1.17.07,1.84.1c7.29.36,19.48-1.31,27.29-1.31,12.83,0,20.43,1.33,31.46.36l.28,0c9.39-.86,18.82-4,26.26-5.39,9.1-1.73,16.3-3.35,21.25-5.22-1.31-1.2-4.1,3.75-11.21.29-4.79-2.34-11.94-3.15-20.08-5.34-2.53-.69-3.5-.72-6.39-1.33-6-1.26-14.4.76-22,0C160.23,35,153.63,33.11,143.81,33.11Z"/><path class="cls-5" d="M108.62,52.86l-1.18-.11Z"/><path class="cls-5" d="M227.81,42.15c-4.95,1.87-12.15,3.49-21.25,5.22-7.44,1.42-16.87,4.53-26.26,5.39"/><path class="cls-5" d="M105.51,52.57l-1.24-.12Z"/><path class="cls-5" d="M102.47,52.26l-1.26-.13Z"/><path class="cls-5" d="M99.47,51.93l-1.23-.14Z"/><ellipse class="cls-6" cx="129.9" cy="43.79" rx="5.05" ry="1.26"/><ellipse class="cls-6" cx="186.03" cy="45.79" rx="5.05" ry="1.26"/><path class="cls-7" d="M129,46.53a22.36,22.36,0,0,1,10.34-2.74"/><path class="cls-7" d="M121.27,42.52a12.26,12.26,0,0,1,6.25,3.53"/><path class="cls-7" d="M177.91,46.71C181,45.79,188.47,48,188.47,48"/><path class="cls-7" d="M193.09,44.82a9.08,9.08,0,0,0-3.18,2.43"/><path class="cls-8" d="M164.91,100.39h0a7.55,7.55,0,1,0,0-15.1c-4.17,0-7.66,5.75-9.46,7.54s-19.08,2.09-21.17,0-5.95-7.55-10.13-7.55a7.55,7.55,0,0,0,0,15.1v0a7.56,7.56,0,0,0,0,15.11c4.18,0,8.33-5.93,9.95-7.55s18.49-1.85,20.34,0,6.3,7.55,10.47,7.55a7.56,7.56,0,0,0,0-15.11Z"/></g><path class="cls-9" d="M288.58,43.48A5,5,0,0,0,285,41.93h-.21c-.1-7.77-5.35-15.41-16.81-22a101.83,101.83,0,0,0-21.61-8.87c-2.41-.72-8.14-.91-10.81-1.58-11-2.73-20.95-5.46-36.42-7-7.9-.79-16.43.48-25.58.07S154.66,0,144.23,0q-20.56,0-38.09,1.15C85.57,2.46,71.43,6.71,57.06,9.79s-29,5-37.31,9.2C6.65,25.61,1.21,33.16,3.24,40.26L3,40.32a3.78,3.78,0,0,0-2.84,2,2,2,0,0,0,.17,1.86,22.12,22.12,0,0,0,4,4,40.29,40.29,0,0,0-.39,5.75c0,52.45,64.49,68.3,142,68.3S284.56,109,284.56,53.89c0-.63,0-1.24,0-1.85,2.66-2.5,4.16-4.85,4.51-6.91A2,2,0,0,0,288.58,43.48Z"/></g></g></svg>