<svg xmlns="http://www.w3.org/2000/svg" xmlns:xlink="http://www.w3.org/1999/xlink" viewBox="0 0 239.33 78.55"><defs><style>.cls-1{fill:url(#linear-gradient);}.cls-2{fill:#8c6239;}</style><linearGradient id="linear-gradient" x1="239.33" y1="39.27" x2="0" y2="39.27" gradientUnits="userSpaceOnUse"><stop offset="0" stop-color="#613e02"/><stop offset="0.48" stop-color="#3d2701"/><stop offset="1" stop-color="#613e02"/></linearGradient></defs><title>Asset 14</title><g id="Layer_2" data-name="Layer 2"><g id="Layer_1-2" data-name="Layer 1"><path class="cls-1" d="M238,17.3c-5,1-13,21-28,18-19.83-4-27-31-55-35-7.16-1-21.61-.2-35.34,15.16C105.94.1,91.49-.72,84.33.3c-28,4-35.17,31-55,35-15,3-23-17-28-18s3,50,43,59c36.89,8.3,63.57-8.07,75.33-21.64C131.43,68.23,158.11,84.6,195,76.3,235,67.3,243,16.3,238,17.3Z"/><path class="cls-2" d="M112,18.3a30.58,30.58,0,0,0-8.77-4.39,30.2,30.2,0,0,0-9.63-1.27A35,35,0,0,0,84,14.28,38.07,38.07,0,0,0,79.4,16c-.74.36-1.49.69-2.23,1.07s-1.44.8-2.17,1.19c.67-.48,1.35-1,2-1.42s1.43-.85,2.14-1.28a39.68,39.68,0,0,1,4.56-2,30.81,30.81,0,0,1,9.83-1.91,27.09,27.09,0,0,1,9.9,1.55c.78.3,1.55.64,2.32,1L108,15.32l2.07,1.4C110.73,17.24,111.37,17.77,112,18.3Z"/><path class="cls-2" d="M112.27,21A26.75,26.75,0,0,0,104,17.73a23.89,23.89,0,0,0-8.76-.08,28.06,28.06,0,0,0-8.31,2.86,31.32,31.32,0,0,0-3.79,2.33c-.6.44-1.22.86-1.81,1.32s-1.14,1-1.73,1.43c.51-.55,1-1.09,1.56-1.63s1.12-1,1.68-1.51a32.11,32.11,0,0,1,3.71-2.61,25.16,25.16,0,0,1,8.52-3.18,22,22,0,0,1,9.1.32l2.18.68c.7.3,1.41.57,2.09.89l2,1.1C111.05,20.08,111.66,20.51,112.27,21Z"/><path class="cls-2" d="M130.39,19c.61-.44,1.23-.87,1.85-1.3l2-1.1c.69-.32,1.39-.59,2.09-.89l2.18-.68a22,22,0,0,1,9.1-.32,25.16,25.16,0,0,1,8.52,3.18,32.23,32.23,0,0,1,3.72,2.61c.56.5,1.13,1,1.67,1.51s1.05,1.08,1.56,1.63l-1.73-1.43c-.59-.46-1.21-.88-1.8-1.32a33,33,0,0,0-3.79-2.33,28.22,28.22,0,0,0-8.32-2.86,23.89,23.89,0,0,0-8.76.08A26.94,26.94,0,0,0,130.39,19Z"/><path class="cls-2" d="M128.6,21.47A23.53,23.53,0,0,1,132,20.11l.9-.27.91-.19a15.9,15.9,0,0,1,1.83-.32,21.45,21.45,0,0,1,7.45.31A20.81,20.81,0,0,1,150,22.52a19.87,19.87,0,0,1,2.9,2.35,14.46,14.46,0,0,1,2.25,2.93,17.41,17.41,0,0,0-2.58-2.57,19.88,19.88,0,0,0-3-2.05,23.92,23.92,0,0,0-6.7-2.56,25.34,25.34,0,0,0-7.17-.53A32.18,32.18,0,0,0,128.6,21.47Z"/></g></g></svg>