<svg xmlns="http://www.w3.org/2000/svg" viewBox="0 0 49.26 41.18"><defs><style>.cls-1{opacity:0.7;}.cls-2{fill:#569fd5;}.cls-3{fill:none;stroke:#569fd5;stroke-width:0;}</style></defs><title>Asset 14</title><g id="Layer_2" data-name="Layer 2"><g id="Layer_1-2" data-name="Layer 1"><g class="cls-1"><path class="cls-2" d="M4.09,27.43c.46.3,1,.57,1.41.84,1,.55,1.49,1.44,2.39,2.07a21,21,0,0,1,2.83,3c.4.4.75.84,1.13,1.26l.53.67a8.15,8.15,0,0,1,.55.8l.59,1c.18.38.34.83.5,1.22A24,24,0,0,1,14.89,41l.19.17c0,.09.07-.08.1-.19l.11-.34c.26-.78.5-1.55.75-2.31L16.88,36A19.84,19.84,0,0,1,17.66,34c.26-.55.48-1.11.76-1.64.55-1.06,1.07-2.14,1.72-3.15.32-.51.63-1,1-1.53l1.08-1.47c1.71-2.26,3.71-4.75,5.63-7,.35-.41.78-.93,1.3-1.46l1.64-1.66a30.65,30.65,0,0,0,2.81-2.95c-.87.89-1.84,1.72-2.77,2.58s-1.89,1.69-2.74,2.57A70.93,70.93,0,0,1,40.21,7.55,94.28,94.28,0,0,0,19.15,27.87c.34-.59.73-1.17,1.14-1.75s.8-1.19,1.23-1.77c.9-1.15,1.77-2.35,2.79-3.48a68.86,68.86,0,0,1,6.46-6.56A135.51,135.51,0,0,1,44.91,3.71l2-1.42C42.43,5.35,37.34,8.57,32.6,12.47a65.69,65.69,0,0,0-12.37,13,48.3,48.3,0,0,0-4,6.76l-1.17,2.66-.12.29-.07.17-.05.18s0,.08,0,.07l0-.1v0a3.07,3.07,0,0,0-.13-.47,1,1,0,0,0-.08-.21l-.06-.11,0-.06-.14-.23a25.34,25.34,0,0,0-6.2-6.84A18.08,18.08,0,0,0,3.85,25a9.22,9.22,0,0,0-2.24-.63,2.9,2.9,0,0,0-1.49.14c.4.13.84.24,1.28.35a8.55,8.55,0,0,1,1.2.47,8.14,8.14,0,0,1-1-.15,6.53,6.53,0,0,0,1,.37,1.49,1.49,0,0,0-.67-.05c.37.17,1,.26,1.28.37a5,5,0,0,1,1.27.42,10.23,10.23,0,0,0-2-.4,4,4,0,0,1,.59.29,3.24,3.24,0,0,0-.93-.16,10.76,10.76,0,0,1,1.46.61c.41.2.74.45,1.15.62a5.28,5.28,0,0,0-1.52-.5,6.59,6.59,0,0,0,.65.33l-.07,0c.1.05.21.15.31.2s0,.06,0,.07l0-.05" transform="translate(-0.12)"/><path class="cls-2" d="M4.29,25.47a12,12,0,0,1,1.64,1" transform="translate(-0.12)"/><path class="cls-3" d="M20.76,25.15l.19-.28c.12-.18.29-.46.54-.78.51-.66,1.16-1.65,2.08-2.78a66.66,66.66,0,0,1,7.57-8.08A80.61,80.61,0,0,1,41.2,5.46c.81-.59,1.65-1.08,2.43-1.58l2.22-1.46A30.22,30.22,0,0,0,49.38,0" transform="translate(-0.12)"/><path class="cls-3" d="M29.75,15.53l.35-.34c.22-.23.57-.54,1-.92.88-.76,2.07-1.9,3.57-3.09,2.94-2.46,6.9-5.41,10.56-8" transform="translate(-0.12)"/></g></g></g></svg>