<?xml version="1.0" encoding="utf-8"?>
<!-- Generator: Adobe Illustrator 22.1.0, SVG Export Plug-In . SVG Version: 6.00 Build 0)  -->
<svg version="1.1" id="Layer_1" xmlns="http://www.w3.org/2000/svg" xmlns:xlink="http://www.w3.org/1999/xlink" x="0px" y="0px"
	 viewBox="0 0 355.8 50" style="enable-background:new 0 0 355.8 50;" xml:space="preserve">
<style type="text/css">
	.st0{enable-background:new    ;}
	.st1{fill:#FFFFFF;}
</style>
<title>Nav</title>
<g class="st0">
	<path class="st1" d="M31.6,15.5h-1.3v18.7h2v8.7H18v-8.7h2V15.5h-1.3v2.1h-8.5V6.8h29.8v10.9h-8.5V15.5z M32.6,16.6h6.4V7.9H11.3
		v8.7h6.4v-2.1h3.4v20.7h-2v6.6h12.3v-6.6h-2V14.5h3.4V16.6z M33.9,13.2H28v23.3h2.1v4.1h-9.8v-4.1h2.1V13.2h-5.8v2.1h-3.9V9.1h25.2
		v6.2h-3.9V13.2z"/>
	<path class="st1" d="M42,42.9v-8.7h2V15.5h-2V6.8h21.6l5.9,6V22l-2.1,2.2l2.1,2.2v7.8h2v8.7H59.4V29.4c-0.2-0.2-0.5-0.5-0.8-0.8
		h-4.3v5.6h2.1v8.7H42z M55.3,41.8v-6.6h-2.1v-7.6H59c0.3,0.3,0.6,0.6,0.7,0.7c0.2,0.1,0.4,0.4,0.7,0.7v12.9h10.2v-6.6h-2.1v-8.3
		l-2.6-2.7l2.6-2.7v-8.3l-5.3-5.4H43v6.6h2v20.7h-2v6.6H55.3z M44.3,40.6v-4.1h2V13.2h-2v-4h18.4l4.5,4.7v7.3l-3.1,3.2l3.1,3.2v9.1
		h2v4.1h-7.7V28.5l-2.1-2.1H52v10.2h2v4.1H44.3z M61.6,20v-4.6l-2.1-2.2H52v9.1h7.4L61.6,20z M59,21h-5.7v-6.5H59l1.4,1.4v3.6L59,21
		z M59.4,19.1v-2.7l-0.8-0.9h-4.3v4.4h4.3L59.4,19.1z"/>
	<path class="st1" d="M99.8,15.5h-1.6c0.5,1.6,1,3.2,1.5,4.7c0.5,1.5,1,3,1.5,4.5c0.5,1.5,1,3,1.5,4.6c0.5,1.6,1.1,3.2,1.6,4.9h2.1
		v8.7H92.3v-8.7h1c0-0.2-0.1-0.3-0.1-0.4c0-0.1-0.1-0.3-0.1-0.4h-6.2c0,0.1-0.1,0.2-0.1,0.4c0,0.1-0.1,0.3-0.1,0.5h1v8.7H73.5v-8.7
		h2.1c0.6-1.7,1.1-3.3,1.6-4.8c0.5-1.5,1-2.9,1.5-4.4c0.5-1.5,1-3,1.5-4.5c0.5-1.5,1-3.2,1.6-5h-1.4V6.8h19.3V15.5z M98.7,7.9H81.5
		v6.6h1.8c-0.6,1.8-1.2,3.6-1.8,5.3c-0.6,1.7-1.1,3.4-1.7,5.1c-0.6,1.7-1.1,3.4-1.7,5.1c-0.6,1.7-1.1,3.4-1.7,5.3h-1.9v6.6h12v-6.6
		h-1.4c0.2-0.7,0.4-1.2,0.5-1.6c0.1-0.4,0.3-0.8,0.4-1.4h7.6c0.2,0.6,0.4,1.1,0.5,1.6c0.2,0.4,0.3,0.9,0.5,1.4h-1.5v6.6h12.1v-6.6
		h-1.9c-1.2-3.6-2.4-7.1-3.5-10.4c-1.1-3.3-2.2-6.8-3.4-10.3h2V7.9z M97.5,13.2H95l7.7,23.3h1.5v4.1h-9.5v-4.1h1.9L94.8,31h-9.5
		l-1.8,5.5h1.9v4.1h-9.5v-4.1h1.5L85,13.2h-2.2v-4h14.7V13.2z M93.8,28.1L90,16.5l-3.8,11.6H93.8z M87.9,26.9
		c0.4-1.3,0.8-2.4,1.1-3.3c0.3-1,0.6-2,1-3c0.3,0.8,0.5,1.5,0.6,2c0.2,0.5,0.3,1,0.5,1.5s0.3,0.9,0.5,1.3c0.2,0.4,0.3,0.9,0.5,1.6
		H87.9z M90.6,25.8c-0.1-0.2-0.2-0.4-0.3-0.8c-0.1-0.4-0.2-0.7-0.4-1.2c-0.1,0.3-0.2,0.6-0.3,0.9c-0.1,0.3-0.2,0.7-0.3,1H90.6z"/>
	<path class="st1" d="M124.8,21.2v-4.8l-0.8-0.9h-4.7l-0.8,0.9v17c0.1,0.1,0.2,0.2,0.3,0.3c0.1,0.1,0.3,0.3,0.4,0.5h4.7
		c0.1-0.1,0.3-0.3,0.4-0.4c0.1-0.1,0.3-0.3,0.4-0.5v-4.5h10v8l-5.7,6h-14.9l-5.7-6V12.8l5.7-6h14.9l5.7,6v8.3H124.8z M133.8,20.1
		v-6.8l-5.2-5.4h-14l-5.2,5.4v23.2l5.2,5.4h14l5.2-5.4v-6.5h-8v3.9c-0.3,0.3-0.6,0.6-0.7,0.7c-0.2,0.1-0.4,0.4-0.6,0.7h-5.6
		c-0.3-0.3-0.5-0.6-0.7-0.7c-0.2-0.1-0.4-0.4-0.7-0.7v-18l1.4-1.4h5.6l1.4,1.4v4.2H133.8z M127,18.8v-3.4l-2.1-2.2h-6.6l-2.1,2.2
		v18.9l2.1,2.1h6.6l2.1-2.1v-3.2h5.6v4.7l-4.5,4.7h-13l-4.4-4.7V13.8l4.4-4.7h13l4.5,4.7v5H127z"/>
	<path class="st1" d="M149.2,34.2h2.1v8.7h-14.5v-8.7h2.1V15.5h-2.1V6.8h14.5v8.7h-2.1v3.8l3.7-3.8h-0.4V6.8h17.4v8.7h-3.5l-9.2,9.3
		l9.2,9.3h3.5v8.7h-17.4v-8.7h0.4l-2.5-2.5l-1.3,1.3V34.2z M148.2,35.2v-2.7l2.3-2.3c0.9,0.9,1.8,1.8,2.7,2.6
		c0.8,0.8,1.6,1.6,2.5,2.5h-2v6.6h15.2v-6.6H166l-10.3-10.4L166,14.5h2.8V7.9h-15.2v6.6h1.9l-7.3,7.4v-7.4h2.1V7.9h-12.5v6.6h2.1
		v20.7h-2.1v6.6h12.5v-6.6H148.2z M149,36.5v4.1h-9.9v-4.1h2.1V13.2h-2.1v-4h9.9v4h-2.1V25l11.6-11.8h-3.7v-4h12.7v4h-2.1L154,24.9
		l11.5,11.6h2.1v4.1h-12.7v-4.1h3.7l-8.1-8.1l-3.6,3.6v4.5H149z"/>
	<path class="st1" d="M198.1,15.5h-1.6c0.5,1.6,1,3.2,1.5,4.7c0.5,1.5,1,3,1.5,4.5c0.5,1.5,1,3,1.5,4.6c0.5,1.6,1.1,3.2,1.6,4.9h2.1
		v8.7h-14.2v-8.7h1c0-0.2-0.1-0.3-0.1-0.4c0-0.1-0.1-0.3-0.1-0.4h-6.2c0,0.1-0.1,0.2-0.1,0.4c0,0.1-0.1,0.3-0.1,0.5h1v8.7h-14.1
		v-8.7h2.1c0.6-1.7,1.1-3.3,1.6-4.8c0.5-1.5,1-2.9,1.5-4.4c0.5-1.5,1-3,1.5-4.5c0.5-1.5,1-3.2,1.6-5h-1.4V6.8h19.3V15.5z M197,7.9
		h-17.2v6.6h1.8c-0.6,1.8-1.2,3.6-1.8,5.3c-0.6,1.7-1.1,3.4-1.7,5.1c-0.6,1.7-1.1,3.4-1.7,5.1c-0.6,1.7-1.1,3.4-1.7,5.3h-1.9v6.6h12
		v-6.6h-1.4c0.2-0.7,0.4-1.2,0.5-1.6c0.1-0.4,0.3-0.8,0.4-1.4h7.6c0.2,0.6,0.4,1.1,0.5,1.6c0.2,0.4,0.3,0.9,0.5,1.4h-1.5v6.6h12.1
		v-6.6h-1.9c-1.2-3.6-2.4-7.1-3.5-10.4c-1.1-3.3-2.2-6.8-3.4-10.3h2V7.9z M195.8,13.2h-2.5l7.7,23.3h1.5v4.1h-9.5v-4.1h1.9l-1.8-5.5
		h-9.5l-1.8,5.5h1.9v4.1h-9.5v-4.1h1.5l7.6-23.3h-2.2v-4h14.7V13.2z M192.1,28.1l-3.8-11.6l-3.8,11.6H192.1z M186.2,26.9
		c0.4-1.3,0.8-2.4,1.1-3.3c0.3-1,0.6-2,1-3c0.3,0.8,0.5,1.5,0.6,2c0.2,0.5,0.3,1,0.5,1.5s0.3,0.9,0.5,1.3c0.2,0.4,0.3,0.9,0.5,1.6
		H186.2z M188.9,25.8c-0.1-0.2-0.2-0.4-0.3-0.8c-0.1-0.4-0.2-0.7-0.4-1.2c-0.1,0.3-0.2,0.6-0.3,0.9c-0.1,0.3-0.2,0.7-0.3,1H188.9z"
		/>
	<path class="st1" d="M228.1,6.8l5.7,6v24.1l-5.7,6h-21.4v-8.7h2V15.5h-2V6.8H228.1z M207.8,7.9v6.6h2v20.7h-2v6.6h19.9l5.2-5.4
		V13.3l-5.2-5.4H207.8z M227.2,9.1l4.4,4.7v22.1l-4.4,4.7H209v-4.1h2V13.2h-2v-4H227.2z M224,36.5l2.1-2.1V15.4l-2.1-2.2h-7.4v23.3
		H224z M217.8,35.2V14.5h5.6l1.4,1.4v18c-0.3,0.3-0.6,0.6-0.7,0.7c-0.2,0.1-0.4,0.4-0.6,0.7H217.8z M223,34.2
		c0.1-0.1,0.3-0.3,0.4-0.4c0.1-0.1,0.3-0.3,0.4-0.5v-17l-0.8-0.9h-4.2v18.7H223z"/>
	<path class="st1" d="M261.2,42.9h-25.4v-8.7h2V15.5h-2V6.8h25.4V17h-8.3v-1.5h-5.2v5h0.6v-1.5h8.3v11.5h-8.3v-1.4h-0.6v5h5.2v-1.4
		h8.3V42.9z M260.2,33.9h-6.2v1.4h-7.2v-7.1h2.6v1.4h6.3v-9.4h-6.3v1.5h-2.6v-7.1h7.2v1.4h6.2v-8h-23.3v6.6h2v20.7h-2v6.6h23.3V33.9
		z M259,40.6h-21v-4.1h2V13.2h-2v-4h21v5.5h-3.9v-1.5h-9.5v9.7h5v-1.5h3.8v6.9h-3.8v-1.4h-5v9.6h9.5v-1.4h3.9V40.6z"/>
	<path class="st1" d="M303.5,6.8v8.7h-2.2v18.7h2.2v8.7h-15v-8.7h2.1v-7c-1.3,2.2-2.6,4.3-3.9,6.5c-1.3,2.1-2.5,4-3.5,5.7l-7.5-12.3
		v7.1h2.1v8.7h-14.9v-8.7h2.1V15.5h-2.1V6.8h11.7l8.5,14l8.5-14H303.5z M292.4,7.9c-1.5,2.4-3,4.8-4.5,7.4c-1.6,2.6-3.1,5.1-4.6,7.5
		l-9.2-14.9h-10v6.6h2.1v20.7h-2.1v6.6H277v-6.6h-2.1V23.3l8.5,14c1.2-2,2.6-4.3,4.1-6.7s3-4.8,4.4-7.2v11.8h-2.2v6.6h12.9v-6.6
		h-2.2V14.5h2.2V7.9H292.4z M301.2,9.1v4H299v23.3h2.1v4.1h-10.2v-4.1h2.1V18.8l-9.7,16.1l-9.8-16.1v17.7h2.1v4.1h-10.2v-4.1h2.1
		V13.2h-2.1v-4h8l9.9,16.2l9.8-16.2H301.2z"/>
	<path class="st1" d="M333.1,43.3h-14.9v-9.1h2.1v-7.4l-11.3-11.2h-3.6V6.7h17.7v8.5l2.6,2.5l2.5-2.5V6.7h17.2v8.8h-3.2L331,26.7
		v7.4h2.1V43.3z M332.1,35.2h-2.1v-9l11.9-11.8h2.6V7.8h-15.1v6.6h1.3l-4.9,4.9c-0.9-0.9-1.8-1.8-2.6-2.5c-0.8-0.7-1.6-1.5-2.4-2.4
		h1.3V7.8h-15.5v6.6h3l12,11.8v9h-2.2v7h12.8V35.2z M330.8,40.9h-10.2v-4.4h2.1V25.7l-12.7-12.6h-2.2V9.1h13v4.1h-3.1l8.1,8l8-8
		h-3.2V9.1h12.5v4.1h-1.8l-12.7,12.6v10.8h2.1V40.9z"/>
</g>
</svg>
