<svg xmlns="http://www.w3.org/2000/svg" xmlns:xlink="http://www.w3.org/1999/xlink" viewBox="0 0 104.08 103.71"><defs><style>.cls-1{fill:none;}.cls-2{fill:url(#linear-gradient);}.cls-3{fill:url(#linear-gradient-2);}.cls-4{clip-path:url(#clip-path);}.cls-5{fill:#966400;}.cls-6{fill:url(#linear-gradient-3);}</style><linearGradient id="linear-gradient" x1="1007.86" y1="-290.93" x2="1075.09" y2="-358.16" gradientTransform="matrix(-1.22, 0, 0, 1, 1318.79, 376.4)" gradientUnits="userSpaceOnUse"><stop offset="0" stop-color="#bc8b00"/><stop offset="0.49" stop-color="#f4cd0b"/><stop offset="0.61" stop-color="#f2f2f2"/><stop offset="0.66" stop-color="#f4cd0b"/></linearGradient><linearGradient id="linear-gradient-2" x1="19.7" y1="84.2" x2="84.39" y2="19.51" gradientUnits="userSpaceOnUse"><stop offset="0.27" stop-color="#bc8b00"/><stop offset="1" stop-color="#966400"/></linearGradient><clipPath id="clip-path"><path class="cls-1" d="M32.22,65.62v6.86H17.33V64.79h3.08c.69-.66,1.31-1.24,1.87-1.76l1.61-1.55,1.64-1.59L27.47,58,24,54.73c-1.11-1.06-2.3-2.22-3.58-3.46H17.33V43.59H32.22v6.9l.68.68c.23.23.51.5.83.79.26-.26.52-.51.79-.74s.52-.47.78-.73v-6.9H49.89v7.68H47.05l-1.74,1.67c-.54.52-1.07,1.05-1.61,1.59L42,56.17c-.57.56-1.2,1.17-1.88,1.86l3.38,3.31c1.07,1.06,2.25,2.21,3.52,3.45h2.84v7.69H35.3V65.57L33.78,64.1Zm1.51-3c.66.66,1.23,1.23,1.74,1.72L37,65.82h-.68v5.63H48.81V65.82H46.66L42.57,61.9q-1.89-1.82-4-3.87l2.11-2,1.93-1.89,1.93-1.88c.66-.64,1.36-1.3,2.11-2h2.15V44.61H36.33v5.63H37c-.42.4-.77.73-1.05,1l-.76.76-.66.66c-.21.21-.46.45-.76.71L32,51.74l-1.57-1.5h.74V44.61H18.36v5.63H20.9C22.34,51.65,23.7,53,25,54.16s2.61,2.5,4,3.87L24.89,62q-1.83,1.75-4,3.87H18.36v5.63H31.19V65.82H30.5ZM27.42,67h2.49v3.13H19.63V67h1.76l9.36-9L21.39,49H19.63V45.84H29.91V49H27.42l6.31,6.12L40.1,49H37.6V45.84h9.94V49H46.12L36.82,58l9.3,9h1.42v3.13H37.6V67h2.5L33.73,61ZM66,71.91V61h2.57V58.57H52.65V44.92L70.21,26.5h11V47.61h4.34v11H81.17V61h2.51V71.91Zm16.46-1.34V62.24H79.88v-5h4.35V49H79.88V27.84H70.76L53.93,45.53V57.22H69.84v5H67.27v8.33ZM68.8,69V63.83h2.58v-8.2H55.46V46.14L71.38,29.43h7V50.55h4.41v5.08H78.35v8.2h2.57V69ZM62.44,48.35v2.2h8.94V39Zm7.4-5.51V49H64Zm-2.75,4.77h1.47V46.08Z"/></clipPath><linearGradient id="linear-gradient-3" x1="17.33" y1="50.85" x2="85.51" y2="50.85" xlink:href="#linear-gradient-2"/></defs><title>Asset 7</title><g id="Layer_2" data-name="Layer 2"><g id="Layer_1-2" data-name="Layer 1"><ellipse class="cls-2" cx="52.04" cy="51.86" rx="52.04" ry="51.86"/><path class="cls-3" d="M51.75,6.43C26.31,6.6,5.83,27.07,6,52.15S26.9,97.44,52.33,97.28,98.26,76.65,98.1,51.56,77.19,6.27,51.75,6.43ZM52,94.81A43,43,0,1,1,95,51.86,43,43,0,0,1,52,94.81Z"/><g class="cls-4"><rect class="cls-5" x="8.64" y="11.88" width="87.78" height="76.43"/><path class="cls-6" d="M32.22,67v6.86H17.33V66.15h3.08l1.87-1.76,1.61-1.54,1.64-1.6,1.94-1.86L24,56.09l-3.58-3.45H17.33V45H32.22v6.9l.68.69c.23.23.51.49.83.78.26-.26.52-.5.79-.73s.52-.47.78-.74V45H49.89v7.69H47.05c-.62.58-1.2,1.14-1.74,1.66s-1.07,1.06-1.61,1.59L42,57.53l-1.88,1.86,3.38,3.31c1.07,1.06,2.25,2.21,3.52,3.45h2.84v7.69H35.3v-6.9l-1.52-1.47Zm1.51-3c.66.65,1.23,1.22,1.74,1.71L37,67.18h-.68v5.63H48.81V67.18H46.66l-4.09-3.92q-1.89-1.8-4-3.87c.75-.71,1.45-1.39,2.11-2l1.93-1.88,1.93-1.89c.66-.63,1.36-1.3,2.11-2h2.15V46H36.33v5.63H37l-1.05,1-.76.76-.66.66c-.21.22-.46.45-.76.71-.65-.62-1.22-1.16-1.71-1.64s-1-1-1.57-1.49h.74V46H18.36v5.63H20.9q2.16,2.1,4.07,3.92t4,3.86l-4.09,3.92-4,3.87H18.36v5.63H31.19V67.18H30.5Zm-6.31,4.4h2.49v3.14H19.63V68.4h1.76l9.36-9-9.36-9H19.63V47.2H29.91v3.14H27.42l6.31,6.12,6.37-6.12H37.6V47.2h9.94v3.14H46.12l-9.3,9,9.3,9h1.42v3.14H37.6V68.4h2.5l-6.37-6.07ZM66,73.28v-11h2.57V59.93H52.65V46.28L70.21,27.86h11V49h4.34v11H81.17v2.39h2.51v11Zm16.46-1.35V63.61H79.88v-5h4.35V50.32H79.88V29.21H70.76L53.93,46.9V58.59H69.84v5H67.27v8.32ZM68.8,70.34V65.2h2.58V57H55.46V47.51L71.38,30.8h7V51.91h4.41V57H78.35v8.2h2.57v5.14ZM62.44,49.71v2.2h8.94V40.41Zm7.4-5.51v6.12H64ZM67.09,49h1.47V47.45Z"/></g></g></g></svg>