<svg xmlns="http://www.w3.org/2000/svg" viewBox="0 0 19.79 30"><defs><style>.cls-1{fill:#fff;}</style></defs><title>Asset 20</title><g id="Layer_2" data-name="Layer 2"><g id="Layer_1-2" data-name="Layer 1"><path class="cls-1" d="M14,15c0,3.63,5.55,12,2.76,12.61C10.59,29,2.28,16.79,2.28,15S10.59,1,16.73,2.39C19.52,3,14,11.37,14,15Z"/><path class="cls-1" d="M15.72,1A5.4,5.4,0,0,1,17,1.17a2.1,2.1,0,0,1,1.47,1.11C19.24,3.76,18.41,6,17,9.47c-.82,2-1.75,4.28-1.75,5.53s.93,3.52,1.75,5.53c1.43,3.49,2.26,5.71,1.49,7.19A2.1,2.1,0,0,1,17,28.83a5.4,5.4,0,0,1-1.28.15C12,29,8.27,25.63,5.8,22.82,3.82,20.56,1,16.64,1,15S3.82,9.44,5.8,7.18C8.27,4.37,12,1,15.72,1h0m0-1h0C11.61,0,7.64,3.54,5,6.5c0,.06-5,5.76-5,8.5s5,8.44,5,8.5c2.6,3,6.57,6.5,10.68,6.5a6.92,6.92,0,0,0,1.51-.17,3.14,3.14,0,0,0,2.15-1.64c1-1.88.09-4.29-1.45-8-.75-1.82-1.68-4.1-1.68-5.14s.93-3.32,1.68-5.14c1.54-3.76,2.43-6.17,1.45-8A3.14,3.14,0,0,0,17.23.17,6.92,6.92,0,0,0,15.72,0Z"/></g></g></svg>