<svg xmlns="http://www.w3.org/2000/svg" viewBox="0 0 43.96 29"><defs><style>.cls-1{fill:#c1c0c0;}</style></defs><title>Asset 3</title><g id="Layer_2" data-name="Layer 2"><g id="Layer_1-2" data-name="Layer 1"><path class="cls-1" d="M22,8.53c5.32,0,17.55-8.13,18.48-4,2,9-15.86,21.18-18.48,21.18S1.45,13.49,3.5,4.49C4.43.4,16.66,8.53,22,8.53Z"/><path class="cls-1" d="M38.68,1.5a4.08,4.08,0,0,1,1.94.43,3.17,3.17,0,0,1,1.64,2.15A9.12,9.12,0,0,1,42.46,6c0,5.46-4.9,10.91-9,14.53-3.31,2.91-9.06,7-11.47,7s-8.15-4.09-11.46-7C6.4,16.88,1.5,11.43,1.5,6h0a8.49,8.49,0,0,1,.21-1.89A3.18,3.18,0,0,1,3.34,1.93,4.08,4.08,0,0,1,5.28,1.5c2.06,0,4.82,1.07,8.6,2.62,2.94,1.21,6.28,2.57,8.1,2.57s5.16-1.36,8.11-2.57c3.78-1.55,6.53-2.62,8.59-2.62m0-1.5c-2.31,0-5.13,1.08-9.16,2.73-2.68,1.1-6,2.46-7.54,2.46s-4.86-1.36-7.53-2.46C10.41,1.08,7.6,0,5.28,0A5.63,5.63,0,0,0,2.65.6,4.63,4.63,0,0,0,.25,3.75,9.63,9.63,0,0,0,0,6C0,12,5.18,17.8,9.53,21.62,9.61,21.7,18,29,22,29s12.37-7.3,12.46-7.38C38.78,17.8,44,12,44,6a10.27,10.27,0,0,0-.24-2.22A4.64,4.64,0,0,0,41.31.6,5.57,5.57,0,0,0,38.68,0Z"/></g></g></svg>