<svg xmlns="http://www.w3.org/2000/svg" viewBox="0 0 397.57 56.25"><defs><style>.cls-1{fill:#c1c0c0;}</style></defs><title>Asset 17</title><g id="Layer_2" data-name="Layer 2"><g id="Layer_1-2" data-name="Layer 1"><path class="cls-1" d="M41.77,30.3V46.43l-8.85,9.3H0V42.3H3.15V13.5H0V.08H32.92l8.85,9.3V23.55l-3.22,3.38ZM36.3,26.93l4-4.13V10.05l-8-8.32H1.58v10.2H4.73v32H1.58v10.2H32.25l8-8.33V31.05Zm2,4.87V44.93l-6.83,7.2h-28v-6.3H6.6V9.9H3.45V3.68H31.5l6.83,7.2V22.05l-4.66,4.88ZM26.55,23.85l3.22-3.37V13.35L26.55,9.9H15.23v14Zm0,22,3.22-3.31V33.45l-3.22-3.3H15.23V45.83ZM17.1,21.9v-10h8.7l2.1,2.17v5.55L25.8,21.9Zm0,22V32.1h8.7c.45.5.8.86,1.05,1.09s.6.56,1,1v7.57c-.5.51-.88.87-1.13,1.09s-.57.57-1,1Zm8-23.63L26.33,19V14.85L25.05,13.5H18.6v6.75Zm0,22c.2-.2.4-.39.6-.56a7.1,7.1,0,0,0,.68-.72V35l-1.28-1.27H18.6V42.3Z"/><path class="cls-1" d="M85.35,13.5H82.88q1.19,3.75,2.36,7.24l2.32,7c.78,2.33,1.56,4.69,2.36,7.09s1.63,4.9,2.48,7.5h3.3V55.73H73.88V42.3h1.5l-.16-.67A5.27,5.27,0,0,0,75,41H65.47c0,.15-.1.34-.15.56a7.59,7.59,0,0,1-.22.79h1.5V55.73H44.92V42.3h3.3c.85-2.65,1.66-5.11,2.41-7.39l2.25-6.78q1.13-3.37,2.28-6.9c.78-2.35,1.61-4.93,2.51-7.73h-2.1V.08H85.35ZM83.7,1.73H57.22v10.2h2.7q-1.43,4.26-2.7,8.21c-.85,2.62-1.7,5.24-2.55,7.84s-1.71,5.2-2.58,7.79-1.77,5.31-2.67,8.11H46.5v10.2H65V43.88H62.85c.35-1.1.62-1.93.82-2.48s.43-1.25.68-2.1H76.13c.29,1,.57,1.76.82,2.44s.5,1.39.75,2.14H75.45v10.2h18.6V43.88H91.2q-2.78-8.33-5.32-16T80.63,11.93H83.7ZM81.82,9.9H78L89.85,45.83H92.1v6.3H77.4v-6.3h3l-2.77-8.48H62.92l-2.77,8.48h2.92v6.3H48.45v-6.3h2.32L62.55,9.9H59.17V3.68H81.82Zm-5.69,23L70.27,15.08,64.35,32.93ZM67.05,31q1-2.94,1.69-5.14c.47-1.48,1-3,1.53-4.61.4,1.25.73,2.28,1,3.11s.49,1.57.71,2.25.46,1.34.71,2S73.2,30,73.5,31Zm4.2-1.65c-.1-.25-.24-.65-.41-1.2s-.37-1.15-.57-1.8a8.35,8.35,0,0,0-.48,1.38c-.13.48-.29,1-.49,1.62Z"/><path class="cls-1" d="M124.05,22.2V14.85l-1.28-1.35H115.5l-1.2,1.35V41l.52.53c.2.2.43.45.68.75h7.27c.2-.2.4-.39.6-.56a6.13,6.13,0,0,0,.68-.72v-7H139.5V46.43l-8.85,9.3h-23l-8.85-9.3v-37L107.7.08h23l8.85,9.3V22.2Zm13.87-1.65V10.05L130,1.73h-21.6l-8,8.32v35.7l8,8.33H130l7.95-8.33v-10h-12.3v6.07c-.5.51-.87.87-1.12,1.09s-.58.57-1,1h-8.7a11.07,11.07,0,0,0-1.08-1.09,8.78,8.78,0,0,1-1-1V14.1l2.1-2.17h8.7l2.1,2.17v6.45ZM127.5,18.6V13.35L124.27,9.9h-10.2l-3.22,3.45V42.52l3.22,3.31h10.2l3.23-3.31V37.65h8.62v7.28l-6.9,7.2h-20.1l-6.82-7.2v-34l6.82-7.2h20.1l6.9,7.2V18.6Z"/><path class="cls-1" d="M161.77,42.3H165V55.73H142.65V42.3h3.22V13.5h-3.22V.08H165V13.5h-3.23v5.85l5.78-5.85h-.68V.08h26.78V13.5h-5.33L174.15,27.9l14.17,14.4h5.33V55.73H166.87V42.3h.68l-3.83-3.9-1.95,2Zm-1.57,1.58v-4.2l3.52-3.6c1.45,1.45,2.82,2.78,4.09,4s2.54,2.49,3.79,3.79h-3.08v10.2H192V43.88h-4.35l-15.83-16,15.83-16H192V1.73H168.52v10.2h2.93L160.2,23.33V11.93h3.22V1.73h-19.2v10.2h3.23v32h-3.23v10.2h19.2V43.88Zm1.27,1.95v6.3h-15.3v-6.3h3.23V9.9h-3.23V3.68h15.3V9.9h-3.22V28.05L176.1,9.9h-5.63V3.68h19.58V9.9h-3.23l-17.7,18,17.7,17.93h3.23v6.3H170.47v-6.3h5.78L163.72,33.3l-5.47,5.55v7Z"/><path class="cls-1" d="M239.4,56.25h-23v-14h3.3V30.75L202.35,13.5H196.8V0H224V13.13L228,17l3.9-3.82V0h26.55V13.5h-4.88L236.1,30.75V42.23h3.3Zm-1.65-12.37h-3.3V30l18.37-18.15h4V1.65H233.55v10.2h2L228,19.43c-1.45-1.45-2.77-2.75-3.94-3.91s-2.41-2.37-3.71-3.67h2V1.65H198.45v10.2H203L221.47,30V43.88H218.1V54.6h19.65Zm-1.95,8.77H220.12V45.83h3.3V29.25L203.85,9.9H200.4V3.6h19.95V9.9h-4.8L228,22.2,240.37,9.9H235.5V3.6h19.27V9.9h-2.7L232.5,29.25V45.83h3.3Z"/><path class="cls-1" d="M293.62,13.5h-2.47c.8,2.5,1.58,4.91,2.36,7.24s1.55,4.65,2.33,7,1.56,4.69,2.36,7.09,1.62,4.9,2.47,7.5H304V55.73H282.15V42.3h1.5c0-.25-.1-.47-.15-.67a5.46,5.46,0,0,0-.23-.68h-9.52c-.05.15-.1.34-.15.56a7.9,7.9,0,0,1-.23.79h1.5V55.73H253.2V42.3h3.3q1.28-4,2.4-7.39l2.25-6.78,2.29-6.9q1.15-3.53,2.51-7.73h-2.1V.08h29.77ZM292,1.73H265.5v10.2h2.7q-1.43,4.26-2.7,8.21c-.85,2.62-1.7,5.24-2.55,7.84s-1.72,5.2-2.59,7.79-1.76,5.31-2.66,8.11h-2.93v10.2H273.3V43.88h-2.18c.35-1.1.63-1.93.83-2.48s.42-1.25.67-2.1H284.4c.3,1,.57,1.76.82,2.44s.5,1.39.75,2.14h-2.25v10.2h18.6V43.88h-2.85q-2.78-8.33-5.32-16T288.9,11.93H292ZM290.1,9.9h-3.83l11.85,35.93h2.25v6.3h-14.7v-6.3h3l-2.77-8.48H271.2l-2.78,8.48h2.93v6.3H256.72v-6.3h2.33L270.82,9.9h-3.37V3.68H290.1Zm-5.7,23-5.85-17.85-5.93,17.85ZM275.32,31q1-2.94,1.69-5.14c.47-1.48,1-3,1.54-4.61.4,1.25.72,2.28,1,3.11s.49,1.57.72,2.25.46,1.34.71,2,.52,1.45.82,2.4Zm4.2-1.65c-.1-.25-.24-.65-.41-1.2s-.36-1.15-.56-1.8a8.38,8.38,0,0,0-.49,1.38c-.12.48-.29,1-.49,1.62Z"/><path class="cls-1" d="M307.12,55.73V42.3h3.15V13.5h-3.15V.08h33.3l9.08,9.3V23.55l-3.3,3.38,3.3,3.37v12h3.15V55.73H333.82V35a15,15,0,0,1-1.27-1.27H326V42.3h3.22V55.73Zm20.48-1.65V43.88h-3.23V32.1h8.85c.5.5.88.86,1.13,1.09s.6.56,1,1V54.08h15.67V43.88h-3.22V31.05l-4-4.12,4-4.13V10.05l-8.1-8.32H308.7v10.2h3.15v32H308.7v10.2Zm-17-1.95v-6.3h3.15V9.9h-3.15V3.68H339l7,7.2V22.05l-4.72,4.88L346,31.8v14h3.15v6.3H337.27V33.45l-3.3-3.3H322.5V45.83h3.15v6.3Zm26.62-31.65V13.35L334,9.9H322.5v14H334Zm-4,1.42h-8.85v-10h8.85l2.18,2.17v5.55Zm.6-2.92V14.85l-1.27-1.35H326v6.75h6.6Z"/><path class="cls-1" d="M388.72.08l8.85,9.3V46.43l-8.85,9.3H355.8V42.3H359V13.5H355.8V.08ZM357.37,1.73v10.2h3.15v32h-3.15v10.2h30.68l8-8.33V10.05l-8-8.32Zm29.93,2,6.82,7.2V44.93l-6.82,7.2H359.25v-6.3h3.15V9.9h-3.15V3.68Zm-4.95,42.15,3.22-3.31V13.35L382.35,9.9H371V45.83Zm-9.45-1.95V11.93h8.7l2.1,2.17V41.77c-.5.51-.88.87-1.13,1.09s-.57.57-1,1Zm8-1.58c.2-.2.4-.39.6-.56a6.16,6.16,0,0,0,.67-.72V14.85l-1.27-1.35H374.4V42.3Z"/></g></g></svg>