<svg xmlns="http://www.w3.org/2000/svg" viewBox="0 0 22 22"><defs><style>.cls-1{fill:#88181c;}</style></defs><title>Nav</title><g id="Layer_2" data-name="Layer 2"><g id="Layer_1-2" data-name="Layer 1"><g id="Nav"><path class="cls-1" d="M12.08,4.7a1.47,1.47,0,0,1,.45,1.08,1.55,1.55,0,0,1-.45,1.12A1.47,1.47,0,0,1,11,7.36a1.45,1.45,0,0,1-1.07-.45,1.57,1.57,0,0,1,0-2.2,1.51,1.51,0,0,1,2.16,0Zm.12,13.05H9.8V8.19h2.4Z"/><path class="cls-1" d="M0,11A11,11,0,1,1,11,22,11,11,0,0,1,0,11Zm2,0a9,9,0,1,0,9-9A9,9,0,0,0,2,11Z"/></g></g></g></svg>