<svg xmlns="http://www.w3.org/2000/svg" viewBox="0 0 22 22"><defs><style>.cls-1{fill:#88181c;}</style></defs><title>Nav (2)</title><g id="Layer_2" data-name="Layer 2"><g id="Layer_1-2" data-name="Layer 1"><g id="Nav"><path class="cls-1" d="M9.16,8H6.86A3.58,3.58,0,0,1,8,5.23a4.37,4.37,0,0,1,3.1-1.1,4.57,4.57,0,0,1,2.11.45A3.6,3.6,0,0,1,14.62,5.9a3.44,3.44,0,0,1,.52,1.81,3.2,3.2,0,0,1-.16,1,4,4,0,0,1-.53,1,7.79,7.79,0,0,1-1,1,7.14,7.14,0,0,0-1,1,2.35,2.35,0,0,0-.32.76A5.66,5.66,0,0,0,12,13.86H9.61v-.4A5.15,5.15,0,0,1,10,11.32a5.37,5.37,0,0,1,1.4-1.81,7.3,7.3,0,0,0,1.12-1.12,1.34,1.34,0,0,0,.19-.72,1.2,1.2,0,0,0-.47-1A2,2,0,0,0,11,6.32a1.85,1.85,0,0,0-1.32.48A1.6,1.6,0,0,0,9.16,8Zm1.68,6.83a1.47,1.47,0,0,1,1.09.44,1.43,1.43,0,0,1,.45,1.06,1.48,1.48,0,0,1-.44,1.07,1.5,1.5,0,0,1-1.08.44,1.47,1.47,0,0,1-1.08-.44,1.5,1.5,0,0,1,1.06-2.57Z"/><path class="cls-1" d="M11,22A11,11,0,1,1,22,11,11,11,0,0,1,11,22ZM11,2a9,9,0,1,0,9,9A9,9,0,0,0,11,2Z"/></g></g></g></svg>