<svg xmlns="http://www.w3.org/2000/svg" viewBox="0 0 157 157"><defs><style>.cls-1{fill:#fff;}.cls-2{fill:#c12026;}.cls-3{fill:#88181c;}</style></defs><title>Nav (3)</title><g id="Layer_2" data-name="Layer 2"><g id="Layer_1-2" data-name="Layer 1"><g id="Nav"><g id="Logo"><circle class="cls-1" cx="78.5" cy="78.5" r="78.5"/><circle class="cls-2" cx="78.44" cy="78.23" r="71.12"/><path class="cls-1" d="M78.45,69.94,44,91.61s6.71,39.53,8.85,41.66c.76.77,7.38,1.22,15.64,1.4-1-9.26-1-17.65-1-17.65a11,11,0,1,1,22,0s0,8.36-1,17.6c8.46-.21,15.27-.68,15.94-1.35,1.83-1.83,8.54-41.66,8.54-41.66Z"/><path class="cls-3" d="M119.29,84.09,78.45,58.39,37.6,84.09a3.78,3.78,0,0,0-1.54,3,3.8,3.8,0,0,0,5.79,3.26h0l.22-.14L78.45,67.4,114.8,90.24l.24.15h0a3.8,3.8,0,0,0,4.25-6.3Z"/><path class="cls-3" d="M104.29,32,78.45,15.76,52.51,32a3.8,3.8,0,0,0,2.28,6.86,3.89,3.89,0,0,0,2-.55h0l.22-.14L78.45,24.77,99.81,38.2l.24.15h0a3.74,3.74,0,0,0,2,.56A3.8,3.8,0,0,0,104.29,32Z"/><path class="cls-1" d="M95.23,66.48,78.6,56.26,61.91,66.48c-1.23-1.23-3.42-27.24-3.42-27.24L78.44,26.71l20,12.53S96.29,65.42,95.23,66.48Z"/><circle class="cls-3" cx="78.45" cy="34.34" r="1.8"/><path class="cls-3" d="M85.62,49.19c-.5,0-1.06-2.6-1.06-6.12a6.12,6.12,0,1,0-12.23,0c0,4.22-.65,6.12-1.06,6.12a1.06,1.06,0,1,0,0,2.11H85.62a1.06,1.06,0,1,0,0-2.11Z"/></g></g></g></g></svg>