<svg xmlns="http://www.w3.org/2000/svg" viewBox="0 0 22.05 24.19"><defs><style>.cls-1{opacity:0.9;}.cls-2{fill:#618a42;}</style></defs><title>Asset 2</title><g id="Layer_2" data-name="Layer 2"><g id="Layer_1-2" data-name="Layer 1"><g id="Password" class="cls-1"><path class="cls-2" d="M6,7A5.07,5.07,0,1,1,16.09,7c0,.84,1.95.82,1.95,0A7,7,0,1,0,4,7c0,.4.48.62,1,.62S6,7.44,6,7Z"/><path class="cls-2" d="M18.76,8.39H3.28A3.07,3.07,0,0,0,0,11.16V21.43a3.06,3.06,0,0,0,3.28,2.76H18.76a3.07,3.07,0,0,0,3.29-2.76V11.16A3.08,3.08,0,0,0,18.76,8.39ZM11,19.35a1.8,1.8,0,0,1-.9-3.37V13a.91.91,0,0,1,1.81,0v3A1.8,1.8,0,0,1,11,19.35Z"/></g></g></g></svg>