<svg xmlns="http://www.w3.org/2000/svg" xmlns:xlink="http://www.w3.org/1999/xlink" viewBox="0 0 414.54 396.86"><defs><style>.cls-1{fill:url(#linear-gradient);}.cls-2{fill:url(#linear-gradient-2);}.cls-3{fill:#f6cd75;}.cls-4{fill:#f6e0b2;}.cls-5{fill:#e2a85e;}.cls-6{fill:#fae4b4;}.cls-7{fill:#e2aa65;}.cls-8{fill:#e2aa66;}.cls-9{fill:#e2a965;}.cls-10{fill:#fae5b6;}.cls-11{fill:#fae3b2;}.cls-12{fill:#edd4af;}.cls-13{fill:#f6dfb1;}.cls-14{fill:#f6e0b1;}.cls-15{fill:#563b03;}.cls-16{fill:#573b03;}.cls-17{fill:#e1a75d;}.cls-18{fill:#e1a761;}.cls-19{fill:#e1a861;}.cls-20{fill:#e2a863;}.cls-21{fill:#f3d9a3;}.cls-22{fill:#f2cf8e;}.cls-23{fill:#e2a964;}.cls-24{fill:#563b05;}.cls-25{fill:url(#linear-gradient-3);}.cls-26{fill:url(#linear-gradient-4);}.cls-27{fill:url(#linear-gradient-5);}.cls-28{fill:url(#linear-gradient-6);}.cls-29{fill:url(#linear-gradient-7);}.cls-30{font-size:37.49px;fill:#fff;font-family:CollegiateHeavyOutline-Medium, CollegiateHeavyOutline;}</style><linearGradient id="linear-gradient" x1="207.27" y1="358.11" x2="207.27" y2="50.51" gradientUnits="userSpaceOnUse"><stop offset="0" stop-color="#3d91cf"/><stop offset="1" stop-color="#7fc1d5"/></linearGradient><linearGradient id="linear-gradient-2" x1="207.27" y1="337.9" x2="207.27" y2="70.73" xlink:href="#linear-gradient"/><linearGradient id="linear-gradient-3" y1="321.22" x2="115.51" y2="321.22" gradientUnits="userSpaceOnUse"><stop offset="0" stop-color="#37499e"/><stop offset="1" stop-color="#3d91cf"/></linearGradient><linearGradient id="linear-gradient-4" x1="43.63" y1="341.18" x2="115.57" y2="341.18" xlink:href="#linear-gradient"/><linearGradient id="linear-gradient-5" x1="299.04" y1="367.48" x2="414.54" y2="367.48" gradientUnits="userSpaceOnUse"><stop offset="0" stop-color="#3d91cf"/><stop offset="1" stop-color="#37499e"/></linearGradient><linearGradient id="linear-gradient-6" x1="298.98" y1="347.53" x2="370.92" y2="347.53" gradientUnits="userSpaceOnUse"><stop offset="0" stop-color="#7fc1d5"/><stop offset="1" stop-color="#3d91cf"/></linearGradient><linearGradient id="linear-gradient-7" x1="113.66" y1="438.37" x2="301.45" y2="250.58" gradientUnits="userSpaceOnUse"><stop offset="0" stop-color="#37499e"/><stop offset="0.52" stop-color="#3d91cf"/><stop offset="1" stop-color="#37499e"/></linearGradient></defs><title>Asset 9</title><g id="Layer_2" data-name="Layer 2"><g id="Layer_1_copy" data-name="Layer 1 copy"><path class="cls-1" d="M207.27,50.51a153.8,153.8,0,1,0,153.8,153.8A153.8,153.8,0,0,0,207.27,50.51Zm0,296A142.16,142.16,0,1,1,349.44,204.31,142.16,142.16,0,0,1,207.27,346.47Z"/><circle class="cls-2" cx="207.27" cy="204.31" r="133.59"/><path class="cls-3" d="M256.26,90.84c0,.19,0,.38,0,.57a1.34,1.34,0,0,0-.23.42c-.15.94-.3,1.87-.41,2.81-.14,1.21-.26,2.42-.39,3.63,0,.12,0,.24,0,.37a2,2,0,0,0-.3,1.85c0,.13,0,.25,0,.38s-.26.16-.28.26a27.25,27.25,0,0,0-.83,5.6l0,.37c-.27.3-.61.58-.26,1,0,.2,0,.39,0,.59s-.31.37-.31.56a18.76,18.76,0,0,1-.76,4.47c0,.11,0,.24.07.37s0,.25,0,.37c-.44.34-.69.72-.37,1.28,0,.13,0,.25,0,.38a1.82,1.82,0,0,0-.34.46,7.24,7.24,0,0,1-.28,1.09,8.69,8.69,0,0,0-.53,3.19c-.09.64.21.92.86,1,.24,0,.49,0,.72,0a3.14,3.14,0,0,1,1.26.36A3.58,3.58,0,0,0,256,123l.17.05c.3.77,1.07.87,1.69,1.18l.39.24a2,2,0,0,0,.38.56c.54.38,1.12.72,1.69,1.08l.41.41c.28.68.9.56,1.45.62h0c0,.44.14.67.61.58l1.87,1.48c.07.67.55.62,1,.59l.21,0a1.68,1.68,0,0,0,1.23,1.22l.22,0a3.34,3.34,0,0,0,1.85,1.84l.21,0a.82.82,0,0,0,.82.8l1,.85a2.23,2.23,0,0,0,1.44,1.24l.2.21a4.79,4.79,0,0,0,1.66,2l0,0c0,.4.22.58.59.63l.84,1a3.11,3.11,0,0,0,1.43,1.66,1.38,1.38,0,0,0,0,.2l.39.42,1.05,1.44.39.42.85,1.44.39.41.25.62.37.41,1.26,2.69c.14.44.1,1,.61,1.23l.85,1.45c0,.38.11.75.59.82.22.34.43.69.65,1,0,.41.22.58.58.63-.06.78.52,1.26.85,1.85a.59.59,0,0,0,.59.63l0,.4.39.41.44.62c0,.3,0,.59.39.62l.65,1.24.38.41c-.09.91.66,1.4,1.05,2.07.07.48-.26,1.09.4,1.41l0,0c0,.33-.16.74.38.83a1.49,1.49,0,0,0,0,.21c0,.3,0,.58.39.62l.22.41a5.78,5.78,0,0,0,.84,3.08v.63l.39,1,.4.84c-.25.36-.35.67.2.83L294,174c-.3.33,0,.37.21.42l0,.62.6,2.46c0,.21,0,.42,0,.64.1.52,0,1.13.57,1.45l0,.4v1.45l.2,1,0,.63c.13.89.25,1.78.38,2.67l.24.84a1.2,1.2,0,0,0,.39,1.23v.42c.05.5-.26,1.09.38,1.43l.22.24.21,1c.16.9.31,1,1.08.9.57-.08,1.16,0,1.74-.09a10.1,10.1,0,0,0,1.91-.26c1.46-.43,2.92-.89,4.33-1.44a6.86,6.86,0,0,0,2.91-1.61c.56-.33,1.13-.63,1.67-1,1-.64,2-1.3,2.95-2A19.67,19.67,0,0,0,316,184c.86-.78,1.62-1.67,2.49-2.44a14.85,14.85,0,0,0,3-3.69c.54-.95,1.14-1.87,1.62-2.85a33.53,33.53,0,0,0,1.43-3.32,10.88,10.88,0,0,0,1-4.1,3.77,3.77,0,0,1,.38-1.21c.73-.25.66-.86.64-1.44a1.19,1.19,0,0,0-.93-1.09c-.51-.17-1-.3-1.57-.45,0-.46-.09-.7-.6-.47a2.49,2.49,0,0,1-.37.09l-1.49-.83a3.07,3.07,0,0,0-.49-.58c-.51-.38-1.05-.72-1.57-1.08l-.41-.4h0a2.19,2.19,0,0,0-.18-.67c-.34-.47-.79-.86-1.09-1.35-.64-1-1.54-1.9-1.64-3.2a3.06,3.06,0,0,0-.22-.89c0-.13-.24-.2-.36-.29a24.3,24.3,0,0,1-.23-4.26,2.48,2.48,0,0,1,.05-.72,20.19,20.19,0,0,1,1.42-4.55,4.77,4.77,0,0,1,3.49,1.64,13.38,13.38,0,0,1,3.39,4.08,1.75,1.75,0,0,0,.56.59,9.38,9.38,0,0,1,2.19,2.55c.91,1.27,1.73,2.6,2.59,3.91a25.71,25.71,0,0,1,1.46,2.32,42.78,42.78,0,0,1,1.73,3.92,3.66,3.66,0,0,1,.48,2.06.8.8,0,0,0,.09.39,21.9,21.9,0,0,1,1.13,6.85c0,1,0,2.06,0,3.09a11.27,11.27,0,0,1,.08,1.42c-.12,1.11-.41,2.22-.48,3.33a24.47,24.47,0,0,1-.86,4.82,27,27,0,0,1-.88,3.26,66,66,0,0,1-3,7.14,25.61,25.61,0,0,1-2.5,4.45c-.25.28-.5.56-.73.86-1,1.36-2,2.81-3.13,4.06a76,76,0,0,1-7.58,7.21,18.4,18.4,0,0,0-1.68,1.15,18.7,18.7,0,0,1-2.75,1.94,8.49,8.49,0,0,1-1,.65c-1.15.58-2.3,1.16-3.46,1.71a21.13,21.13,0,0,1-2.14.91,12.48,12.48,0,0,0-2.86.95,1,1,0,0,1-.5.11c-.84,0-1.68-.06-2.52-.15-.65-.06-.84.07-.91.76a8.51,8.51,0,0,0-.15,1.21c0,1.06-.51,2.08-.11,3.16.07.19-.05.46-.08.7-.11.93-.21,1.86-.31,2.79,0,.26,0,.53-.05.79l-.28.5c.15,1.92-.6,3.7-.95,5.54a64.87,64.87,0,0,1-1.89,7.84c-.62,1.84-.85,3.81-1.87,5.52-.36.6-.47,1.36-.77,2a25.38,25.38,0,0,1-3.66,6,1.3,1.3,0,0,0-.34.63,2,2,0,0,1-1.09,1.64s-.07,0-.07.06c-.06,1.2-1.34,1.48-1.8,2.37a11.6,11.6,0,0,1-.64,1.27c-.34.5-.76.94-1.14,1.41a7.65,7.65,0,0,0-.92,1.22,7.76,7.76,0,0,1-1.95,2.47,27,27,0,0,0-2.23,2.41L274.69,272c-.56.59-1.16,1.15-1.71,1.76a4.31,4.31,0,0,1-1.47,1.24,4.67,4.67,0,0,0-.84.58c-.34,0-.72-.15-.89.31l-2.2,1.14c-.3,0-.59-.06-.68.33l-.16.07c-.31,0-.61,0-.64.39-.54.25-1,.72-1.64.65-.91-.73-1.77-1.51-2.72-2.17a30.63,30.63,0,0,0-3.4-2.12c-.9-.46-1.51-1.38-2.54-1.62,0,0,0-.05-.07-.07a24.71,24.71,0,0,0-2.8-1.81c-1.82-.86-3.7-1.59-5.58-2.32-1.33-.52-2.69-1-4-1.39-.45-.14-1,0-1.41-.18-1.18-.57-2.55-.07-3.69-.73-1.88.13-3.71-.51-5.6-.23-1.25.18-2.52.16-3.79.23a2.79,2.79,0,0,0-.4.07c-1,.18-1.95.35-2.91.56a14.26,14.26,0,0,0-4.13,1.14,5.06,5.06,0,0,1-1.49.32c-.11-.49.17-.83.35-1.24.41-1,.73-2,1.07-2.94.21-.6.39-1.21.59-1.82a11.38,11.38,0,0,0,.88-2.58,11.77,11.77,0,0,1,.47-2.08c.25-.87.59-1.73.84-2.61.12-.42.07-.89.2-1.31.42-1.42.89-2.83,1.32-4.25.21-.68.39-1.37.54-2.06.07-.35,0-.72.08-1.07.2-.89.43-1.76.65-2.63a15.64,15.64,0,0,0,.75-3.37c0-.1.07-.19.09-.29.07-.41.13-.81.2-1.21s.12-.81.2-1.21c.13-.6.28-1.19.42-1.79s.21-1,.37-1.53.46-1.13.6-1.71c.45-1.89.85-3.8,1.28-5.7.11-.52.29-1,.41-1.55.28-1.25.57-2.51.81-3.77s.36-2.58.68-3.83c.24-.92,0-1.9.53-2.79a5.36,5.36,0,0,0,.46-1.85,27.44,27.44,0,0,1,.52-3.54c.45-1.51.38-3.1.92-4.59.22-.63.19-1.35.36-2,.28-1.09.35-2.2.63-3.3s.07-2.33.43-3.51a17,17,0,0,0,.27-3.21,8.22,8.22,0,0,1,.24-1.2c.05-.23.12-.46.15-.69.31-2,.23-4.09.8-6.07a3.14,3.14,0,0,0,0-.62v-2.06c0-1.09,0-2.18,0-3.27,0-.3.13-.67-.28-.94-.16.83-.34,1.58-.45,2.34-.15.94-.23,1.89-.35,2.83,0,.33-.11.67-.15,1-.11.88-.21,1.76-.31,2.64s-.21,1.76-.32,2.64a26,26,0,0,1-.49,3.54,13.93,13.93,0,0,0-.34,2.38,10.34,10.34,0,0,1-.22,1.08c-.06.29-.13.59-.18.88-.11.82-.2,1.63-.32,2.44-.07.42-.23.84-.3,1.26a18.93,18.93,0,0,1-.51,3.13,6.51,6.51,0,0,0-.32,1.88,5.44,5.44,0,0,1-.11.81c-.3,1.47-.63,2.93-.91,4.41-.25,1.3-.34,2.65-.67,3.93-.46,1.73-.73,3.5-1.14,5.24-.18.78-.27,1.6-.47,2.39a10.9,10.9,0,0,0-.21,1.52,5.43,5.43,0,0,1-.1.81c-.22.71-.51,1.4-.68,2.13-.39,1.72-.71,3.47-1.08,5.2-.49,2.27-.92,4.55-1.5,6.8-.64,2.49-1.23,5-1.64,7.51-.26,1.61-.73,3.19-1.15,4.77-.18.68-.57,1.32-.69,2-.18,1.14-.73,2.17-.85,3.35a14,14,0,0,1-.71,2.65c-.3,1-.64,1.94-.95,2.91s-.61,1.87-.91,2.81c-.23.71-.46,1.42-.7,2.13a14.73,14.73,0,0,1-.65,1.83c-.5,1-1.09,2-1.61,2.95-.83,1.56-1.63,3.12-2.44,4.69a5.18,5.18,0,0,1-.5,1.09,2.74,2.74,0,0,0-.65,1.25c-.16.76-.38,1.51-.61,2.26-.16.52-.36,1-.55,1.53-.05-.09-.15-.17-.16-.26-.23-1.27-.45-2.54-.69-3.8a2.23,2.23,0,0,0-.25-.78c-.94-1.4-1.9-2.78-3.58-3.4-.6-.23-1.18-.52-1.79-.75a23.76,23.76,0,0,0-3-1.1c-1.85-.45-3.74-.75-5.6-1.17a25,25,0,0,0-5.53-.29,2.38,2.38,0,0,0-.68.19,22.69,22.69,0,0,1-5.89,1.27,6.17,6.17,0,0,0-3.27,1A40.48,40.48,0,0,1,178,276a1.31,1.31,0,0,1,.37-1.12,2.22,2.22,0,0,0,.44-.78c.24-.6.46-1.21.66-1.82.41-1.25.84-2.5,1.19-3.77s.61-2.63,1-3.92c.55-1.64,1-3.32,1.43-5,.26-1,.43-2.05.63-3.07a20.6,20.6,0,0,0,.42-2.3c.1-1.36.64-2.68.44-4.07a.39.39,0,0,1,.09-.29c.4-.47.29-1,.31-1.58a4.64,4.64,0,0,1,.14-1.72,4.45,4.45,0,0,0,.28-1.59c0-.44.1-.88.15-1.32.15-1.41.31-2.83.46-4.24.11-1,.21-1.9.31-2.85a6,6,0,0,0,.1-.61c.08-2.43.19-4.86.2-7.3,0-1.53.15-3.06,0-4.6,0-.46.14-.94.12-1.41a6.94,6.94,0,0,1,.1-2.61,1.27,1.27,0,0,0,.1-.5c-.13-1.42-.54-2.83-.14-4.27a.44.44,0,0,0,0-.3,4.61,4.61,0,0,1-.19-2.21c0-.57-.21-1.15-.18-1.72a39.92,39.92,0,0,0-.43-4.09,2.74,2.74,0,0,0-.13-.62.7.7,0,0,0-.27.55c0,3.84,0,7.68,0,11.52,0,1.92,0,3.84,0,5.75-.12,2.66.29,5.33-.32,8a19.69,19.69,0,0,0-.08,4.14,2.86,2.86,0,0,1-.06.93,9.65,9.65,0,0,0-.36,3.25,8.52,8.52,0,0,1-.12,1.12c-.16,1.35-.35,2.71-.49,4.06-.08.77.16,1.58-.37,2.29-.08.12,0,.34,0,.51a12.38,12.38,0,0,1-.34,3.12c-.34,1.11-.32,2.34-.65,3.5a16.87,16.87,0,0,0-.54,3.39,6.4,6.4,0,0,1-.57,2,1.5,1.5,0,0,0-.15.38c-.12,1.29-.78,2.45-.85,3.76a3.84,3.84,0,0,1-.25.77c-.19.55-.38,1.1-.56,1.65s-.21.84-.36,1.25a10.25,10.25,0,0,0-.84,2.27c-.19,1.94-1.37,3.51-1.78,5.36-.72.64-.82,1.7-1.65,2.28a7.94,7.94,0,0,0-1.2,1.19c-.49.54-.92.5-1.21-.21-.45-1.09-.82-2.2-1.23-3.3-.13-.35-.3-.69-.41-1-.25-.87-.45-1.76-.71-2.63s-.63-1.92-.94-2.88c-.4-1.25-.8-2.5-1.18-3.76a5.54,5.54,0,0,1-.44-1.77c0-.77-.66-1.38-.35-2.15a33.79,33.79,0,0,1-1.15-5.28,7.78,7.78,0,0,0-.32-1.9,3.86,3.86,0,0,1-.29-1.59,1.78,1.78,0,0,0-.08-.7,4.34,4.34,0,0,1-.49-2c0-.78-.33-1.54-.38-2.32a7.58,7.58,0,0,0-.46-3.27,1.23,1.23,0,0,1,0-.51c-.06-.94.19-1.93-.39-2.8a.79.79,0,0,1,0-.31q-.1-3.14-.22-6.27c0-.44-.1-.88-.14-1.32a4.16,4.16,0,0,1,0-.61c0-.75.17-1.5.16-2.25,0-3.74-.12-7.48-.19-11.22a3,3,0,0,0-.12-.52,12.55,12.55,0,0,0-.68,3.07c-.13,1.86-.2,3.74-.22,5.61,0,2.85,0,5.71,0,8.57,0,.74.14,1.49.19,2.24a15.3,15.3,0,0,1,.11,1.81,13.07,13.07,0,0,0,.43,3.74c.13.51.25.85,0,1.11.1.61.19,1.07.26,1.52,0,.27,0,.55.08.82.25,1.48.52,3,.75,4.44.12.71.14,1.43.28,2.13.21,1,.52,2,.74,3,.36,1.74.68,3.48,1,5.21.08.39.39.76.39,1.14a16.32,16.32,0,0,0,.62,3.11,2.53,2.53,0,0,0,.22.88,9.24,9.24,0,0,1,.78,2.09,23.77,23.77,0,0,1,.83,2.51,23.83,23.83,0,0,0,.85,3.11,28.79,28.79,0,0,0,2.07,5.28,9.1,9.1,0,0,1,.42,1c-.12-.05-.29-.05-.37-.14-.52-.53-1-1.09-1.54-1.63a5.28,5.28,0,0,0-1.05-1c-1.34-.74-2.71-1.43-4.07-2.14-.09,0-.2-.05-.3-.09-1.29-.42-2.58-.87-3.88-1.28a12.23,12.23,0,0,0-4.28-.82,48.27,48.27,0,0,1-5,0,12.84,12.84,0,0,0-5.22,1.25c-.79.31-1.55.72-2.35,1a10.93,10.93,0,0,0-4.22,2.22c-1.32,1.24-2.76,2.35-4.11,3.56a12.05,12.05,0,0,0-2,3.16c-.13-.15-.32-.27-.38-.44-.38-1.14-.73-2.29-1.12-3.42,0-.15-.3-.23-.45-.34-.13-.3-.25-.61-.37-.92.23-.63-.29-1-.47-1.51-.65-1.85-1.3-3.7-1.92-5.55a14.93,14.93,0,0,1-.44-1.75c-.25-1.16-.39-2.35-.72-3.47a19,19,0,0,1-.77-3c0-.24-.33-.45-.51-.67v-.39a6.09,6.09,0,0,0-.26-2.58c-.37-1.37-.86-2.71-1.26-4.07s-.75-2.89-1.17-4.32c-.25-.84-.59-1.66-.88-2.5s-.46-1.42-.7-2.13a6.54,6.54,0,0,1-.57-2.38,1.25,1.25,0,0,0-.2-.67,4.63,4.63,0,0,1-.63-2.35,1.66,1.66,0,0,0-.16-.88,2.16,2.16,0,0,1-.47-1.31,14.17,14.17,0,0,0-.33-1.7,11.7,11.7,0,0,1-.44-2.29c0-1.48-.77-2.75-.91-4.17,0-.09-.19-.17-.29-.26v-.59a8.85,8.85,0,0,0,.06-1.92,32.56,32.56,0,0,1-1-5c0-.31-.33-.62-.51-.93v-.39a2,2,0,0,0,.14-.58c-.07-1.12-.15-2.25-.25-3.37s-.23-2.31-.37-3.45c-.08-.58-.21-1.14-.33-1.7-.08-.37-.23-.72-.3-1.08-.2-1.18-.42-2.35-.58-3.54-.18-1.42-.77-2.77-.66-4.24a1.81,1.81,0,0,0-.14-.49c-.09-.47-.19-.93-.25-1.4-.09-.78-.13-1.56-.24-2.34,0-.32-.34-.62-.37-.94a18.16,18.16,0,0,0-.37-3.42,28.9,28.9,0,0,1-.47-4.58c-.08-1-.14-2-.22-3a1.36,1.36,0,0,0,0-.41c-.61-1.47-.38-3.05-.5-4.57-.1-1.24-.65-2.42-.37-3.73a6.56,6.56,0,0,0-.14-2.64,14.39,14.39,0,0,1-.19-2.69,14.29,14.29,0,0,1-.15-2.24,12.8,12.8,0,0,0-.11-2.84c-.09-1.6-.44-3.18-.53-4.78s-.51-3.3-.48-5-.37-3.41-.34-5.11-.28-3.59-.35-5.39-.22-3.48-.28-5.22a10.85,10.85,0,0,0-.37-3.45v-1.25a8.13,8.13,0,0,0,.14-1.09q0-8.45,0-16.9a6.74,6.74,0,0,0-.14-1v-1.42c.11-.19.31-.37.32-.57.09-1.91.17-3.83.22-5.74,0-1.31,0-2.61,0-3.91.09-1.85.35-3.68.36-5.52,0-7.66,0-15.32,0-23,0-.41,0-.82.06-1.23,0-.61.07-1.22.1-1.83v-.37a7,7,0,0,0,.45-2.55c.19-1.8.29-3.6.45-5.4.18-2,.4-3.92.61-5.88.11-1,.28-2.09.35-3.14a20.61,20.61,0,0,0-.1-2.22c0-.2,0-.4,0-.59s.29-.24.31-.37c.1-.91.17-1.83.23-2.75.09-1.34.15-2.67.24-4,0-.72.1-1.44.19-2.15a12.33,12.33,0,0,1,.56-3.31c.58-1.34.32-2.78.86-4.09a8.83,8.83,0,0,0,.29-1.28c.18-.76.42-1.51.53-2.28s.15-1.28.26-1.91a3,3,0,0,1,.55-1.72c.09-.09,0-.33,0-.5a5.29,5.29,0,0,1,.15-.69c.15-.48.33-1,.47-1.45a27.87,27.87,0,0,1,.63-3.07,20.62,20.62,0,0,1,.89-2.82c.55-.89.52-1.92,1-2.83a22.8,22.8,0,0,0,1.37-4.06c.18-.56.13-1.26.45-1.7a5,5,0,0,0,.93-1.79,12.59,12.59,0,0,1,.42-1.45c.25-.7.54-1.38.79-2.08a16.36,16.36,0,0,1,1.31-3,2.55,2.55,0,0,0,.64-1.78,1.09,1.09,0,0,1,.05-.17,2.78,2.78,0,0,0,1.38-2,1.21,1.21,0,0,1,.68-1,1.64,1.64,0,0,0,.73-.67,17.56,17.56,0,0,0,.55-1.71c1.12-.74,2.17-.1,3.21-.13a1.09,1.09,0,0,0,1.32.47s.1.09.13.15c.21.53.77.51,1.18.71s1,.33,1.53.52.91.51,1.46.23c.11-.06.35,0,.46.14,1.35,1.16,3.05,1.67,4.59,2.47a40.36,40.36,0,0,1,5.82,3.79,21.71,21.71,0,0,0,2.72,2.14,7.51,7.51,0,0,1,1.76,1.37,6.41,6.41,0,0,0,2.2,1.37h0a2.91,2.91,0,0,0,.44.77c.62.58,1.29,1.11,1.93,1.68.25.22.61.46.66.73A2.28,2.28,0,0,0,159,18.79c.61.48,1.31.84,2,1.27a1,1,0,0,1,.45.53,2.41,2.41,0,0,0,1.69,1.76,1.79,1.79,0,0,1,.57.42,19.64,19.64,0,0,0,3.18,3.33,4,4,0,0,1,.6.69c.82.92,1.63,1.85,2.47,2.75.3.33.69.66,1.17.45a6.54,6.54,0,0,1,2.74-.32c.36,0,.69-.05.84-.44l1.2,0a10,10,0,0,0,3.33.09,11.43,11.43,0,0,1,2.53.13c.44,0,.89,0,1.33,0a18.3,18.3,0,0,1,3.84.16,6,6,0,0,0,1.39-.08h.8c.19.1.38.29.58.31,1.12.1,2.25.15,3.38.23a2.43,2.43,0,0,1,.6.1,7.75,7.75,0,0,0,3.25.73,1.4,1.4,0,0,1,.4.07c1.57.39,3,1.25,4.64,1.4a.57.57,0,0,1,.26.15,2.09,2.09,0,0,0,1.45.44.92.92,0,0,1,.57.17,2.31,2.31,0,0,0,1.2.49,29.2,29.2,0,0,1,2.82,1c.82.33,1,.31,1.72-.34a9,9,0,0,1,1.74-1.55,8.62,8.62,0,0,0,1.51-1.21,5.2,5.2,0,0,0,.84-.7c.42-.55,1.33-.5,1.52-1.29l.42-.41a3.5,3.5,0,0,0,.74-.31c2-1.36,3.62-3.17,5.83-4.26a6.41,6.41,0,0,0,2.57-1.83.79.79,0,0,1,.34-.21c1.2-.58,2.41-1.14,3.6-1.74.6-.31,1.16-.71,1.74-1.07.15-.09.28-.25.43-.28a6.31,6.31,0,0,0,2.27-1.14,7.85,7.85,0,0,1,2.18-1.1c.67-.14,1.31-.31,2-.51s1.51-.39,2.26-.61c.17-.05.29-.23.44-.35l.56-.28a34.6,34.6,0,0,1,6.94-1c.19,0,.37-.22.56-.33l.38,0a1.37,1.37,0,0,0,1.69-.37l.38,0a4.08,4.08,0,0,0,1,0c1.36-.26,1.51-.19,2.14,1.06.22.45.38,1,1,1.14,0,.06,0,.13,0,.19.36,1,1,1.86.87,3a.35.35,0,0,0,.05.2A16.55,16.55,0,0,1,257,23.54c.3,1.56.56,3.13.85,4.69a1.2,1.2,0,0,0,.24.42c0,.19,0,.38,0,.57s.1.66.16,1a18.91,18.91,0,0,1,.39,2.1c.11,1.73.15,3.46.24,5.2a2.16,2.16,0,0,0,.32.67c0,.47,0,1,0,1.42a5.38,5.38,0,0,0-.14,1c0,2.9.13,5.8.21,8.7a2.29,2.29,0,0,0,.23.63c0,.61,0,1.21,0,1.82V58c0,.4,0,.8,0,1.19a8.07,8.07,0,0,0-.44,3c0,.09.09.17.14.26s0,.39,0,.59-.26.17-.28.27c-.1.66-.21,1.32-.25,2a9.1,9.1,0,0,0,.13,1.28V67c-.11.15-.31.29-.33.45-.16,1.59-.29,3.18-.44,4.76-.11,1.18-.28,2.36-.36,3.54a10.74,10.74,0,0,0,.1,1.6c0,.19,0,.39,0,.59s-.3.37-.32.57c-.16,1.46-.29,2.92-.43,4.38-.06.54-.14,1.08-.21,1.62-.12,1-.27,2.1-.36,3.15S256.32,89.79,256.26,90.84ZM243.59,53.77c.76-.77,1.59-1.5,2.28-2.34A10.08,10.08,0,0,0,248,47.28c.23-1,.19-2,.4-2.94.38-1.7,0-3.35-.11-5a8.16,8.16,0,0,0-.79-2.53c-.2-.49-.65-.87-.65-1.48,0-.16-.27-.37-.46-.47-.61-.3-1.24-.57-1.87-.82a1.3,1.3,0,0,0-.67-.13c-1.51.23-3,.45-4.53.75a13.57,13.57,0,0,0-3,.89,17.9,17.9,0,0,0-5.93,4,6.86,6.86,0,0,0-1.64,2.07,9.75,9.75,0,0,1-.35.95,2.17,2.17,0,0,0,.62,2.87,6.75,6.75,0,0,0,2,1,6.63,6.63,0,0,0,3.65.79c.33,0,.67-.07,1.07-.11.17.54.34,1.08.5,1.62a4.62,4.62,0,0,0,.38,1.26,7.17,7.17,0,0,0,3.13,2.74c.73.32,1.62.23,2.26.84.08.07.27,0,.4.05ZM139,36.11a10.4,10.4,0,0,1,1.85.69,3.24,3.24,0,0,0,2.18.22,2.47,2.47,0,0,0,1.86-1,5.67,5.67,0,0,0,1.44-4,4.81,4.81,0,0,0-2.71-4.08,40.23,40.23,0,0,0-4.48-1.72c-.52-.2-1.17-.17-1.45-.82-.05-.11-.3-.14-.45-.2a5.67,5.67,0,0,0-1.24-.46,3.59,3.59,0,0,0-2,0,6.85,6.85,0,0,0-2.22,2,24.13,24.13,0,0,0-3.57,7,10.32,10.32,0,0,0-.19,3.87,3.89,3.89,0,0,0,1.31,2.36,6.28,6.28,0,0,0,2.48,1.35,9.34,9.34,0,0,0,1.9.42,1.36,1.36,0,0,0,1.26-.29,17.14,17.14,0,0,0,2-1.92C137.75,38.43,138.32,37.29,139,36.11ZM156.66,83a11.67,11.67,0,0,0-1.46-5.59,4.64,4.64,0,0,0-1.51-1.89,3.89,3.89,0,0,0-4.29-.08,9.8,9.8,0,0,0-3.86,4.82,21.17,21.17,0,0,0-1,3.86,10.06,10.06,0,0,0-.34,4.16c.25,1.07.32,2.17.6,3.23a4,4,0,0,0,2.84,3.23c.53.14,1,.36,1.58.47a3.37,3.37,0,0,0,2.74-.57,9.19,9.19,0,0,0,3-3.64A20.12,20.12,0,0,0,156.66,83Zm61.43,7.18c0-.59-.12-1.34-.14-2.09a4.52,4.52,0,0,0-2.68-4.17c-.33-.17-.65-.36-1-.55a2.52,2.52,0,0,0-2.18-.31,6.72,6.72,0,0,0-3,2.16,18.67,18.67,0,0,0-3.81,12,7,7,0,0,0,.42,2.2,4.68,4.68,0,0,0,4.12,2.34,16,16,0,0,0,2.55-.77,8,8,0,0,0,3.85-3.87A13.4,13.4,0,0,0,218.09,90.19Z"/><path class="cls-4" d="M287.18,157.48l0-.4a.56.56,0,0,0-.59-.63c-.33-.59-.91-1.07-.85-1.85a.56.56,0,0,0-.58-.63c-.22-.35-.43-.7-.65-1s-.12-.74-.59-.82c-.28-.48-.56-1-.85-1.45a1.22,1.22,0,0,0-.61-1.23l-1.26-2.69-.37-.41-.25-.62-.39-.41-.85-1.44-.39-.42L277.87,142l-.39-.42a1.38,1.38,0,0,1,0-.2,2.27,2.27,0,0,0-1.43-1.66l-.84-1a.57.57,0,0,0-.59-.63l0,0a2.8,2.8,0,0,0-1.66-2l-.2-.21c-.16-.79-.84-1-1.44-1.24l-1-.85a.86.86,0,0,0-.82-.8l-.21,0a3.54,3.54,0,0,0-1.85-1.84l-.22,0a1.69,1.69,0,0,0-1.23-1.22l-.21,0c-.16-.53-.66-.45-1-.59l-1.87-1.48-.61-.58h0c-.32-.6-1-.39-1.45-.62l-.41-.41a2.8,2.8,0,0,1,.56-1.89c.24-.4.45-.81.68-1.21l.22-.41.4-.42a.65.65,0,0,1,0-.2l.39-.43.42-.6.61-.83,1.3-1.85a.58.58,0,0,0,.55-.65c.3-.4.59-.81.88-1.22a.85.85,0,0,0,.78-.83,1.42,1.42,0,0,1,0-.2,1.26,1.26,0,0,0,1-1l1.26-.66a1.29,1.29,0,0,0,1.22-.61l.39,0c.37,0,.74-.1.85-.55l.84-.24c.45.25.66,0,.81-.38l.61-.06.42-.34,1-.29a3,3,0,0,0,.79,0c.55-.15,1.23-.08,1.5-.77l1.44-.46.42-.21h.84l.59-.2c.44,0,.89,0,1-.57l.44,0a2.41,2.41,0,0,0,2.25-.25h.59c1-.06,2-.16,2.95-.18,1.16,0,2.33,0,3.49,0l2.26,0c.07.15.17.43.21.42.55-.1,1.1.36,1.63,0l.43,0c.11.46.3.76.81.39l.43,0c.05.09.07.25.13.27.65.18,1.3.37,2,.49a2.47,2.47,0,0,0,.78-.14l.43,0c.18.18.32.47.53.54,1.12.38,2.25.75,3.41,1,.4.09.72.6,1.21.26l.84,0c.13.19.22.47.4.54,1,.38,1.95.71,2.93,1l.39,0a4.79,4.79,0,0,0,2.07,1.16,2,2,0,0,0,.82-.17H314c.14.21.24.56.61.24l.63.21c.26.53.94.76,1,1.43,0,.06.16.15.25.15a3,3,0,0,1,1.58.58,6.44,6.44,0,0,1,2.58,1.56.38.38,0,0,0,.26.14c.72,0,1,.43,1.32,1a2.68,2.68,0,0,0,.81.76c.64.46,1.28.91,1.95,1.32a11.69,11.69,0,0,1,3.1,2.3c.12.14.36.18.54.27h0c0,.43.09.77.6.81l.24.41a.84.84,0,0,0,.83.83c.07.06.13.13.2.2a1.08,1.08,0,0,0,.59,1.09,4.94,4.94,0,0,1,1.58,1.37c.06.09.32,0,.49.05a.57.57,0,0,1,.65.57,2.26,2.26,0,0,0,1.85,2.09l.2.2a2,2,0,0,0,.19.67c.45.64.92,1.26,1.42,1.86a3.35,3.35,0,0,1,.73,1.19,3.15,3.15,0,0,0,1.58,1.86h0a5.32,5.32,0,0,0,.12.8c.27,1.06,1.24,1.7,1.66,2.69.15.36.49.62.54,1.07a1.74,1.74,0,0,0,.38.72,36.91,36.91,0,0,1,2.85,5.06c.18.36.54.68.59,1.05.14,1,.66,1.93.48,3a.87.87,0,0,0,.54,1.09l.06.62c.17.74.31,1.49.52,2.22.05.19.3.31.46.46s0,.43,0,.64v1c0,.22-.19.49-.11.65a5.72,5.72,0,0,1,.38,1.77,18.86,18.86,0,0,0,.78,2.63c0,.12.24.2.37.29l0,1.88c0,.62-.12,1.24-.11,1.85,0,.14.32.27.5.4,0,.22,0,.43,0,.65a.53.53,0,0,0,0,.78v1.07c0,.06-.11.11-.11.17.08,1.44.51,2.87.19,4.33,0,.06.12.16.18.23v.39c0,.29-.05.59.36.64,0,.14,0,.28,0,.42-.63.32-.38.77-.18,1.22,0,.14,0,.29,0,.43-.48.13-.32.52-.35.83-.07.91-.13,1.81-.19,2.71v.79c-.11.16-.35.35-.32.48.12.55-.25.93-.39,1.39a18.57,18.57,0,0,0-.52,2.35c0,.16.12.36.2.54a.74.74,0,0,1,0,.3,26.62,26.62,0,0,1-1.1,3.34,4,4,0,0,0-.51,1.63,6.22,6.22,0,0,1-.49,1.76c-.51,1.37-.88,2.8-1.48,4.13a15.31,15.31,0,0,1-2.22,4,9.29,9.29,0,0,0-.72,1.12,20.29,20.29,0,0,1-1.59,2.36,11.41,11.41,0,0,0-2.46,3.87c-.39,1.24-1.44,2-1.84,3.14a.86.86,0,0,1-.35.36,11.94,11.94,0,0,0-2.88,3.05,4.52,4.52,0,0,1-1,.86,31.11,31.11,0,0,0-3.5,3.85,15.59,15.59,0,0,1-3.7,3.41,1.9,1.9,0,0,0-.53.49,4.61,4.61,0,0,1-3,1.94.73.73,0,0,0-.29.11,18.83,18.83,0,0,1-3.78,1.76,32.34,32.34,0,0,1-4.42,1.49,17.05,17.05,0,0,1-4.37.32,26,26,0,0,1-6.06-.84c-2-.42-3.95-1-5.94-1.42.1-.93.2-1.86.31-2.79,0-.24.15-.51.08-.7-.4-1.08.14-2.1.11-3.16a8.51,8.51,0,0,1,.15-1.21c.07-.69.26-.82.91-.76.84.09,1.68.12,2.52.15a1,1,0,0,0,.5-.11,12.48,12.48,0,0,1,2.86-.95,21.13,21.13,0,0,0,2.14-.91c1.16-.55,2.31-1.13,3.46-1.71a8.49,8.49,0,0,0,1-.65,18.7,18.7,0,0,0,2.75-1.94,18.4,18.4,0,0,1,1.68-1.15A76,76,0,0,0,322.5,205c1.16-1.25,2.09-2.7,3.13-4.06.23-.3.48-.58.73-.86a25.61,25.61,0,0,0,2.5-4.45,66,66,0,0,0,3-7.14,27,27,0,0,0,.88-3.26,24.47,24.47,0,0,0,.86-4.82c.07-1.11.36-2.22.48-3.33a11.27,11.27,0,0,0-.08-1.42c0-1,0-2.06,0-3.09a21.9,21.9,0,0,0-1.13-6.85.8.8,0,0,1-.09-.39,3.66,3.66,0,0,0-.48-2.06,42.78,42.78,0,0,0-1.73-3.92,25.71,25.71,0,0,0-1.46-2.32c-.86-1.31-1.68-2.64-2.59-3.91a9.38,9.38,0,0,0-2.19-2.55,1.75,1.75,0,0,1-.56-.59,13.38,13.38,0,0,0-3.39-4.08,4.77,4.77,0,0,0-3.49-1.64c-.4-.65-.87-.77-1.22-.26a2.64,2.64,0,0,0-.6,1.35,32.28,32.28,0,0,1-.8,5c-.24,1.76.42,3.36.37,5,.48.41.09,1,.3,1.44a12.27,12.27,0,0,0,2.71,3.66,9.51,9.51,0,0,0,2.6,1.36,7.82,7.82,0,0,0,1.36.38l1.49.83c-.43.39-.85.79-1.28,1.17a14,14,0,0,1-2.8,1.57,4.62,4.62,0,0,1-2.64.6c-.12,0-.25.1-.38.13a6.61,6.61,0,0,1-1.07.24c-.51,0-1,0-1.54,0a3.87,3.87,0,0,0-1.24.42c-.33.18-.23.47,0,.66a.88.88,0,0,0,.48.12c2.2,0,4.4.11,6.51-.77a9.54,9.54,0,0,0,3.85-2.4c.37-.44.7-.92,1-1.39.53.15,1.06.28,1.57.45a1.19,1.19,0,0,1,.93,1.09c0,.58.09,1.19-.64,1.44l-.59-.9c-.25.59-.52,1.18-.75,1.78a4.38,4.38,0,0,0-.17.89,5.8,5.8,0,0,1-.14,1.2c-.51,1.32-1.09,2.62-1.65,3.93a19.84,19.84,0,0,1-1.87,3.33c-.66,1-1.33,1.91-2,2.82-.37.47-.9.81-1.27,1.27a7.85,7.85,0,0,1-1.86,1.73,8.91,8.91,0,0,0-.88.86,6.94,6.94,0,0,1-.93.79c-1.18.75-2.37,1.48-3.57,2.2a12.82,12.82,0,0,1-2.39,1.28,15,15,0,0,1-3.06,1,35.24,35.24,0,0,0-4.17.91l-.69.15a8.32,8.32,0,0,1-1.08.23c-.52.05-1,0-1.55,0l-.22-.24a6.92,6.92,0,0,0,0-1c0-.15-.23-.27-.36-.41s0-.28,0-.42c.1-.49.16-1-.39-1.23l-.24-.84c.44-.9,0-1.74-.2-2.6,0,0-.12,0-.18-.07,0-.21,0-.42,0-.63.25-.4.39-.78-.2-1,0-.35,0-.69,0-1l.3-.2-.3-.21,0-.4c0-.54.08-1.15-.57-1.45,0-.22,0-.43,0-.64a2.87,2.87,0,0,0-.6-2.46l0-.62L294,174l-.21-1.23c-.07-.28-.14-.55-.2-.83l-.4-.84c.29-.66.26-.72-.39-1,0-.21,0-.42,0-.63s.13-.19.11-.26c-.18-.79-.36-1.58-.58-2.37-.05-.17-.24-.3-.37-.45l-.22-.41c0-.29,0-.6-.39-.62a1.49,1.49,0,0,1,0-.21c0-.32.14-.74-.38-.83l0,0c-.08-.49.21-1.08-.4-1.41-.39-.67-1.14-1.16-1.05-2.07l-.38-.41c-.22-.41-.44-.82-.65-1.24,0-.29,0-.59-.39-.62l-.44-.62Z"/><path class="cls-4" d="M219.88,268.17a5.06,5.06,0,0,0,1.49-.32,14.26,14.26,0,0,1,4.13-1.14c1-.21,1.94-.38,2.91-.56a2.79,2.79,0,0,1,.4-.07c1.27-.07,2.54-.05,3.79-.23,1.89-.28,3.72.36,5.6.23,1.14.66,2.51.16,3.69.73.4.2,1,0,1.41.18,1.36.42,2.72.87,4,1.39,1.88.73,3.76,1.46,5.58,2.32a24.71,24.71,0,0,1,2.8,1.81s0,.07.07.07c1,.24,1.64,1.16,2.54,1.62a30.63,30.63,0,0,1,3.4,2.12c.95.66,1.81,1.44,2.72,2.17a.57.57,0,0,1,0,.18l-.4.36L263,280.31l-.36.4-.25.44-.38.38-1.08,1.28-.36.4a10.72,10.72,0,0,1-.67.84c-.49.51-1,1-1.53,1.47a6.41,6.41,0,0,1-.91.58l-.4.37-1,.46a.83.83,0,0,0-.83.78l-.23,0-.39.35-.84.07c-.29.05-.66,0-.85.18a2.65,2.65,0,0,1-1.27.51c-.38.09-.92.08-1,.69l-.45,0c-.31-.25-.34,0-.38.21l-.23,0-.4.37,0,0a3.63,3.63,0,0,0-2,1,13.73,13.73,0,0,1-1.36.37,11.72,11.72,0,0,1-1.33.09,3.89,3.89,0,0,1-1.1.18,25.84,25.84,0,0,1-3.05.06c-.3-.06-.67.23-1,.36l-3.13.18a1.38,1.38,0,0,0-1.4,0l-.44,0c0-.36-.26-.61-.6-.53s-.69-.14-1-.24a2.81,2.81,0,0,0-.68-.4,3,3,0,0,1-1.94-1.72,5.24,5.24,0,0,1-.65-2.53c.1-1.23.61-2.43.83-3.66.18-1.05,1-1.79,1.21-2.8a1.55,1.55,0,0,1,.32-.51c.5-.69,1-1.4,1.51-2.05a19,19,0,0,1,2.43-2.63,11.81,11.81,0,0,1,3.43-2.19,9.2,9.2,0,0,0,1.78-1.1c-.43-.66-.66-.75-1.19-.51s-1,.48-1.45.76a7.34,7.34,0,0,1-1.56.92,4.92,4.92,0,0,0-1.9,1.32,32.41,32.41,0,0,0-2.61,3,15.58,15.58,0,0,0-2.28,3.46,15.36,15.36,0,0,0-1.44,3.81,5,5,0,0,0-.19,1.35,12.64,12.64,0,0,0,.18,2.36,3.07,3.07,0,0,0,1.29,2.27c.12.07.15.29.22.44l0,.24c-.43-.07-.86-.16-1.29-.19-1.5-.12-2.8-1-4.29-1.09a2.17,2.17,0,0,1-1.22-.64c-.37-.35-.63-.72-1.2-.43-.05,0-.18-.15-.28-.23.25-.28.13-.47-.12-.68a8.74,8.74,0,0,1-1.34-1.31,5.67,5.67,0,0,1-1-3.33,7.07,7.07,0,0,0,0-1c-.34-1.65.35-3.14.76-4.66a4.78,4.78,0,0,1,.65-1.37c.62-1,1.27-1.93,1.95-2.87a15.16,15.16,0,0,1,2.41-2.72c.93-.79,1.79-1.67,2.72-2.54l-.34-.41a8.68,8.68,0,0,0-.86.41,8.19,8.19,0,0,0-1.52,1,28.7,28.7,0,0,0-2,2.16,20.13,20.13,0,0,0-4,5.87,15.74,15.74,0,0,0-.94,4.06,8.63,8.63,0,0,0,1.65,6.41c-.64-.22-1.29-.42-1.92-.67a15.82,15.82,0,0,1-2.21-1,23.15,23.15,0,0,1-2-1.56c-.4-.31-.8-.6-1.23-.92a27.71,27.71,0,0,1-2.45,2.65c-1.19,1-2,2.36-3.42,3.2a20.94,20.94,0,0,0-3.56,2.89,19.4,19.4,0,0,1-2.71,1.62,17.88,17.88,0,0,1-3.56,1.7c-.88.37-1.81.68-2.72,1a18.43,18.43,0,0,1-2.49.59c-.07,0-.17-.08-.25-.13a.85.85,0,0,0,0-.94,9.84,9.84,0,0,1-1.2-3.46,12.85,12.85,0,0,1-.09-3.72,30.31,30.31,0,0,1,1.3-6.12,3,3,0,0,0,.1-.52l-.17-.11a3.54,3.54,0,0,0-.51.59c-.5,1-1,2-1.45,3a9,9,0,0,0-.42,1.24,10.87,10.87,0,0,0-.26,3.55,11.31,11.31,0,0,0,.66,4,3.44,3.44,0,0,1,.38.94,1.81,1.81,0,0,0,1.28,1.56c-.41.6-1.1.51-1.65.53-1.47.06-2.94-.05-4.41-.07-.54,0-1.08.05-1.62.09,0-.45-.17-.64-.58-.82a8.09,8.09,0,0,1-4.76-7.61,12.71,12.71,0,0,1,.29-2.12,5.79,5.79,0,0,1,.22-1.2c.44-1.17,1-2.32,1.39-3.49a4,4,0,0,0,.14-.93l-.21-.09a2.77,2.77,0,0,0-.55.53,28.15,28.15,0,0,0-1.48,2.69,9.62,9.62,0,0,0-1,3,11.08,11.08,0,0,0,.3,4.68,6.34,6.34,0,0,0,2.2,3.36c.16.12.21.39.3.59-2-.74-3.79-2-5.92-2.56-.56-.14-1-.73-1.51-1.11.57-.15.49-.51.24-.85a11.66,11.66,0,0,1-.92-1.1,5,5,0,0,1-.35-4.32c.3-.79.73-1.53,1-2.31a11.75,11.75,0,0,1,3.22-4.77A28.18,28.18,0,0,0,178,276a40.48,40.48,0,0,0,3.63-2.07,6.17,6.17,0,0,1,3.27-1,22.69,22.69,0,0,0,5.89-1.27,2.38,2.38,0,0,1,.68-.19,25,25,0,0,1,5.53.29c1.86.42,3.75.72,5.6,1.17a23.76,23.76,0,0,1,3,1.1c.61.23,1.19.52,1.79.75,1.68.62,2.64,2,3.58,3.4a2.23,2.23,0,0,1,.25.78c.24,1.26.46,2.53.69,3.8,0,.09.11.17.16.26s0,.31.09.62c.27-.24.5-.36.59-.55.18-.39.25-.83.44-1.22.65-1.38,1.31-2.75,2-4.12s1.53-2.95,2.27-4.43C218.24,271.6,219.05,269.88,219.88,268.17Z"/><path class="cls-4" d="M134.17,285.28a12.05,12.05,0,0,1,2-3.16c1.35-1.21,2.79-2.32,4.11-3.56a10.93,10.93,0,0,1,4.22-2.22c.8-.26,1.56-.67,2.35-1a12.84,12.84,0,0,1,5.22-1.25,48.27,48.27,0,0,0,5,0,12.23,12.23,0,0,1,4.28.82c1.3.41,2.59.86,3.88,1.28.1,0,.21.05.3.09,1.36.71,2.73,1.4,4.07,2.14a5.28,5.28,0,0,1,1.05,1c.52.54,1,1.1,1.54,1.63.08.09.25.09.37.14a9.4,9.4,0,0,0-.92,1.28c-.58,1.19-1.13,2.39-1.6,3.61a20,20,0,0,0-.68,2.44.49.49,0,0,0,0,.29,9.32,9.32,0,0,0,1.11,2.69l-.62.8-1.25.61-1.17-.66-1.92.48a5.51,5.51,0,0,0,1.26-3.58,11.22,11.22,0,0,1,0-1.64,10.49,10.49,0,0,0-.85-3.55,5.45,5.45,0,0,0-1.44-2c-.86-1-1.71-1.91-2.57-2.87a1.23,1.23,0,0,0-1.48-.3c.16.61.25.75.62,1a2.6,2.6,0,0,1,.51.32c.52.58,1.05,1.15,1.52,1.77a12.08,12.08,0,0,1,1.56,2.25,10.41,10.41,0,0,1,.66,2.72,8.5,8.5,0,0,1,.06,2.52,4,4,0,0,1-1.11,2.44,14.73,14.73,0,0,1-2.53,2.46c-.1.06-.08.31-.12.47l-.22.59-.83,0a1.5,1.5,0,0,0-1.92-.72,5.46,5.46,0,0,1-2.32.33,3.71,3.71,0,0,0-1.11.12,5.34,5.34,0,0,1-3,.15.88.88,0,0,0-.74.17c-.35.49-.73.37-1.18.21a3.57,3.57,0,0,0-1.2-.25c-1.2,0-1.93-1.25-3.16-1.1-.08,0-.17-.2-.28-.28a2.25,2.25,0,0,0-.6-.38c-.94-.32-1.89-.6-2.84-.9l-.8,0-.45-.37-.37,0c-.05-.25-.1-.49-.41-.2l-.62-.43a2,2,0,0,0-1.45-1l-.41-.24a.58.58,0,0,0-.64-.58,12,12,0,0,1-2.68-2.88c0-.29,0-.6-.38-.63l-.28-.6Zm14.09-5.54c-.59.27-.43.62-.26,1,.47.94.91,1.91,1.42,2.83.83,1.53.74,3.37,1.67,4.86,0,.07,0,.2,0,.3s0,.38,0,.57a3.69,3.69,0,0,1,.07.87,11.32,11.32,0,0,1-1.15,3.76,1.56,1.56,0,0,0-.13.8c0,.38.34.51.67.31a1.43,1.43,0,0,0,.42-.43,5.53,5.53,0,0,0,1.17-3.21,4.17,4.17,0,0,1,.08-.71,5.76,5.76,0,0,0-.7-4.42c-.08-.12-.2-.25-.19-.36a5.52,5.52,0,0,0-.66-2.13,20.6,20.6,0,0,0-2.07-3.73A1.54,1.54,0,0,0,148.26,279.74Z"/><path class="cls-5" d="M170.51,291.47a9.32,9.32,0,0,1-1.11-2.69.49.49,0,0,1,0-.29,20,20,0,0,1,.68-2.44c.47-1.22,1-2.42,1.6-3.61a9.4,9.4,0,0,1,.92-1.28,9.1,9.1,0,0,0-.42-1,28.79,28.79,0,0,1-2.07-5.28,23.83,23.83,0,0,1-.85-3.11,23.77,23.77,0,0,0-.83-2.51,9.24,9.24,0,0,0-.78-2.09,2.53,2.53,0,0,1-.22-.88,16.32,16.32,0,0,1-.62-3.11c0-.38-.31-.75-.39-1.14-.36-1.73-.68-3.47-1-5.21-.22-1-.53-2-.74-3-.14-.7-.16-1.42-.28-2.13-.23-1.48-.5-3-.75-4.44,0-.27,0-.55-.08-.82-.07-.45-.16-.91-.26-1.52.22-.26.1-.6,0-1.11a13.07,13.07,0,0,1-.43-3.74,15.3,15.3,0,0,0-.11-1.81c0-.75-.18-1.5-.19-2.24,0-2.86,0-5.72,0-8.57,0-1.87.09-3.75.22-5.61a12.55,12.55,0,0,1,.68-3.07,3,3,0,0,1,.12.52c.07,3.74.15,7.48.19,11.22,0,.75-.11,1.5-.16,2.25a4.16,4.16,0,0,0,0,.61c0,.44.12.88.14,1.32q.12,3.13.22,6.27a.79.79,0,0,0,0,.31c.58.87.33,1.86.39,2.8a1.23,1.23,0,0,0,0,.51,7.58,7.58,0,0,1,.46,3.27c.05.78.36,1.54.38,2.32a4.34,4.34,0,0,0,.49,2,1.78,1.78,0,0,1,.08.7,3.86,3.86,0,0,0,.29,1.59,7.78,7.78,0,0,1,.32,1.9,33.79,33.79,0,0,0,1.15,5.28c-.31.77.39,1.38.35,2.15a5.54,5.54,0,0,0,.44,1.77c.38,1.26.78,2.51,1.18,3.76.31,1,.65,1.92.94,2.88s.46,1.76.71,2.63c.11.35.28.69.41,1,.41,1.1.78,2.21,1.23,3.3.29.71.72.75,1.21.21a7.94,7.94,0,0,1,1.2-1.19c.83-.58.93-1.64,1.65-2.28.41-1.85,1.59-3.42,1.78-5.36a10.25,10.25,0,0,1,.84-2.27c.15-.41.23-.84.36-1.25s.37-1.1.56-1.65a3.84,3.84,0,0,0,.25-.77c.07-1.31.73-2.47.85-3.76a1.5,1.5,0,0,1,.15-.38,6.4,6.4,0,0,0,.57-2,16.87,16.87,0,0,1,.54-3.39c.33-1.16.31-2.39.65-3.5a12.38,12.38,0,0,0,.34-3.12c0-.17,0-.39,0-.51.53-.71.29-1.52.37-2.29.14-1.35.33-2.71.49-4.06a8.52,8.52,0,0,0,.12-1.12,9.65,9.65,0,0,1,.36-3.25,2.86,2.86,0,0,0,.06-.93,19.69,19.69,0,0,1,.08-4.14c.61-2.67.2-5.34.32-8,.08-1.91.05-3.83,0-5.75,0-3.84,0-7.68,0-11.52a.7.7,0,0,1,.27-.55,2.74,2.74,0,0,1,.13.62,39.92,39.92,0,0,1,.43,4.09c0,.57.19,1.15.18,1.72a4.61,4.61,0,0,0,.19,2.21.44.44,0,0,1,0,.3c-.4,1.44,0,2.85.14,4.27a1.27,1.27,0,0,1-.1.5,6.94,6.94,0,0,0-.1,2.61c0,.47-.15,1-.12,1.41.12,1.54,0,3.07,0,4.6,0,2.44-.12,4.87-.2,7.3a6,6,0,0,1-.1.61c-.1.95-.2,1.9-.31,2.85-.15,1.41-.31,2.83-.46,4.24-.05.44-.12.88-.15,1.32a4.45,4.45,0,0,1-.28,1.59,4.64,4.64,0,0,0-.14,1.72c0,.55.09,1.11-.31,1.58a.39.39,0,0,0-.09.29c.2,1.39-.34,2.71-.44,4.07a20.6,20.6,0,0,1-.42,2.3c-.2,1-.37,2.06-.63,3.07-.43,1.68-.88,3.36-1.43,5-.42,1.29-.67,2.62-1,3.92s-.78,2.52-1.19,3.77c-.2.61-.42,1.22-.66,1.82a2.22,2.22,0,0,1-.44.78A1.31,1.31,0,0,0,178,276a28.18,28.18,0,0,1-2.85,3.43,11.75,11.75,0,0,0-3.22,4.77c-.25.78-.68,1.52-1,2.31a5,5,0,0,0,.35,4.32,11.66,11.66,0,0,0,.92,1.1c.25.34.33.7-.24.85l-1.17-.72C170.67,291.86,170.59,291.66,170.51,291.47Z"/><path class="cls-6" d="M109,141.17a10.85,10.85,0,0,1,.37,3.45c.06,1.74.21,3.48.28,5.22s.38,3.58.35,5.39.36,3.41.34,5.11.39,3.33.48,5,.44,3.18.53,4.78a12.8,12.8,0,0,1,.11,2.84,14.29,14.29,0,0,0,.15,2.24,14.39,14.39,0,0,0,.19,2.69,6.56,6.56,0,0,1,.14,2.64c-.28,1.31.27,2.49.37,3.73.12,1.52-.11,3.1.5,4.57a1.36,1.36,0,0,1,0,.41c.08,1,.14,2,.22,3a28.9,28.9,0,0,0,.47,4.58,18.16,18.16,0,0,1,.37,3.42c0,.32.32.62.37.94.11.78.15,1.56.24,2.34.06.47.16.93.25,1.4a1.81,1.81,0,0,1,.14.49c-.11,1.47.48,2.82.66,4.24.16,1.19.38,2.36.58,3.54.07.36.22.71.3,1.08.12.56.25,1.12.33,1.7.14,1.14.26,2.3.37,3.45s.18,2.25.25,3.37a2,2,0,0,1-.14.58c-.15-.79-.35-1.57-.44-2.36a4.31,4.31,0,0,0-.33-2s0-.06,0-.09c.22-1-.24-2-.17-3a2.57,2.57,0,0,0-.14-1.1c-.45-1.23-.43-2.57-.84-3.78-.49-1.44-.25-3-.93-4.38a2.06,2.06,0,0,1,0-.71,2.21,2.21,0,0,0,0-.82c-.54-1.1-.21-2.28-.39-3.41a18,18,0,0,0-.45-1.75c0-.13-.14-.29-.1-.39.37-.92-.08-1.74-.24-2.61s-.14-1.77-.24-2.65c-.13-1.08-.3-2.16-.46-3.24,0-.27-.2-.57-.12-.79a3.84,3.84,0,0,0-.26-2.5,1.3,1.3,0,0,1-.14-.48c.35-1.8-.29-3.52-.42-5.27-.07-1.06,0-2.13,0-3.2a2.39,2.39,0,0,0-.29-1.58,1.58,1.58,0,0,1-.11-.8c0-1.14,0-2.27,0-3.41s-.25-2.51-.36-3.77-.17-2.6-.26-3.89c0-.45-.11-.88-.16-1.33-.09-.74-.18-1.49-.24-2.24a2.67,2.67,0,0,0-.29-1.48,1.14,1.14,0,0,1-.1-.8c.3-1.75-.34-3.45-.26-5.2,0-.9-.12-1.81-.16-2.73-.09-2.26-.15-4.52-.23-6.78,0-1-.12-2.05-.16-3.08A1.77,1.77,0,0,1,109,141.17Z"/><path class="cls-7" d="M230,291.23c-.07-.15-.1-.37-.22-.44a3.07,3.07,0,0,1-1.29-2.27,12.64,12.64,0,0,1-.18-2.36,5,5,0,0,1,.19-1.35,15.36,15.36,0,0,1,1.44-3.81,15.58,15.58,0,0,1,2.28-3.46,32.41,32.41,0,0,1,2.61-3,4.92,4.92,0,0,1,1.9-1.32,7.34,7.34,0,0,0,1.56-.92c.48-.28,1-.53,1.45-.76s.76-.15,1.19.51a9.2,9.2,0,0,1-1.78,1.1,11.81,11.81,0,0,0-3.43,2.19,19,19,0,0,0-2.43,2.63c-.54.65-1,1.36-1.51,2.05a1.55,1.55,0,0,0-.32.51c-.23,1-1,1.75-1.21,2.8-.22,1.23-.73,2.43-.83,3.66a5.24,5.24,0,0,0,.65,2.53,3,3,0,0,0,1.94,1.72,2.81,2.81,0,0,1,.68.4l-.44.43-1.8-.56Z"/><path class="cls-6" d="M125.07,6.54a2.55,2.55,0,0,1-.64,1.78,16.36,16.36,0,0,0-1.31,3c-.25.7-.54,1.38-.79,2.08a12.59,12.59,0,0,0-.42,1.45,5,5,0,0,1-.93,1.79c-.32.44-.27,1.14-.45,1.7a22.8,22.8,0,0,1-1.37,4.06c-.5.91-.47,1.94-1,2.83a20.62,20.62,0,0,0-.89,2.82,27.87,27.87,0,0,0-.63,3.07c-.14.49-.32,1-.47,1.45a5.29,5.29,0,0,0-.15.69c0,.17,0,.41,0,.5a3,3,0,0,0-.55,1.72c-.11.63-.17,1.27-.26,1.91s-.35,1.52-.53,2.28a8.83,8.83,0,0,1-.29,1.28c-.54,1.31-.28,2.75-.86,4.09a12.33,12.33,0,0,0-.56,3.31c-.09.71-.14,1.43-.19,2.15-.09,1.33-.15,2.66-.24,4-.06.92-.13,1.84-.23,2.75,0,.13-.21.25-.31.37,0-.89.07-1.78.1-2.66,0-.41,0-.82.07-1.23.11-1.26.25-2.52.35-3.78a7.93,7.93,0,0,0,0-1.54,13.31,13.31,0,0,1,.6-3.82c.1-.5.16-1,.24-1.51l.3-1.6c.16-.83.33-1.67.49-2.5.23-1.17.45-2.34.69-3.5a18.09,18.09,0,0,1,.64-2.66,12.7,12.7,0,0,0,.69-2.11,40,40,0,0,1,1.18-4.86c.37-1.1.68-2.21,1-3.33a1.09,1.09,0,0,1,.21-.46c.75-.65.75-1.58,1-2.42.15-.56.35-1.1.52-1.65.12-.36.23-.71.34-1.07,0-.13,0-.31.1-.39,1-1,.74-2.56,1.63-3.64a4,4,0,0,0,.52-1.72A6.72,6.72,0,0,1,124,8.2,12.64,12.64,0,0,0,124.68,7,2.16,2.16,0,0,1,125.07,6.54Z"/><path class="cls-8" d="M219.7,287.89a8.63,8.63,0,0,1-1.65-6.41,15.74,15.74,0,0,1,.94-4.06,20.13,20.13,0,0,1,4-5.87,28.7,28.7,0,0,1,2-2.16,8.19,8.19,0,0,1,1.52-1,8.68,8.68,0,0,1,.86-.41l.34.41c-.93.87-1.79,1.75-2.72,2.54a15.16,15.16,0,0,0-2.41,2.72c-.68.94-1.33,1.9-1.95,2.87a4.78,4.78,0,0,0-.65,1.37c-.41,1.52-1.1,3-.76,4.66a7.07,7.07,0,0,1,0,1,5.67,5.67,0,0,0,1,3.33,8.74,8.74,0,0,0,1.34,1.31c.25.21.37.4.12.68l-.39-.06c-.11-.24-.24-.27-.41-.05Z"/><path class="cls-8" d="M179.36,296.44c-.09-.2-.14-.47-.3-.59a6.34,6.34,0,0,1-2.2-3.36,11.08,11.08,0,0,1-.3-4.68,9.62,9.62,0,0,1,1-3,28.15,28.15,0,0,1,1.48-2.69,2.77,2.77,0,0,1,.55-.53l.21.09a4,4,0,0,1-.14.93c-.44,1.17-1,2.32-1.39,3.49a5.79,5.79,0,0,0-.22,1.2,12.71,12.71,0,0,0-.29,2.12,8.09,8.09,0,0,0,4.76,7.61c.41.18.62.37.58.82a3.27,3.27,0,0,1-2.06-.45A17.52,17.52,0,0,1,179.36,296.44Z"/><path class="cls-6" d="M154.84,14.17a6.41,6.41,0,0,1-2.2-1.37,7.51,7.51,0,0,0-1.76-1.37,21.71,21.71,0,0,1-2.72-2.14,40.36,40.36,0,0,0-5.82-3.79c-1.54-.8-3.24-1.31-4.59-2.47-.11-.1-.35-.2-.46-.14-.55.28-1-.06-1.46-.23s-1.05-.29-1.53-.52-1-.18-1.18-.71c0-.06-.11-.16-.13-.15a1.09,1.09,0,0,1-1.32-.47c-1,0-2.09-.61-3.21.13a17.56,17.56,0,0,1-.55,1.71,1.64,1.64,0,0,1-.73.67,1.21,1.21,0,0,0-.68,1,2.78,2.78,0,0,1-1.38,2c.17-.33.3-.67.5-1s.58-.8.42-1.41c-.13-.45.34-.74.71-.87a.89.89,0,0,0,.66-.8,6.39,6.39,0,0,1,.41-1.26.69.69,0,0,1,.29-.4c.89-.4,1.73-1,2.79-.41a5,5,0,0,0,1.74.51,1.87,1.87,0,0,1,1.15.58,2.85,2.85,0,0,0,.8.45c.41.17.83.31,1.24.46a4,4,0,0,0,1.47.28,3.51,3.51,0,0,1,1.78.64A8.17,8.17,0,0,0,140.8,4a7.27,7.27,0,0,1,2.69,1.42,4.24,4.24,0,0,0,.89.49,11.3,11.3,0,0,1,1.91,1.13,11.31,11.31,0,0,0,2.87,2.14,1.48,1.48,0,0,1,.27.16l2.82,2.38c.75.64,1.52,1.27,2.27,1.92A2,2,0,0,1,154.84,14.17Z"/><path class="cls-9" d="M190.77,297.3a1.81,1.81,0,0,1-1.28-1.56,3.44,3.44,0,0,0-.38-.94,11.31,11.31,0,0,1-.66-4,10.87,10.87,0,0,1,.26-3.55,9,9,0,0,1,.42-1.24c.46-1,1-2,1.45-3a3.54,3.54,0,0,1,.51-.59l.17.11a3,3,0,0,1-.1.52,30.31,30.31,0,0,0-1.3,6.12,12.85,12.85,0,0,0,.09,3.72,9.84,9.84,0,0,0,1.2,3.46.85.85,0,0,1,0,.94Z"/><path class="cls-6" d="M110.17,77.74c0,.61-.07,1.22-.1,1.83,0,.41-.06.82-.06,1.23,0,7.66,0,15.32,0,23,0,1.84-.27,3.67-.36,5.52-.06,1.3,0,2.6,0,3.91,0,1.91-.13,3.83-.22,5.74,0,.2-.21.38-.32.57a39.44,39.44,0,0,1,.11-6c.15-1.21,0-2.47.07-3.7.08-1.77.24-3.55.35-5.32,0-.37,0-.75,0-1.13,0-7.79,0-15.59,0-23.38a12.55,12.55,0,0,1,.23-1.93C109.88,78,110.06,77.86,110.17,77.74Z"/><path class="cls-6" d="M118.75,232.18c.1.09.28.17.29.26.14,1.42.93,2.69.91,4.17a11.7,11.7,0,0,0,.44,2.29,14.17,14.17,0,0,1,.33,1.7,2.16,2.16,0,0,0,.47,1.31,1.66,1.66,0,0,1,.16.88,4.63,4.63,0,0,0,.63,2.35,1.25,1.25,0,0,1,.2.67,6.54,6.54,0,0,0,.57,2.38c.24.71.46,1.42.7,2.13s.63,1.66.88,2.5c.42,1.43.76,2.89,1.17,4.32s.89,2.7,1.26,4.07a6.09,6.09,0,0,1,.26,2.58,5.17,5.17,0,0,1-.44-.88c-.27-1-.47-2-.74-3-.33-1.15-.74-2.27-1-3.42s-.45-2.12-.74-3.17c-.17-.65-.47-1.27-.7-1.91-.15-.42-.28-.84-.42-1.26-.23-.71-.48-1.41-.69-2.13-.17-.55-.3-1.12-.45-1.68-.24-.88-.47-1.77-.75-2.65-.52-1.69-.76-3.45-1.13-5.17-.29-1.32-.54-2.64-.83-4A5.33,5.33,0,0,1,118.75,232.18Z"/><path class="cls-10" d="M142.2,292.72c1,.3,1.9.58,2.84.9a2.25,2.25,0,0,1,.6.38c.11.08.2.29.28.28,1.23-.15,2,1.14,3.16,1.1a3.57,3.57,0,0,1,1.2.25c.45.16.83.28,1.18-.21a.88.88,0,0,1,.74-.17,5.34,5.34,0,0,0,3-.15,3.71,3.71,0,0,1,1.11-.12,5.46,5.46,0,0,0,2.32-.33,1.5,1.5,0,0,1,1.92.72c-.18.14-.38.41-.54.39-1-.15-1.78.37-2.67.53a13,13,0,0,1-4.45,0,1.19,1.19,0,0,0-.4-.08c-1.54.2-2.95-.43-4.42-.68a16.69,16.69,0,0,1-2.42-.72.75.75,0,0,1-.35-.19,4.88,4.88,0,0,0-2.47-1.36C142.61,293.19,142.42,292.91,142.2,292.72Z"/><path class="cls-6" d="M215.54,29.5c-.19.79-1.1.74-1.52,1.29a5.2,5.2,0,0,1-.84.7,8.62,8.62,0,0,1-1.51,1.21,9,9,0,0,0-1.74,1.55c-.67.65-.9.67-1.72.34a29.2,29.2,0,0,0-2.82-1,2.31,2.31,0,0,1-1.2-.49.92.92,0,0,0-.57-.17,2.09,2.09,0,0,1-1.45-.44.57.57,0,0,0-.26-.15c-1.65-.15-3.07-1-4.64-1.4a1.4,1.4,0,0,0-.4-.07,7.75,7.75,0,0,1-3.25-.73,2.43,2.43,0,0,0-.6-.1c-1.13-.08-2.26-.13-3.38-.23-.2,0-.39-.21-.58-.31a3.27,3.27,0,0,1,1.07-.23c1.42.16,2.84.39,4.25.61a1.32,1.32,0,0,1,.59.18c.63.47,1.37.3,2.05.44,1.09.21,2.15.59,3.21.9a3,3,0,0,0,.87.29,4.4,4.4,0,0,1,2.15.54,9.48,9.48,0,0,0,1.88.72c.74.24,1.5.42,2.25.64a6.3,6.3,0,0,1,1.15.42.79.79,0,0,0,1.09-.2,11.32,11.32,0,0,1,1.1-1.09c.3-.24.68-.39,1-.62a3.64,3.64,0,0,0,.87-.68,7.55,7.55,0,0,1,1.15-1.11A8.9,8.9,0,0,1,215.54,29.5Z"/><path class="cls-6" d="M174.64,29.23c-.15.39-.48.44-.84.44a6.54,6.54,0,0,0-2.74.32c-.48.21-.87-.12-1.17-.45-.84-.9-1.65-1.83-2.47-2.75a4,4,0,0,0-.6-.69,19.64,19.64,0,0,1-3.18-3.33,1.79,1.79,0,0,0-.57-.42,2.41,2.41,0,0,1-1.69-1.76,1,1,0,0,0-.45-.53c-.65-.43-1.35-.79-2-1.27a2.28,2.28,0,0,1-1.09-1.43c0-.27-.41-.51-.66-.73-.64-.57-1.31-1.1-1.93-1.68a2.91,2.91,0,0,1-.44-.77c.71.56,1.46,1.1,2.14,1.71a9.87,9.87,0,0,1,1.66,1.75,9.31,9.31,0,0,0,2.31,2A3,3,0,0,1,162.27,21a1.06,1.06,0,0,0,.44.55,12.69,12.69,0,0,1,2.51,2.23,34.14,34.14,0,0,1,2.78,3c.66.74,1.31,1.49,1.94,2.26.47.58,1.07.49,1.69.4.81-.13,1.62-.25,2.43-.34A1.88,1.88,0,0,1,174.64,29.23Z"/><path class="cls-6" d="M240.32,15.68c-.15.12-.27.3-.44.35-.75.22-1.51.39-2.26.61s-1.29.37-2,.51a7.85,7.85,0,0,0-2.18,1.1,6.31,6.31,0,0,1-2.27,1.14c-.15,0-.28.19-.43.28-.58.36-1.14.76-1.74,1.07-1.19.6-2.4,1.16-3.6,1.74a.79.79,0,0,0-.34.21,6.41,6.41,0,0,1-2.57,1.83c-2.21,1.09-3.85,2.9-5.83,4.26a3.5,3.5,0,0,1-.74.31,3.74,3.74,0,0,1,1.39-1.43c1-.84,2.08-1.67,3.17-2.43s2-1.2,2.95-1.79c.15-.09.37-.11.46-.23.78-1,2-1.32,3.07-2,.54-.34,1.19-.51,1.75-.82s1.27-.79,1.9-1.2a2.19,2.19,0,0,1,.42-.28c1.39-.37,2.47-1.32,3.76-1.87a13.11,13.11,0,0,1,1.26-.38,10.57,10.57,0,0,0,1.45-.45A5,5,0,0,1,240.32,15.68Z"/><path class="cls-11" d="M328.64,124.45c-.18-.09-.42-.13-.54-.27a11.69,11.69,0,0,0-3.1-2.3c-.67-.41-1.31-.86-1.95-1.32a2.68,2.68,0,0,1-.81-.76c-.32-.53-.6-1-1.32-1a.38.38,0,0,1-.26-.14,6.44,6.44,0,0,0-2.58-1.56,3,3,0,0,0-1.58-.58c-.09,0-.25-.09-.25-.15-.07-.67-.75-.9-1-1.43l2.23,1.21c1,.54,2,1.06,2.92,1.65,1.13.69,2.24,1.41,3.31,2.2s1.77,1.58,2.73,2.27a9.14,9.14,0,0,1,1.82,1.45A5.13,5.13,0,0,1,328.64,124.45Z"/><path class="cls-6" d="M111.93,58.18a20.61,20.61,0,0,1,.1,2.22c-.07,1.05-.24,2.09-.35,3.14-.21,2-.43,3.92-.61,5.88-.16,1.8-.26,3.6-.45,5.4a7,7,0,0,1-.45,2.55,11,11,0,0,1-.12-1.71c.15-1.53.4-3,.57-4.58.11-1,.14-2,.24-3,.18-1.73.38-3.46.57-5.2,0-.34,0-.68,0-1,.08-1.12.15-2.25.25-3.38C111.73,58.39,111.86,58.29,111.93,58.18Z"/><path class="cls-11" d="M347,153.14a.87.87,0,0,1-.54-1.09c.18-1.07-.34-2-.48-3-.05-.37-.41-.69-.59-1.05a36.91,36.91,0,0,0-2.85-5.06,1.74,1.74,0,0,1-.38-.72c-.05-.45-.39-.71-.54-1.07-.42-1-1.39-1.63-1.66-2.69a5.32,5.32,0,0,1-.12-.8c.43.05.46.43.6.73a3.36,3.36,0,0,0,.68,1.22,4.8,4.8,0,0,1,1.45,2.19,11,11,0,0,0,1.4,2.59,18.77,18.77,0,0,1,2.22,4.14c.28.76.53,1.53.8,2.3a.28.28,0,0,1,0,.2C346.62,151.73,347,152.44,347,153.14Z"/><path class="cls-6" d="M109.05,120.94a6.74,6.74,0,0,1,.14,1q0,8.46,0,16.9a8.13,8.13,0,0,1-.14,1.09,3.29,3.29,0,0,1-.23-.84q0-8.66,0-17.3A3.32,3.32,0,0,1,109.05,120.94Z"/><path class="cls-6" d="M127,264.18c.18.22.48.43.51.67a19,19,0,0,0,.77,3c.33,1.12.47,2.31.72,3.47a14.93,14.93,0,0,0,.44,1.75c.62,1.85,1.27,3.7,1.92,5.55.18.5.7.88.47,1.51a3.09,3.09,0,0,1-1-1.74c-.57-1.6-1.12-3.22-1.61-4.85-.36-1.17-.58-2.37-.88-3.56-.18-.69-.4-1.36-.57-2.06-.3-1.15-.57-2.31-.85-3.47A1.08,1.08,0,0,1,127,264.18Z"/><path class="cls-10" d="M165.55,292.7l1.92-.48,1.17.66a2.1,2.1,0,0,1-1.42.87,6.46,6.46,0,0,0-1.38.61,3.18,3.18,0,0,1-.43.25c-1,.27-2,.53-3.07.75a3.56,3.56,0,0,1-.92,0c.08-.2.15-.39.22-.59.79,0,1.62.21,2.3-.4.06-.06.2,0,.3,0a2,2,0,0,0,.6,0,1.09,1.09,0,0,0,.64-.35c.18-.33-.09-.55-.38-.68Z"/><path class="cls-6" d="M258.1,28.65a1.2,1.2,0,0,1-.24-.42c-.29-1.56-.55-3.13-.85-4.69a16.55,16.55,0,0,0-1.15-4.31.35.35,0,0,1-.05-.2c.12-1.1-.51-2-.87-3,.43,0,.6.3.73.62a11.89,11.89,0,0,1,.62,1.73c.46,1.94.87,3.9,1.29,5.85.2.93.43,1.85.56,2.79A9.42,9.42,0,0,1,258.1,28.65Z"/><path class="cls-6" d="M188.26,29.54a6,6,0,0,1-1.39.08,18.3,18.3,0,0,0-3.84-.16c-.44,0-.89,0-1.33,0a11.43,11.43,0,0,0-2.53-.13,10,10,0,0,1-3.33-.09c.29-.54.77-.38,1.17-.26a3.2,3.2,0,0,0,1.68-.1,5.71,5.71,0,0,1,2.4,0,4.61,4.61,0,0,0,2.3.1,1.82,1.82,0,0,1,.61-.07c1.35.14,2.69.29,4,.46C188.12,29.35,188.19,29.47,188.26,29.54Z"/><path class="cls-6" d="M256.26,90.84c.06-1,.1-2.11.2-3.16s.24-2.1.36-3.15c.07-.54.15-1.08.21-1.62.14-1.46.27-2.92.43-4.38,0-.2.21-.38.32-.57-.08,1.36-.14,2.72-.24,4.08-.08,1.12-.22,2.23-.34,3.35,0,.44-.11.88-.17,1.32-.15,1.15-.28,2.3-.45,3.44A2.86,2.86,0,0,1,256.26,90.84Z"/><path class="cls-6" d="M256,123a3.58,3.58,0,0,1-2.31-.67,3.14,3.14,0,0,0-1.26-.36c-.23,0-.48,0-.72,0-.65-.12-1-.4-.86-1a8.69,8.69,0,0,1,.53-3.19,7.24,7.24,0,0,0,.28-1.09,1.82,1.82,0,0,1,.34-.46,2.87,2.87,0,0,1-.34,2,2,2,0,0,0-.22.67c-.08.57-.15,1.14-.21,1.72-.08.77.11,1,.88,1,1.39,0,2.53.73,3.77,1.18C255.94,122.74,256,122.9,256,123Z"/><path class="cls-6" d="M259.54,49.91a2.29,2.29,0,0,1-.23-.63c-.08-2.9-.16-5.8-.21-8.7a5.38,5.38,0,0,1,.14-1,1.61,1.61,0,0,1,.22.53c.09,1.84.17,3.68.22,5.52,0,1.09,0,2.18,0,3.28A8.29,8.29,0,0,1,259.54,49.91Z"/><path class="cls-6" d="M257.79,77.37a10.74,10.74,0,0,1-.1-1.6c.08-1.18.25-2.36.36-3.54.15-1.58.28-3.17.44-4.76,0-.16.22-.3.33-.45,0,.67-.07,1.35-.11,2a.3.3,0,0,1,0,.1c-.15,1.83-.29,3.65-.45,5.48-.07.84-.16,1.68-.26,2.52C258,77.22,257.86,77.29,257.79,77.37Z"/><path class="cls-6" d="M117.3,223.72c.18.31.5.62.51.93a32.56,32.56,0,0,0,1,5,8.85,8.85,0,0,1-.06,1.92c-.15-.33-.44-.66-.42-1a21.89,21.89,0,0,0-.63-3.79C117.58,225.79,117.43,224.75,117.3,223.72Z"/><path class="cls-6" d="M259.22,38.18a2.16,2.16,0,0,1-.32-.67c-.09-1.74-.13-3.47-.24-5.2a18.91,18.91,0,0,0-.39-2.1c-.06-.33-.11-.66-.16-1a2,2,0,0,1,.73,1.61c.12.88.18,1.77.24,2.65.08,1.26.14,2.52.2,3.78C259.29,37.57,259.24,37.88,259.22,38.18Z"/><path class="cls-6" d="M248.38,14.05c-.19.11-.37.33-.56.33a34.6,34.6,0,0,0-6.94,1,1.91,1.91,0,0,1,1.47-.75,33.17,33.17,0,0,1,3.3-.47C246.56,14.09,247.47,14.09,248.38,14.05Z"/><path class="cls-6" d="M255.21,98.27c.13-1.21.25-2.42.39-3.63.11-.94.26-1.87.41-2.81a1.34,1.34,0,0,1,.23-.42c.43.85-.09,1.66-.12,2.49a28.57,28.57,0,0,1-.37,2.91C255.67,97.33,255.76,97.92,255.21,98.27Z"/><path class="cls-11" d="M339.8,137.66a3.15,3.15,0,0,1-1.58-1.86,3.35,3.35,0,0,0-.73-1.19c-.5-.6-1-1.22-1.42-1.86a2,2,0,0,1-.19-.67c.12.06.28.09.36.18a17.66,17.66,0,0,1,1.92,2.52,19.78,19.78,0,0,0,1.53,2.49A1.18,1.18,0,0,1,339.8,137.66Z"/><path class="cls-6" d="M254.9,15.88c-.57-.17-.73-.69-1-1.14-.63-1.25-.78-1.32-2.14-1.06a4.08,4.08,0,0,1-1,0c2.17-1.13,3.3-.28,3.91,1.46C254.82,15.34,254.84,15.62,254.9,15.88Z"/><path class="cls-11" d="M291.92,108.54c-1.16,0-2.33,0-3.49,0-1,0-2,.12-2.95.18.23-.55.75-.56,1.2-.57,1.54,0,3.08,0,4.62,0C291.6,108.15,291.86,108.19,291.92,108.54Z"/><path class="cls-6" d="M259.56,58V51.73c.11.19.31.38.31.57q0,2.56,0,5.13C259.87,57.63,259.67,57.82,259.56,58Z"/><path class="cls-6" d="M253.77,106.73a27.25,27.25,0,0,1,.83-5.6c0-.1.18-.17.28-.26-.12.83-.23,1.66-.35,2.5s-.25,1.87-.41,2.8C254.09,106.37,253.89,106.55,253.77,106.73Z"/><path class="cls-11" d="M261.56,123c-.23.4-.44.81-.68,1.21a2.8,2.8,0,0,0-.56,1.89c-.57-.36-1.15-.7-1.69-1.08a2,2,0,0,1-.38-.56l1.44.67c.4-.54.79-1.08,1.21-1.58A4.38,4.38,0,0,1,261.56,123Z"/><path class="cls-6" d="M252.43,114.12c0-.13-.1-.26-.07-.37a18.76,18.76,0,0,0,.76-4.47c0-.19.2-.38.31-.56a8.36,8.36,0,0,1-.24,3.3c-.11.53-.2,1.06-.35,1.57C252.78,113.79,252.57,113.94,252.43,114.12Z"/><path class="cls-11" d="M348.7,187c-.08-.18-.23-.38-.2-.54a18.57,18.57,0,0,1,.52-2.35c.14-.46.51-.84.39-1.39,0-.13.21-.32.32-.48a4.33,4.33,0,0,1,0,1.24c-.27,1.13-.63,2.24-1,3.36C348.8,186.91,348.74,187,348.7,187Z"/><path class="cls-10" d="M134.17,285.28l-.46.43c-.11-.15-.31-.29-.33-.45a7.51,7.51,0,0,0-.85-2.92,5.58,5.58,0,0,1-.31-1.25c.15.1.4.18.45.33.39,1.13.74,2.28,1.12,3.42C133.85,285,134,285.13,134.17,285.28Z"/><path class="cls-11" d="M349.45,163.46c-.13-.09-.33-.17-.37-.29a18.86,18.86,0,0,1-.78-2.63,5.72,5.72,0,0,0-.38-1.77c-.08-.16.07-.43.11-.65a13.31,13.31,0,0,1,.55,1.49C348.89,160.89,349.16,162.18,349.45,163.46Z"/><path class="cls-12" d="M239.27,292.28c.34-.13.71-.42,1-.36a25.84,25.84,0,0,0,3.05-.06,3.89,3.89,0,0,0,1.1-.18c-.25.59-.81.61-1.29.56-1-.08-1.94.33-2.93,0A3.69,3.69,0,0,0,239.27,292.28Z"/><path class="cls-11" d="M306.14,111.88c-.49.34-.81-.17-1.21-.26-1.16-.27-2.29-.64-3.41-1-.21-.07-.35-.36-.53-.54,1.43.45,2.85.89,4.27,1.36A5.28,5.28,0,0,1,306.14,111.88Z"/><path class="cls-11" d="M350.14,174.82c-.06-.07-.19-.17-.18-.23.32-1.46-.11-2.89-.19-4.33,0-.06.07-.11.11-.17s.14.08.15.13A7.25,7.25,0,0,1,350.14,174.82Z"/><path class="cls-11" d="M333.18,129.22c-.17,0-.43,0-.49-.05a4.94,4.94,0,0,0-1.58-1.37,1.08,1.08,0,0,1-.59-1.09c1,.05,1.24,1,1.89,1.45A4,4,0,0,1,333.18,129.22Z"/><path class="cls-11" d="M335.68,131.88a2.26,2.26,0,0,1-1.85-2.09A3.45,3.45,0,0,1,335.68,131.88Z"/><path class="cls-6" d="M258.82,66.63a9.1,9.1,0,0,1-.13-1.28c0-.67.15-1.33.25-2,0-.1.18-.18.28-.27A7.89,7.89,0,0,1,258.82,66.63Z"/><path class="cls-11" d="M310.31,113.49c-1-.34-2-.67-2.93-1-.18-.07-.27-.35-.4-.54,1,.37,1.92.72,2.86,1.11C310,113.09,310.16,113.33,310.31,113.49Z"/><path class="cls-6" d="M259.24,62.5c-.05-.09-.13-.17-.14-.26a8.07,8.07,0,0,1,.44-3A4.65,4.65,0,0,1,259.24,62.5Z"/><path class="cls-11" d="M349.73,181.46c.06-.9.12-1.8.19-2.71,0-.31-.13-.7.35-.83,0,.91,0,1.82.05,2.73A.7.7,0,0,1,349.73,181.46Z"/><path class="cls-11" d="M313.59,114.52a2,2,0,0,1-.82.17,4.79,4.79,0,0,1-2.07-1.16,1.92,1.92,0,0,1,1.73.54C312.69,114.35,313.2,114.38,313.59,114.52Z"/><path class="cls-12" d="M250.63,289.55c0-.61.58-.6,1-.69a2.65,2.65,0,0,0,1.27-.51c.19-.16.56-.13.85-.18-.28.56-.87.7-1.36.92A10.88,10.88,0,0,1,250.63,289.55Z"/><path class="cls-11" d="M300.56,110a2.47,2.47,0,0,1-.78.14c-.66-.12-1.31-.31-2-.49-.06,0-.08-.18-.13-.27A8.34,8.34,0,0,1,300.56,110Z"/><path class="cls-11" d="M349.87,167.59c-.18-.13-.5-.26-.5-.4,0-.61.07-1.23.11-1.85A4.07,4.07,0,0,1,349.87,167.59Z"/><path class="cls-11" d="M348,156.44c-.16-.15-.41-.27-.46-.46-.21-.73-.35-1.48-.52-2.22a2.56,2.56,0,0,1,.5.66C347.73,155.08,347.86,155.77,348,156.44Z"/><path class="cls-11" d="M284.89,108.74a2.41,2.41,0,0,1-2.25.25A3.36,3.36,0,0,1,284.89,108.74Z"/><path class="cls-12" d="M232.24,292.1l.44-.43c.33.1.61.34,1,.24s.56.17.6.53Z"/><path class="cls-11" d="M296,109c-.53.38-1.08-.08-1.63,0,0,0-.14-.27-.21-.42A2.28,2.28,0,0,1,296,109Z"/><path class="cls-11" d="M277.87,110.45c-.27.69-.95.62-1.5.77a3,3,0,0,1-.79,0c.1-.12.19-.32.32-.35C276.55,110.71,277.21,110.58,277.87,110.45Z"/><path class="cls-6" d="M254.9,100.49a2,2,0,0,1,.3-1.85A1.67,1.67,0,0,1,254.9,100.49Z"/><path class="cls-11" d="M257.86,124.22c-.62-.31-1.39-.41-1.69-1.18A2.14,2.14,0,0,1,257.86,124.22Z"/><path class="cls-6" d="M250.45,13.66a1.37,1.37,0,0,1-1.69.37A1.85,1.85,0,0,1,250.45,13.66Z"/><path class="cls-12" d="M247.12,291.22a3.63,3.63,0,0,1,2-1A3.23,3.23,0,0,1,247.12,291.22Z"/><path class="cls-10" d="M138.1,290.64a2,2,0,0,1,1.45,1A1.85,1.85,0,0,1,138.1,290.64Z"/><path class="cls-12" d="M234.74,292.47a1.38,1.38,0,0,1,1.4,0A1,1,0,0,1,234.74,292.47Z"/><path class="cls-6" d="M252,115.77c-.32-.56-.07-.94.37-1.28A1.32,1.32,0,0,1,252,115.77Z"/><path class="cls-11" d="M268.16,114.39a1.26,1.26,0,0,1-1,1A1.05,1.05,0,0,1,268.16,114.39Z"/><path class="cls-11" d="M350.31,177.49c-.2-.45-.45-.9.18-1.22C350.48,176.68,350.71,177.13,350.31,177.49Z"/><path class="cls-11" d="M270.64,113.12a1.29,1.29,0,0,1-1.22.61C269.66,113.21,270.19,113.25,270.64,113.12Z"/><path class="cls-6" d="M253.48,108.13c-.35-.45,0-.73.26-1C254.08,107.56,253.75,107.84,253.48,108.13Z"/><path class="cls-10" d="M170.51,291.47c.08.19.16.39.25.58l-.87.22Z"/><path class="cls-11" d="M330.32,126.51a.84.84,0,0,1-.83-.83A1,1,0,0,1,330.32,126.51Z"/><path class="cls-12" d="M255.17,287.71a.83.83,0,0,1,.83-.78A.9.9,0,0,1,255.17,287.71Z"/><path class="cls-11" d="M282.2,109c-.15.54-.6.55-1,.57C281.32,109,281.8,109.1,282.2,109Z"/><path class="cls-11" d="M267.13,115.56a.85.85,0,0,1-.78.83A.83.83,0,0,1,267.13,115.56Z"/><path class="cls-11" d="M297.26,109.4c-.51.37-.7.07-.81-.39Z"/><path class="cls-11" d="M271.88,112.53c-.11.45-.48.5-.85.55A.63.63,0,0,1,271.88,112.53Z"/><path class="cls-11" d="M263.62,120.11l-.61.83C263,120.51,263.11,120.16,263.62,120.11Z"/><path class="cls-11" d="M273.53,111.91c-.15.37-.36.63-.81.38Z"/><path class="cls-11" d="M329.25,125.27c-.51,0-.6-.38-.6-.81Z"/><path class="cls-11" d="M349.88,169a.53.53,0,0,1,0-.78C350.2,168.5,350.21,168.76,349.88,169Z"/><path class="cls-4" d="M269.78,275.91c.17-.46.55-.32.89-.31C270.52,276.12,270.13,276,269.78,275.91Z"/><path class="cls-11" d="M265.47,117.61a.58.58,0,0,1-.55.65C264.87,117.84,265.13,117.69,265.47,117.61Z"/><path class="cls-11" d="M314.61,114.77c-.37.32-.47,0-.61-.24C314.35,114.21,314.46,114.53,314.61,114.77Z"/><path class="cls-10" d="M137.05,289.82a.58.58,0,0,1,.64.58C137.29,290.42,137.11,290.18,137.05,289.82Z"/><path class="cls-11" d="M348,157.67v-.59C348.31,157.28,348.31,157.47,348,157.67Z"/><path class="cls-10" d="M134,286.31c.42,0,.39.34.38.63C134,286.89,134,286.61,134,286.31Z"/><path class="cls-4" d="M266.9,277.38c.09-.39.38-.37.68-.33C267.49,277.44,267.21,277.44,266.9,277.38Z"/><path class="cls-4" d="M266.1,277.84c0-.43.33-.42.64-.39C266.69,277.84,266.39,277.84,266.1,277.84Z"/><path class="cls-11" d="M350.5,175.85c-.41,0-.37-.35-.36-.64C350.51,175.28,350.55,175.54,350.5,175.85Z"/><path class="cls-11" d="M262.18,122.17l-.4.42Z"/><path class="cls-12" d="M260.53,283.21l.36-.4Z"/><path class="cls-12" d="M257,286.47l.4-.37Z"/><path class="cls-12" d="M262,281.53l.38-.38C262.22,281.28,262.09,281.4,262,281.53Z"/><path class="cls-12" d="M254.55,288.1l.39-.35Z"/><path class="cls-12" d="M262.6,280.71l.36-.4Z"/><path class="cls-4" d="M220.89,288.78c.17-.22.3-.19.41.05Z"/><path class="cls-12" d="M249.8,289.78c0-.22.07-.46.38-.21Z"/><path class="cls-12" d="M249.17,290.19l.4-.37Z"/><path class="cls-12" d="M264,279l.4-.36Z"/><path class="cls-11" d="M262.59,121.54l-.39.43Z"/><path class="cls-12" d="M230,291.23l.45.31-.47-.07Z"/><path class="cls-10" d="M140.17,292.07c.31-.29.36-.05.41.2Z"/><path class="cls-10" d="M141,292.31l.45.37Z"/><path class="cls-11" d="M274.56,111.51l-.42.34Z"/><path class="cls-11" d="M279.73,109.78l-.42.21C279.36,109.75,279.41,109.5,279.73,109.78Z"/><path class="cls-11" d="M280.57,109.78h-.45l.23-.3Z"/><path class="cls-4" d="M296.09,229.37l.28-.5Z"/><path class="cls-13" d="M168.05,126.11c-.44.06-.88.15-1.32.18a11.06,11.06,0,0,1-3.86-.77,20.14,20.14,0,0,1-2.37-.94c-.34-.14-.66-.33-1-.5a1.74,1.74,0,0,0-.45-.23,6.64,6.64,0,0,1-4-2.59c-.56-.73-1.17-1.43-1.72-2.16a4,4,0,0,1-.78-2.08,15.15,15.15,0,0,0-.37-2.32,9.42,9.42,0,0,1,.49-5.62,19.46,19.46,0,0,1,2.84-5.07,14.39,14.39,0,0,0,1.11-2c.55-1,1.08-2,1.66-3a10.23,10.23,0,0,1,.82-1.05,17.79,17.79,0,0,1,2.37-3,.4.4,0,0,0,.14-.15c.34-1,1.25-1.69,1.84-2.55a11.67,11.67,0,0,1,2.76-2.89,4,4,0,0,0,.37-.35c.85-.85,1.68-1.71,2.55-2.52.47-.43,1.18-.69,1.49-1.19a8.25,8.25,0,0,1,2.45-2.44c1.11-.77,2.11-1.7,3.29-2.37a11.08,11.08,0,0,1,7-1.46,8.71,8.71,0,0,1,4.5,2.12l1.63,1.42a53.8,53.8,0,0,1,4.37,5,23.58,23.58,0,0,1,3.26,5.67c1.73,3.53,3.39,7.1,5.08,10.65.41.87.93,1.69,1.25,2.59a24.45,24.45,0,0,1,.89,3.36c.35,1.7.68,3.41.9,5.13a22.15,22.15,0,0,1,0,3.05,3.26,3.26,0,0,1-.08.82,6.22,6.22,0,0,1-.37,1c-.09.22-.29.4-.36.62a12.55,12.55,0,0,1-2.24,3.64c-.47.63-.95,1.25-1.47,1.84a6.57,6.57,0,0,1-3.4,2.16c-.78.19-1.5.62-2.28.88a12.77,12.77,0,0,1-2,.49,8.82,8.82,0,0,1-1.63.14,3.81,3.81,0,0,1-1-.17c-1-.24-1.91-.5-2.87-.76-1.05-.5-2.07-1-3.15-1.47a17,17,0,0,1-3.61-1.89,23.05,23.05,0,0,0-2.12-1.19c-.51-.68-.6-.72-1.18-.44a4.72,4.72,0,0,0-.88.2c-.91.4-1.79.88-2.7,1.27a8.93,8.93,0,0,1-4.08.81C169.29,126.06,168.67,126.1,168.05,126.11Zm13.5-31.62A13.19,13.19,0,0,0,175.1,96a1.79,1.79,0,0,0-1,2.47,7.17,7.17,0,0,0,2.79,3.7,12,12,0,0,0,6.25,2.37,6,6,0,0,0,3.51-.56c1-.53,1.88-1.12,2.8-1.72a4.83,4.83,0,0,0,1.06-1,2.74,2.74,0,0,0,.31-2.89,9.05,9.05,0,0,0-2.4-2.08A14,14,0,0,0,181.55,94.49Z"/><path class="cls-14" d="M243.59,53.77l-1.26-.14c-.13,0-.32,0-.4-.05-.64-.61-1.53-.52-2.26-.84A7.17,7.17,0,0,1,236.54,50a4.62,4.62,0,0,1-.38-1.26c-.16-.54-.33-1.08-.5-1.62-.4,0-.74.06-1.07.11a6.63,6.63,0,0,1-3.65-.79,6.75,6.75,0,0,1-2-1,2.17,2.17,0,0,1-.62-2.87,9.75,9.75,0,0,0,.35-.95,6.86,6.86,0,0,1,1.64-2.07,17.9,17.9,0,0,1,5.93-4,13.57,13.57,0,0,1,3-.89c1.5-.3,3-.52,4.53-.75a1.3,1.3,0,0,1,.67.13c.63.25,1.26.52,1.87.82.19.1.46.31.46.47,0,.61.45,1,.65,1.48a8.16,8.16,0,0,1,.79,2.53c.07,1.66.49,3.31.11,5-.21.95-.17,1.95-.4,2.94a10.08,10.08,0,0,1-2.13,4.15C245.18,52.27,244.35,53,243.59,53.77Z"/><path class="cls-14" d="M139,36.11c-.71,1.18-1.28,2.32-2,3.32a17.14,17.14,0,0,1-2,1.92,1.36,1.36,0,0,1-1.26.29,9.34,9.34,0,0,1-1.9-.42,6.28,6.28,0,0,1-2.48-1.35,3.89,3.89,0,0,1-1.31-2.36,10.32,10.32,0,0,1,.19-3.87,24.13,24.13,0,0,1,3.57-7,6.85,6.85,0,0,1,2.22-2,3.59,3.59,0,0,1,2,0,5.67,5.67,0,0,1,1.24.46c.15.06.4.09.45.2.28.65.93.62,1.45.82a40.23,40.23,0,0,1,4.48,1.72A4.81,4.81,0,0,1,146.36,32a5.67,5.67,0,0,1-1.44,4,2.47,2.47,0,0,1-1.86,1,3.24,3.24,0,0,1-2.18-.22A10.4,10.4,0,0,0,139,36.11Z"/><path class="cls-15" d="M156.66,83a20.12,20.12,0,0,1-1.79,8,9.19,9.19,0,0,1-3,3.64,3.37,3.37,0,0,1-2.74.57c-.54-.11-1-.33-1.58-.47a4,4,0,0,1-2.84-3.23c-.28-1.06-.35-2.16-.6-3.23a10.06,10.06,0,0,1,.34-4.16,21.17,21.17,0,0,1,1-3.86,9.8,9.8,0,0,1,3.86-4.82,3.89,3.89,0,0,1,4.29.08,4.64,4.64,0,0,1,1.51,1.89A11.67,11.67,0,0,1,156.66,83Z"/><path class="cls-16" d="M218.09,90.19a13.4,13.4,0,0,1-1.8,6.94,8,8,0,0,1-3.85,3.87,16,16,0,0,1-2.55.77,4.68,4.68,0,0,1-4.12-2.34,7,7,0,0,1-.42-2.2,18.67,18.67,0,0,1,3.81-12,6.72,6.72,0,0,1,3-2.16,2.52,2.52,0,0,1,2.18.31c.33.19.65.38,1,.55A4.52,4.52,0,0,1,218,88.1C218,88.85,218.05,89.6,218.09,90.19Z"/><path class="cls-17" d="M219.88,268.17c-.83,1.71-1.64,3.43-2.49,5.14-.74,1.48-1.53,2.95-2.27,4.43s-1.35,2.74-2,4.12c-.19.39-.26.83-.44,1.22-.09.19-.32.31-.59.55-.05-.31-.07-.47-.09-.62.19-.51.39-1,.55-1.53.23-.75.45-1.5.61-2.26a2.74,2.74,0,0,1,.65-1.25,5.18,5.18,0,0,0,.5-1.09c.81-1.57,1.61-3.13,2.44-4.69.52-1,1.11-1.95,1.61-2.95a14.73,14.73,0,0,0,.65-1.83c.24-.71.47-1.42.7-2.13.3-.94.6-1.87.91-2.81s.65-1.93.95-2.91a14,14,0,0,0,.71-2.65c.12-1.18.67-2.21.85-3.35.12-.69.51-1.33.69-2,.42-1.58.89-3.16,1.15-4.77.41-2.54,1-5,1.64-7.51.58-2.25,1-4.53,1.5-6.8.37-1.73.69-3.48,1.08-5.2.17-.73.46-1.42.68-2.13a5.43,5.43,0,0,0,.1-.81,10.9,10.9,0,0,1,.21-1.52c.2-.79.29-1.61.47-2.39.41-1.74.68-3.51,1.14-5.24.33-1.28.42-2.63.67-3.93.28-1.48.61-2.94.91-4.41a5.44,5.44,0,0,0,.11-.81,6.51,6.51,0,0,1,.32-1.88,18.93,18.93,0,0,0,.51-3.13c.07-.42.23-.84.3-1.26.12-.81.21-1.62.32-2.44,0-.29.12-.59.18-.88a10.34,10.34,0,0,0,.22-1.08,13.93,13.93,0,0,1,.34-2.38,26,26,0,0,0,.49-3.54c.11-.88.21-1.76.32-2.64s.2-1.76.31-2.64c0-.34.11-.68.15-1,.12-.94.2-1.89.35-2.83.11-.76.29-1.51.45-2.34.41.27.27.64.28.94,0,1.09,0,2.18,0,3.27v2.06a3.14,3.14,0,0,1,0,.62c-.57,2-.49,4-.8,6.07,0,.23-.1.46-.15.69a8.22,8.22,0,0,0-.24,1.2,17,17,0,0,1-.27,3.21c-.36,1.18-.14,2.39-.43,3.51s-.35,2.21-.63,3.3c-.17.65-.14,1.37-.36,2-.54,1.49-.47,3.08-.92,4.59a27.44,27.44,0,0,0-.52,3.54,5.36,5.36,0,0,1-.46,1.85c-.52.89-.29,1.87-.53,2.79-.32,1.25-.44,2.56-.68,3.83s-.53,2.52-.81,3.77c-.12.52-.3,1-.41,1.55-.43,1.9-.83,3.81-1.28,5.7-.14.58-.42,1.13-.6,1.71s-.25,1-.37,1.53-.29,1.19-.42,1.79c-.08.4-.14.8-.2,1.21s-.13.8-.2,1.21c0,.1-.08.19-.09.29a15.64,15.64,0,0,1-.75,3.37c-.22.87-.45,1.74-.65,2.63-.07.35,0,.72-.08,1.07-.15.69-.33,1.38-.54,2.06-.43,1.42-.9,2.83-1.32,4.25-.13.42-.08.89-.2,1.31-.25.88-.59,1.74-.84,2.61a11.77,11.77,0,0,0-.47,2.08,11.38,11.38,0,0,1-.88,2.58c-.2.61-.38,1.22-.59,1.82-.34,1-.66,2-1.07,2.94C220.05,267.34,219.77,267.68,219.88,268.17Z"/><path class="cls-18" d="M297.29,189.91c.52,0,1,0,1.55,0a8.32,8.32,0,0,0,1.08-.23l.69-.15a35.24,35.24,0,0,1,4.17-.91,15,15,0,0,0,3.06-1,12.82,12.82,0,0,0,2.39-1.28c1.2-.72,2.39-1.45,3.57-2.2a6.94,6.94,0,0,0,.93-.79,8.91,8.91,0,0,1,.88-.86,7.85,7.85,0,0,0,1.86-1.73c.37-.46.9-.8,1.27-1.27.71-.91,1.38-1.86,2-2.82a19.84,19.84,0,0,0,1.87-3.33c.56-1.31,1.14-2.61,1.65-3.93a5.8,5.8,0,0,0,.14-1.2,4.38,4.38,0,0,1,.17-.89c.23-.6.5-1.19.75-1.78l.59.9a3.77,3.77,0,0,0-.38,1.21,10.88,10.88,0,0,1-1,4.1,33.53,33.53,0,0,1-1.43,3.32c-.48,1-1.08,1.9-1.62,2.85a14.85,14.85,0,0,1-3,3.69c-.87.77-1.63,1.66-2.49,2.44a19.67,19.67,0,0,1-1.94,1.46c-1,.68-2,1.34-2.95,2-.54.35-1.11.65-1.67,1a4.17,4.17,0,0,0-.8.12c-1,.36-2,.78-3,1.11a29.55,29.55,0,0,1-8.14,1.27Z"/><path class="cls-19" d="M321.63,162.22a7.82,7.82,0,0,1-1.36-.38,9.51,9.51,0,0,1-2.6-1.36,12.27,12.27,0,0,1-2.71-3.66c-.21-.44.18-1-.3-1.44,0-1.68-.61-3.28-.37-5a32.28,32.28,0,0,0,.8-5,2.64,2.64,0,0,1,.6-1.35c.35-.51.82-.39,1.22.26a20.19,20.19,0,0,0-1.42,4.55,2.48,2.48,0,0,0-.05.72,24.3,24.3,0,0,0,.23,4.26,5,5,0,0,0,.69,3.21,27.92,27.92,0,0,0,2.8,3.19h0l.41.4c.52.36,1.06.7,1.57,1.08A3.07,3.07,0,0,1,321.63,162.22Z"/><path class="cls-20" d="M324.09,163.43c-.34.47-.67.95-1,1.39a9.54,9.54,0,0,1-3.85,2.4c-2.11.88-4.31.78-6.51.77a.88.88,0,0,1-.48-.12c-.27-.19-.37-.48,0-.66a3.87,3.87,0,0,1,1.24-.42c.51-.07,1,0,1.54,0a6.61,6.61,0,0,0,1.07-.24c.13,0,.26-.14.38-.13a4.62,4.62,0,0,0,2.64-.6,14,14,0,0,0,2.8-1.57c.43-.38.85-.78,1.28-1.17a2.49,2.49,0,0,0,.37-.09C324,162.73,324.13,163,324.09,163.43Z"/><path class="cls-21" d="M297.5,190.94a29.55,29.55,0,0,0,8.14-1.27c1-.33,2-.75,3-1.11a4.17,4.17,0,0,1,.8-.12,6.86,6.86,0,0,1-2.91,1.61c-1.41.55-2.87,1-4.33,1.44a10.1,10.1,0,0,1-1.91.26c-.58.05-1.17,0-1.74.09C297.81,191.94,297.66,191.84,297.5,190.94Z"/><path class="cls-22" d="M319.16,160.17a27.92,27.92,0,0,1-2.8-3.19,5,5,0,0,1-.69-3.21c.12.09.31.16.36.29a3.06,3.06,0,0,1,.22.89c.1,1.3,1,2.18,1.64,3.2.3.49.75.88,1.09,1.35A2.19,2.19,0,0,1,319.16,160.17Z"/><path class="cls-11" d="M291.92,166.36c.13.15.32.28.37.45.22.79.4,1.58.58,2.37,0,.07-.07.17-.11.26A5.78,5.78,0,0,1,291.92,166.36Z"/><path class="cls-11" d="M267.35,131.05a3.54,3.54,0,0,1,1.85,1.84A3.34,3.34,0,0,1,267.35,131.05Z"/><path class="cls-11" d="M272.91,136a2.8,2.8,0,0,1,1.66,2A4.79,4.79,0,0,1,272.91,136Z"/><path class="cls-11" d="M295.67,183.08c.06,0,.17,0,.18.07.22.86.64,1.7.2,2.6C295.92,184.86,295.8,184,295.67,183.08Z"/><path class="cls-11" d="M294.22,175a2.87,2.87,0,0,1,.6,2.46Z"/><path class="cls-11" d="M276,139.72a2.27,2.27,0,0,1,1.43,1.66A3.11,3.11,0,0,1,276,139.72Z"/><path class="cls-11" d="M271.27,134.56c.6.27,1.28.45,1.44,1.24A2.23,2.23,0,0,1,271.27,134.56Z"/><path class="cls-11" d="M265.9,129.81a1.69,1.69,0,0,1,1.23,1.22A1.68,1.68,0,0,1,265.9,129.81Z"/><path class="cls-11" d="M294.84,178.13c.65.3.53.91.57,1.45C294.8,179.26,294.94,178.65,294.84,178.13Z"/><path class="cls-11" d="M296.69,188.24c.13.14.33.26.36.41a6.92,6.92,0,0,1,0,1C296.43,189.33,296.74,188.74,296.69,188.24Z"/><path class="cls-11" d="M290.48,162.85c.61.33.32.92.4,1.41C290.22,163.94,290.55,163.33,290.48,162.85Z"/><path class="cls-11" d="M282.43,149.43a1.22,1.22,0,0,1,.61,1.23C282.53,150.4,282.57,149.87,282.43,149.43Z"/><path class="cls-11" d="M296.29,186.59c.55.27.49.74.39,1.23A1.2,1.2,0,0,1,296.29,186.59Z"/><path class="cls-11" d="M260.73,126.51c.47.23,1.13,0,1.45.62C261.63,127.07,261,127.19,260.73,126.51Z"/><path class="cls-11" d="M264.66,129.19c.37.14.87.06,1,.59C265.21,129.81,264.73,129.86,264.66,129.19Z"/><path class="cls-11" d="M292.77,170.07c.65.3.68.36.39,1Z"/><path class="cls-11" d="M269.41,132.91a.86.86,0,0,1,.82.8A.82.82,0,0,1,269.41,132.91Z"/><path class="cls-11" d="M295.45,181.43c.59.24.45.62.2,1C295.58,182.11,295.52,181.77,295.45,181.43Z"/><path class="cls-11" d="M293.56,171.93c.06.28.13.55.2.83C293.21,172.6,293.31,172.29,293.56,171.93Z"/><path class="cls-11" d="M283.89,152.11c.47.08.51.46.59.82C284,152.86,283.93,152.49,283.89,152.11Z"/><path class="cls-11" d="M290.91,164.29c.52.09.34.51.38.83C290.75,165,290.92,164.62,290.91,164.29Z"/><path class="cls-11" d="M262.18,127.13l.61.58C262.32,127.8,262.15,127.57,262.18,127.13Z"/><path class="cls-11" d="M274.59,138.07a.57.57,0,0,1,.59.63C274.81,138.65,274.58,138.47,274.59,138.07Z"/><path class="cls-11" d="M285.13,154a.56.56,0,0,1,.58.63C285.35,154.55,285.11,154.38,285.13,154Z"/><path class="cls-11" d="M286.56,156.45a.56.56,0,0,1,.59.63A.59.59,0,0,1,286.56,156.45Z"/><path class="cls-11" d="M288,158.51c.41,0,.39.33.39.62C288,159.1,288,158.81,288,158.51Z"/><path class="cls-11" d="M291.31,165.33c.42,0,.39.33.39.62C291.29,165.91,291.29,165.63,291.31,165.33Z"/><path class="cls-11" d="M277.48,141.58l.39.42Z"/><path class="cls-11" d="M287.18,157.48l.39.41Z"/><path class="cls-11" d="M289.05,160.37l.38.41Z"/><path class="cls-11" d="M280.16,145.3l.39.41Z"/><path class="cls-11" d="M295.44,180l.3.21-.3.2Z"/><path class="cls-11" d="M294,174l.21.42C293.93,174.36,293.67,174.32,294,174Z"/><path class="cls-11" d="M280.8,146.33l.37.41Z"/><path class="cls-11" d="M278.92,143.44l.39.42Z"/><path class="cls-22" d="M319.57,160.56l-.41-.4Z"/><path class="cls-23" d="M165.55,292.7l-.45.61c-.43.21-.86.43-.86,1-.1,0-.24,0-.3,0-.68.61-1.51.38-2.3.4,0-.16,0-.41.12-.47a14.73,14.73,0,0,0,2.53-2.46,4,4,0,0,0,1.11-2.44,8.5,8.5,0,0,0-.06-2.52,10.41,10.41,0,0,0-.66-2.72,12.08,12.08,0,0,0-1.56-2.25c-.47-.62-1-1.19-1.52-1.77a2.6,2.6,0,0,0-.51-.32c-.37-.25-.46-.39-.62-1a1.23,1.23,0,0,1,1.48.3c.86,1,1.71,1.92,2.57,2.87a5.45,5.45,0,0,1,1.44,2,10.49,10.49,0,0,1,.85,3.55,11.22,11.22,0,0,0,0,1.64A5.51,5.51,0,0,1,165.55,292.7Z"/><path class="cls-23" d="M148.26,279.74a1.54,1.54,0,0,1,.35.29,20.6,20.6,0,0,1,2.07,3.73,5.52,5.52,0,0,1,.66,2.13c0,.11.11.24.19.36a5.76,5.76,0,0,1,.7,4.42,4.17,4.17,0,0,0-.08.71,5.53,5.53,0,0,1-1.17,3.21,1.43,1.43,0,0,1-.42.43c-.33.2-.63.07-.67-.31a1.56,1.56,0,0,1,.13-.8,11.32,11.32,0,0,0,1.15-3.76,3.69,3.69,0,0,0-.07-.87c0-.19,0-.38,0-.57s.07-.23,0-.3c-.93-1.49-.84-3.33-1.67-4.86-.51-.92-.95-1.89-1.42-2.83C147.83,280.36,147.67,280,148.26,279.74Z"/><path class="cls-4" d="M164.24,294.32c0-.58.43-.8.86-1,.29.13.56.35.38.68a1.09,1.09,0,0,1-.64.35A2,2,0,0,1,164.24,294.32Z"/><path class="cls-24" d="M181.55,94.49a14,14,0,0,1,6.89,1.82,9.05,9.05,0,0,1,2.4,2.08,2.74,2.74,0,0,1-.31,2.89,4.83,4.83,0,0,1-1.06,1c-.92.6-1.85,1.19-2.8,1.72a6,6,0,0,1-3.51.56,12,12,0,0,1-6.25-2.37,7.17,7.17,0,0,1-2.79-3.7,1.79,1.79,0,0,1,1-2.47A13.19,13.19,0,0,1,181.55,94.49Z"/><path class="cls-9" d="M185,135.91a1.81,1.81,0,0,1-1.67,1.15,3.55,3.55,0,0,0-1,.3,11.52,11.52,0,0,1-4.05.33,11,11,0,0,1-3.51-.56,9.06,9.06,0,0,1-1.2-.52c-1-.55-1.94-1.12-2.89-1.7a3.71,3.71,0,0,1-.56-.56l.13-.16a3,3,0,0,1,.51.15,31.09,31.09,0,0,0,6,1.8,12.59,12.59,0,0,0,3.71.22,9.75,9.75,0,0,0,3.55-.91.84.84,0,0,1,.94.08Z"/><path class="cls-25" d="M115,343.86C50.13,355.3-.2,351.61,0,337.16c0,0,6.56-5.11,9.72-9A41.6,41.6,0,0,0,15,318.47S4,304.65,1.44,297.83a25.79,25.79,0,0,1-1.21-5.05c-.18-1.26-.17-1,0-.52,3.27,12.25,46.29,15.65,102.85,7,6.6-1,11,.6,12.46,8.07C115.51,309.26,115.17,343.82,115,343.86Z"/><path class="cls-26" d="M43.63,319.13s0-7.72,22.18-7.72,20.62,5.41,36.11,5.41,13.57-9.49,13.57-9.49V375l-71.86-9.37Z"/><path class="cls-27" d="M299.6,344.84c64.81-11.43,115.14-7.75,114.94,6.7,0,0-6.55,5.11-9.71,9a41.61,41.61,0,0,0-5.33,9.66s11.06,13.82,13.6,20.65a24.78,24.78,0,0,1,1.21,5.05c.18,1.26.17,1,0,.51-3.26-12.25-46.29-15.65-102.84-7-6.61,1-11-.59-12.46-8.07C299,379.44,299.37,344.88,299.6,344.84Z"/><path class="cls-28" d="M370.92,369.57s0,7.72-22.19,7.72-20.62-5.4-36.1-5.4-13.58,9.48-13.58,9.48V313.68l71.87,9.37Z"/><path class="cls-29" d="M371.06,370.24c0-17.23-64.18-36.34-161.46-9.44-87.36,24.16-166.23,22.93-166,4.85V319.13c-.26,18.08,78.61,19.31,166-4.85,97.28-26.9,161.46-7.79,161.46,9.44Z"/><text class="cls-30" transform="matrix(0.98, -0.19, 0.19, 0.98, 154.31, 365.23)">D</text><text class="cls-30" transform="translate(177.36 360.82) rotate(-13.14)">E</text><text class="cls-30" transform="matrix(0.97, -0.26, 0.26, 0.97, 198.61, 355.7)">X</text><text class="cls-30" transform="translate(229.8 347.57) rotate(-10.72)">T</text><text class="cls-30" transform="matrix(0.99, -0.12, 0.12, 0.99, 253.78, 343.06)">E</text><text class="cls-30" transform="translate(274.54 340.39) rotate(-2.87)">R</text></g></g></svg>