<svg xmlns="http://www.w3.org/2000/svg" xmlns:xlink="http://www.w3.org/1999/xlink" viewBox="0 0 177.64 89.89"><defs><style>.cls-1{fill:#c69039;}.cls-2{fill:#a36d1f;}.cls-3{fill:url(#linear-gradient);}.cls-4{fill:url(#linear-gradient-2);}.cls-5{fill:url(#linear-gradient-3);}</style><linearGradient id="linear-gradient" x1="96.99" y1="65.43" x2="0" y2="65.43" gradientUnits="userSpaceOnUse"><stop offset="0" stop-color="#c69039"/><stop offset="1" stop-color="#edd3a8"/></linearGradient><linearGradient id="linear-gradient-2" x1="44.97" y1="69.65" x2="115.46" y2="69.65" gradientUnits="userSpaceOnUse"><stop offset="0" stop-color="#543500"/><stop offset="1"/></linearGradient><linearGradient id="linear-gradient-3" x1="94.91" y1="65.78" x2="94.91" y2="0" xlink:href="#linear-gradient"/></defs><title>Asset 10</title><g id="Layer_2" data-name="Layer 2"><g id="Layer_1-2" data-name="Layer 1"><path class="cls-1" d="M160.65,49c-5.09,0-10.77,1.66-17.22,4.25l-.44.06c-50.63,7.07-137.37,20-137.37,20,11,14.91,33,16.48,61.62,16.48a301.5,301.5,0,0,0,35.93-2.71c5.08.84,25.19,3.87,44.92,2.32,20-1.57,26.69-14.91,29-20.8S173.6,49,160.65,49Z"/><path class="cls-2" d="M146.91,82.4c-5.82-1.46-35.65,3.5-43,4.85a218.22,218.22,0,0,0,26.73,2.55C139.28,89.11,152.6,83.82,146.91,82.4Z"/><path class="cls-3" d="M2.09,69.05C7.59,77.29,17,82.4,40.55,82.4A173.27,173.27,0,0,0,97,72.93c-10-5.82-30.11-8.1-48.52-17.21C13.61,38.46-6.84,55.66,2.09,69.05Z"/><path class="cls-4" d="M88,75.75a224.66,224.66,0,0,0,27.51-10L46.83,63.56s-2.74,5.49-1.57,10.2C51.65,75.59,76.93,75.76,88,75.75Z"/><path class="cls-5" d="M143,53.47v-.12c-.79-9.81-1.14-17.78-3.14-26.68-1.45-6.45-34.34-24.34-38.46-25.12C94.85.3,86.47-2,80.19,3.51c-2.68,2.35-11-9.81-18.44,4.71-5,9.7-14.92,55.34-14.92,55.34l68.63,2.22C126,61.23,135.08,56.68,143,53.47Z"/><path class="cls-1" d="M131.61,36.48c5.8,2,8.7,2,10,1.15a101.62,101.62,0,0,0-1.8-11c-1.45-6.45-34.34-24.34-38.46-25.12C92.75,1.16,117.12,31.41,131.61,36.48Z"/></g></g></svg>