<svg xmlns="http://www.w3.org/2000/svg" xmlns:xlink="http://www.w3.org/1999/xlink" viewBox="0 0 71.7 76.27"><defs><style>.cls-1{fill:none;}.cls-2{isolation:isolate;}.cls-3{fill:url(#linear-gradient);}.cls-4{opacity:0.5;mix-blend-mode:multiply;}.cls-5{clip-path:url(#clip-path);}.cls-6{fill:#966400;}.cls-7{fill:url(#linear-gradient-2);}.cls-8{fill:url(#linear-gradient-3);}.cls-9{clip-path:url(#clip-path-2);}.cls-10{fill:url(#linear-gradient-4);}</style><linearGradient id="linear-gradient" x1="128.11" y1="-270.84" x2="128.11" y2="-194.78" gradientTransform="translate(-91.52 273.82) rotate(-1.26)" gradientUnits="userSpaceOnUse"><stop offset="0.27" stop-color="#bc8b00"/><stop offset="1" stop-color="#966400"/></linearGradient><clipPath id="clip-path"><path class="cls-1" d="M62.8,37.56c-.33-15.24-8-28.21-18.83-34L41.13,0,30.6.23C13.27.61-.4,17.94.07,38.94S15,76.65,32.27,76.26l9.44-.2,3.78-3.67C56,66.09,63.14,52.79,62.8,37.56Z"/></clipPath><linearGradient id="linear-gradient-2" x1="1448.98" y1="-208.16" x2="1498.28" y2="-257.46" gradientTransform="matrix(-1, 0, 0, 1, 1513.95, 270.86)" gradientUnits="userSpaceOnUse"><stop offset="0" stop-color="#bc8b00"/><stop offset="0.49" stop-color="#f4cd0b"/><stop offset="0.61" stop-color="#f2f2f2"/><stop offset="0.66" stop-color="#f4cd0b"/></linearGradient><linearGradient id="linear-gradient-3" x1="48.46" y1="61.15" x2="89.32" y2="20.29" gradientTransform="translate(-15.21 -19.57) rotate(15.48)" xlink:href="#linear-gradient"/><clipPath id="clip-path-2"><path class="cls-1" d="M50.53,30.09,50.48,28l-5.28.11.16,7,0,1.07,0,1.26,1.13,0,.92,0,5-.11.09,4-5,.11-.92,0-1.13,0,0,1.31,0,1,.16,7.53,1.88,0,.09,4.08-8.81.19-.09-4.07,1.87,0-.16-7.53,0-1,0-1.31-1.14,0-.91,0-5.13.11-.09-4,5.13-.11.91,0,1.14,0,0-1.26,0-1.07-.16-7-5.23.11,0,2.13-3.53.08-.14-6.16,22.6-.49L54,30Zm-2,2.37-.05-2.13-1.18,0,.11,4.69,6.72-.15.19,8.68-6.72.15L47.71,49l1.84,0,.19,8.68-12.83.28-.19-8.68,1.83,0-.11-5.24-6.88.15-.19-8.68,6.88-.15-.11-4.69-1.13,0,0,2.14-7.63.16-.24-10.81,26.7-.59.24,10.82Zm.84-3.17.05,2.09,5.76-.13L55,22.57l-24.87.55.19,8.68,5.76-.13,0-2.08,3-.07.12,5.71,0,1.07-.91,0-6.1.13L32.32,43l6.09-.13.92,0,0,1,.14,6.26-1.83,0,.14,6.6,11-.25L48.65,50l-1.83,0-.14-6.26,0-1,.92,0,5.93-.13L53.37,36l-5.94.13-.92,0,0-1.06-.13-5.71Z"/></clipPath><linearGradient id="linear-gradient-4" x1="68.38" y1="20.75" x2="68.38" y2="60.9" gradientTransform="translate(-15.21 -19.57) rotate(15.48)" xlink:href="#linear-gradient"/></defs><title>Trackash</title><g class="cls-2"><g id="Layer_2" data-name="Layer 2"><g id="Layer_1_copy" data-name="Layer 1 copy"><g id="Trackash"><path class="cls-3" d="M62.8,37.56c-.33-15.24-8-28.21-18.83-34L41.13,0,30.6.23C13.27.61-.4,17.94.07,38.94S15,76.65,32.27,76.26l9.44-.2,3.78-3.67C56,66.09,63.14,52.79,62.8,37.56Z"/><g class="cls-4"><g class="cls-5"><rect class="cls-6" x="10.04" y="7.34" width="27.68" height="0.99" transform="matrix(1, -0.02, 0.02, 1, -0.17, 0.53)"/><rect class="cls-6" x="11.08" y="4.33" width="27.68" height="0.99" transform="translate(-0.1 0.55) rotate(-1.26)"/><rect class="cls-6" x="11.02" y="1.39" width="27.68" height="0.99" transform="translate(-0.04 0.55) rotate(-1.26)"/><rect class="cls-6" x="8.74" y="73.17" width="27.68" height="0.99" transform="translate(-1.62 0.52) rotate(-1.26)"/><rect class="cls-6" x="0.01" y="60.23" width="27.68" height="0.99" transform="matrix(1, -0.02, 0.02, 1, -1.33, 0.32)"/><rect class="cls-6" x="9.77" y="70.17" width="27.68" height="0.99" transform="translate(-1.55 0.54) rotate(-1.26)"/></g></g><ellipse class="cls-7" cx="40.32" cy="38.05" rx="31.38" ry="38.03" transform="matrix(1, -0.02, 0.02, 1, -0.83, 0.9)"/><path class="cls-8" d="M39.58,4.75c-15.17.34-27.14,15.52-26.74,33.91s13,33,28.21,32.69S68.2,55.84,67.79,37.45,54.76,4.42,39.58,4.75Zm2,64.35c-14.15.32-25.93-13.34-26.31-30.49S26,7.29,40.19,7,66.12,20.32,66.5,37.48,55.71,68.79,41.55,69.1Z"/><g class="cls-9"><rect class="cls-6" x="16.97" y="9.55" width="48.1" height="60.52" transform="translate(-0.87 0.91) rotate(-1.26)"/><path class="cls-10" d="M50,30.1,50,28l-5.28.12.15,7,0,1.07,0,1.26,1.13,0,.92,0,5-.11.09,4-5,.11-.92,0-1.14,0,0,1.31,0,1,.16,7.53,1.88,0,.09,4.07-8.81.19-.09-4.07,1.87,0L40,43.89l0-1,0-1.31-1.13,0-.92,0-5.12.11-.09-4,5.13-.11.91,0,1.14,0,0-1.26,0-1.06-.15-7-5.24.11,0,2.13-3.53.08-.14-6.15,22.6-.5L53.5,30Zm-2,2.37,0-2.13-1.18,0,.11,4.69,6.71-.15.2,8.68-6.72.15L47.19,49l1.83,0,.2,8.68-12.83.28-.19-8.67,1.83,0-.12-5.25L31,44.09l-.19-8.68,6.87-.15-.1-4.69-1.13,0,0,2.14-7.63.17-.24-10.82,26.7-.58.24,10.81Zm.84-3.17,0,2.09,5.76-.13-.19-8.68-24.87.55.19,8.68,5.76-.13,0-2.08,3-.07.13,5.71,0,1.07-.91,0-6.1.13.15,6.6,6.09-.14.92,0,0,1L39,50.18l-1.83,0,.14,6.6,11-.24L48.13,50,46.3,50l-.14-6.26,0-1,.91,0L53,42.59,52.85,36l-5.94.14-.92,0,0-1.07-.13-5.71Z"/></g></g></g></g></g></svg>