<svg xmlns="http://www.w3.org/2000/svg" xmlns:xlink="http://www.w3.org/1999/xlink" viewBox="0 0 126.53 81.04"><defs><style>.cls-1{fill:none;}.cls-2{isolation:isolate;}.cls-3{fill:url(#linear-gradient);}.cls-4{opacity:0.5;mix-blend-mode:multiply;}.cls-5{clip-path:url(#clip-path);}.cls-6{fill:#966400;}.cls-7{fill:url(#linear-gradient-2);}.cls-8{fill:url(#linear-gradient-3);}.cls-9{clip-path:url(#clip-path-2);}.cls-10{fill:url(#linear-gradient-4);}.cls-11{fill:url(#linear-gradient-5);}.cls-12{clip-path:url(#clip-path-3);}.cls-13{fill:url(#linear-gradient-6);}.cls-14{fill:url(#linear-gradient-7);}.cls-15{clip-path:url(#clip-path-4);}.cls-16{fill:url(#linear-gradient-8);}.cls-17{fill:url(#linear-gradient-9);}.cls-18{clip-path:url(#clip-path-5);}.cls-19{fill:url(#linear-gradient-10);}.cls-20{fill:url(#linear-gradient-11);}.cls-21{clip-path:url(#clip-path-6);}.cls-22{fill:url(#linear-gradient-12);}.cls-23{fill:url(#linear-gradient-13);}.cls-24{clip-path:url(#clip-path-7);}.cls-25{fill:url(#linear-gradient-14);}.cls-26{fill:url(#linear-gradient-15);}.cls-27{clip-path:url(#clip-path-8);}.cls-28{fill:url(#linear-gradient-16);}</style><linearGradient id="linear-gradient" x1="1119.44" y1="-909.89" x2="1119.44" y2="-833.84" gradientTransform="translate(913.63 1170.97) rotate(-90)" gradientUnits="userSpaceOnUse"><stop offset="0.27" stop-color="#bc8b00"/><stop offset="1" stop-color="#966400"/></linearGradient><clipPath id="clip-path"><path class="cls-1" d="M41.77,41.35c-15.24,0-32-3.53-38,.19V52.28c0,6,17,10.94,38,10.94s38-4.9,38-10.94V41.54C73.72,37.82,57,41.35,41.77,41.35Z"/></clipPath><linearGradient id="linear-gradient-2" x1="795.36" y1="-852.08" x2="834.93" y2="-891.65" gradientTransform="matrix(0, 1, 1, 0, 913.63, -773.6)" gradientUnits="userSpaceOnUse"><stop offset="0" stop-color="#bc8b00"/><stop offset="0.49" stop-color="#f4cd0b"/><stop offset="0.61" stop-color="#f2f2f2"/><stop offset="0.66" stop-color="#f4cd0b"/></linearGradient><linearGradient id="linear-gradient-3" x1="1112.09" y1="-854.53" x2="1146.76" y2="-889.2" xlink:href="#linear-gradient"/><clipPath id="clip-path-2"><path class="cls-1" d="M34,37.93H31.9v1.84h9.34V37.32h4v2.45h9.85v-.66H59.2v3.07H55.12v-.65H45.27V44h-4v-2.5H31.9v1.83H34v1.23H27.87V36.71H34Zm2.33.71H34.22v.41h4.7V36.71H47.6v2.34h5.24v-.64h8.69v4.47H52.84v-.64H47.6v2.4H38.92v-2.4h-4.7v.4h2.14V45.3H25.54V36H36.36Zm-3.15-.32h2.08v-2H26.61V45h8.68V43H33.21v-1H40v2.44h6.6V41.93h7.28v.63h6.6V38.73h-6.6v.64H46.58V37H40v2.39H33.21Z"/></clipPath><linearGradient id="linear-gradient-4" x1="1130.14" y1="-888.09" x2="1130.14" y2="-852.11" xlink:href="#linear-gradient"/><linearGradient id="linear-gradient-5" x1="1133.09" y1="-913.63" x2="1133.09" y2="-837.58" xlink:href="#linear-gradient"/><clipPath id="clip-path-3"><path class="cls-1" d="M38,27.7c-15.24,0-32-3.53-38,.19V38.63c0,6,17,10.94,38,10.94s38-4.9,38-10.94V27.89C70,24.17,53.26,27.7,38,27.7Z"/></clipPath><linearGradient id="linear-gradient-6" x1="781.71" y1="-855.82" x2="821.28" y2="-895.39" xlink:href="#linear-gradient-2"/><linearGradient id="linear-gradient-7" x1="1125.74" y1="-858.27" x2="1160.41" y2="-892.94" xlink:href="#linear-gradient"/><clipPath id="clip-path-4"><path class="cls-1" d="M30.29,24.28H28.16v1.84H37.5V23.67h4v2.45h9.85v-.66h4.08v3.07H51.38v-.65H41.53v2.5h-4v-2.5H28.16v1.83h2.13v1.23H24.13V23.06h6.16Zm2.33.71H30.48v.41h4.7V23.06h8.68V25.4h5.25v-.64h8.68v4.47H49.11v-.64H43.86V31H35.18v-2.4h-4.7V29h2.14v2.66H21.8V22.34H32.62Zm-3.15-.32h2.08v-2H22.87v8.67h8.68v-2H29.47v-1h6.77v2.44h6.6V28.28h7.28v.63h6.6V25.08h-6.6v.64H42.84V23.33h-6.6v2.39H29.47Z"/></clipPath><linearGradient id="linear-gradient-8" x1="1143.79" y1="-891.83" x2="1143.79" y2="-855.84" xlink:href="#linear-gradient"/><linearGradient id="linear-gradient-9" x1="1147.59" y1="-908.12" x2="1147.59" y2="-832.07" xlink:href="#linear-gradient"/><clipPath id="clip-path-5"><path class="cls-1" d="M43.53,13.2c-15.23,0-31.95-3.53-38,.19V24.14c0,6,17,10.93,38,10.93s38-4.89,38-10.93V13.39C75.49,9.67,58.77,13.2,43.53,13.2Z"/></clipPath><linearGradient id="linear-gradient-10" x1="767.21" y1="-850.31" x2="806.78" y2="-889.88" xlink:href="#linear-gradient-2"/><linearGradient id="linear-gradient-11" x1="1140.24" y1="-852.76" x2="1174.91" y2="-887.43" xlink:href="#linear-gradient"/><clipPath id="clip-path-6"><path class="cls-1" d="M35.8,9.78H33.67v1.84H43V9.17h4v2.45h9.85V11H61V14H56.89v-.65H47v2.5H43v-2.5H33.67v1.83H35.8v1.23H29.64V8.56H35.8Zm2.33.71H36v.41h4.7V8.56h8.68V10.9h5.24v-.64H63.3v4.47H54.61V14.1H49.37v2.39H40.69V14.1H36v.39h2.14v2.66H27.31V7.84H38.13ZM35,10.17h2.08v-2H28.38v8.67h8.68v-2H35V13.78h6.77v2.44h6.6V13.78h7.28v.63h6.6V10.58h-6.6v.64H48.35V8.83h-6.6v2.39H35Z"/></clipPath><linearGradient id="linear-gradient-12" x1="1158.15" y1="-886.32" x2="1158.15" y2="-850.34" xlink:href="#linear-gradient"/><linearGradient id="linear-gradient-13" x1="159.39" y1="-314.91" x2="159.39" y2="-238.86" gradientTransform="translate(12.23 351.14) rotate(-16.74)" xlink:href="#linear-gradient"/><clipPath id="clip-path-7"><path class="cls-1" d="M115.17,31.05C110.79,16.46,99.92,6,87.94,3.27L84.27.64l-10.09,3C57.58,8.66,49,29,55.08,49.12s24.4,32.37,41,27.38l9-2.72,2.66-4.54C116.26,60.35,119.56,45.64,115.17,31.05Z"/></clipPath><linearGradient id="linear-gradient-14" x1="1751.64" y1="-252.24" x2="1800.94" y2="-301.54" gradientTransform="matrix(-1, 0, 0, 1, 1869.93, 314.41)" xlink:href="#linear-gradient-2"/><linearGradient id="linear-gradient-15" x1="146.68" y1="-255.29" x2="189.87" y2="-298.48" gradientTransform="translate(12.23 351.14) rotate(-16.74)" xlink:href="#linear-gradient"/><clipPath id="clip-path-8"><path class="cls-1" d="M101.35,27.13l-.61-2-5.06,1.52,2,6.72.31,1,.36,1.21,1.09-.33.88-.26,4.76-1.43,1.16,3.85-4.76,1.43-.88.27-1.09.32.38,1.26.29,1,2.17,7.21,1.8-.54,1.17,3.9L96.9,54.75l-1.17-3.9,1.79-.54L95.36,43.1l-.3-1-.38-1.26-1.08.33-.88.26-4.91,1.48-1.16-3.86,4.91-1.47.88-.27L93.53,37l-.37-1.21-.3-1-2-6.73-5,1.51.61,2.05-3.38,1-1.77-5.89,21.64-6.51,1.78,5.89ZM100.06,30l-.62-2-1.12.34,1.35,4.49,6.43-1.94,2.5,8.32-6.43,1.93,1.51,5,1.75-.53,2.5,8.31-12.28,3.7-2.5-8.32,1.75-.52-1.51-5-6.58,2-2.5-8.31,6.58-2-1.35-4.5-1.09.33.62,2-7.31,2.19L78.64,25.1l25.58-7.69,3.11,10.35Zm0-3.28.6,2L106.14,27l-2.5-8.31L79.83,25.86l2.5,8.31,5.51-1.66-.6-2,2.88-.86,1.65,5.46.31,1-.88.26-5.84,1.76,1.9,6.31,5.84-1.75.88-.27.29,1,1.8,6L94.32,50l1.9,6.31,10.53-3.16-1.9-6.32-1.76.53-1.8-6-.29-1,.87-.26,5.69-1.71-1.9-6.32L100,33.76,99.1,34l-.31-1-1.65-5.47Z"/></clipPath><linearGradient id="linear-gradient-16" x1="170.33" y1="-293.11" x2="170.33" y2="-257.12" gradientTransform="translate(12.23 351.14) rotate(-16.74)" xlink:href="#linear-gradient"/></defs><title>Asset 4</title><g class="cls-2"><g id="Layer_2" data-name="Layer 2"><g id="Layer_1_copy" data-name="Layer 1 copy"><path class="cls-3" d="M41.77,41.35c-15.24,0-32-3.53-38,.19V52.28c0,6,17,10.94,38,10.94s38-4.9,38-10.94V41.54C73.72,37.82,57,41.35,41.77,41.35Z"/><g class="cls-4"><g class="cls-5"><rect class="cls-6" x="10.69" y="32.22" width="0.99" height="31.75"/><rect class="cls-6" x="7.71" y="30.95" width="0.99" height="31.75"/><rect class="cls-6" x="4.77" y="30.95" width="0.99" height="31.75"/><rect class="cls-6" x="76.48" y="35.38" width="0.99" height="31.75"/><rect class="cls-6" x="63.35" y="45.06" width="0.99" height="31.75"/><rect class="cls-6" x="73.5" y="34.11" width="0.99" height="31.75"/></g></g><ellipse class="cls-7" cx="41.77" cy="41.54" rx="38.03" ry="10.94"/><path class="cls-8" d="M8.46,41.54c0,5.29,14.91,9.58,33.31,9.58s33.3-4.29,33.3-9.58S60.16,32,41.77,32,8.46,36.25,8.46,41.54Zm64.38-.19c0,4.94-13.91,8.94-31.07,8.94s-31.08-4-31.08-8.94,13.91-8.93,31.08-8.93S72.84,36.42,72.84,41.35Z"/><g class="cls-9"><rect class="cls-6" x="35.15" y="11.05" width="16.77" height="60.52" transform="translate(2.22 84.85) rotate(-90)"/><path class="cls-10" d="M34,38.11H31.9V40h9.34V37.5h4V40h9.85v-.66H59.2v3.08H55.12v-.66H45.27v2.5h-4v-2.5H31.9v1.83H34v1.23H27.87V36.89H34Zm2.33.71H34.22v.41h4.7V36.89H47.6v2.34h5.24v-.64h8.69v4.48H52.84v-.64H47.6v2.39H38.92V42.43h-4.7v.39h2.14v2.66H25.54V36.17H36.36Zm-3.15-.32h2.08v-2H26.61v8.67h8.68v-2H33.21v-1H40v2.44h6.6V42.11h7.28v.64h6.6V38.91h-6.6v.64H46.58V37.16H40v2.39H33.21Z"/></g><path class="cls-11" d="M38,27.7c-15.24,0-32-3.53-38,.19V38.63c0,6,17,10.94,38,10.94s38-4.9,38-10.94V27.89C70,24.17,53.26,27.7,38,27.7Z"/><g class="cls-4"><g class="cls-12"><rect class="cls-6" x="6.95" y="18.57" width="0.99" height="31.75"/><rect class="cls-6" x="3.97" y="17.3" width="0.99" height="31.75"/><rect class="cls-6" x="1.03" y="17.3" width="0.99" height="31.75"/><rect class="cls-6" x="72.74" y="21.73" width="0.99" height="31.75"/><rect class="cls-6" x="59.61" y="31.41" width="0.99" height="31.75"/><rect class="cls-6" x="69.76" y="20.46" width="0.99" height="31.75"/></g></g><ellipse class="cls-13" cx="38.03" cy="27.89" rx="38.03" ry="10.94"/><path class="cls-14" d="M4.72,27.89c0,5.29,14.91,9.58,33.31,9.58s33.3-4.29,33.3-9.58S56.42,18.31,38,18.31,4.72,22.6,4.72,27.89ZM69.1,27.7c0,4.94-13.91,8.94-31.07,8.94S7,32.64,7,27.7,20.86,18.77,38,18.77,69.1,22.77,69.1,27.7Z"/><g class="cls-15"><rect class="cls-6" x="31.41" y="-2.6" width="16.77" height="60.52" transform="translate(12.13 67.46) rotate(-90)"/><path class="cls-16" d="M30.29,24.46H28.16V26.3H37.5V23.85h4V26.3h9.85v-.66h4.08v3.08H51.38v-.66H41.53v2.5h-4v-2.5H28.16v1.83h2.13v1.23H24.13V23.24h6.16Zm2.33.71H30.48v.41h4.7V23.24h8.68v2.34h5.25v-.64h8.68v4.48H49.11v-.64H43.86v2.39H35.18V28.78h-4.7v.39h2.14v2.66H21.8V22.52H32.62Zm-3.15-.32h2.08v-2H22.87v8.67h8.68v-2H29.47V28.46h6.77V30.9h6.6V28.46h7.28v.64h6.6V25.26h-6.6v.64H42.84V23.51h-6.6V25.9H29.47Z"/></g><path class="cls-17" d="M43.53,13.2c-15.23,0-31.95-3.53-38,.19V24.14c0,6,17,10.93,38,10.93s38-4.89,38-10.93V13.39C75.49,9.67,58.77,13.2,43.53,13.2Z"/><g class="cls-4"><g class="cls-18"><rect class="cls-6" x="12.46" y="4.07" width="0.99" height="31.75"/><rect class="cls-6" x="9.48" y="2.8" width="0.99" height="31.75"/><rect class="cls-6" x="6.54" y="2.8" width="0.99" height="31.75"/><rect class="cls-6" x="78.25" y="7.23" width="0.99" height="31.75"/><rect class="cls-6" x="65.12" y="16.91" width="0.99" height="31.75"/><rect class="cls-6" x="75.27" y="5.96" width="0.99" height="31.75"/></g></g><ellipse class="cls-19" cx="43.53" cy="13.39" rx="38.03" ry="10.94"/><path class="cls-20" d="M10.23,13.39c0,5.3,14.91,9.58,33.3,9.58s33.31-4.28,33.31-9.58S61.93,3.82,43.53,3.82,10.23,8.1,10.23,13.39Zm64.38-.19c0,4.94-13.91,8.94-31.08,8.94s-31.07-4-31.07-8.94S26.37,4.27,43.53,4.27,74.61,8.27,74.61,13.2Z"/><g class="cls-21"><rect class="cls-6" x="36.92" y="-17.09" width="16.77" height="60.52" transform="translate(32.14 58.47) rotate(-90)"/><path class="cls-22" d="M35.8,10.1H33.67v1.84H43V9.49h4v2.45h9.85v-.66H61v3.07H56.89V13.7H47v2.5H43V13.7H33.67v1.83H35.8v1.23H29.64V8.88H35.8Zm2.33.71H36v.41h4.7V8.88h8.68v2.34h5.24v-.64H63.3v4.47H54.61v-.63H49.37v2.39H40.69V14.42H36v.39h2.14v2.66H27.31V8.16H38.13ZM35,10.49h2.08v-2H28.38v8.67h8.68v-2H35V14.1h6.77v2.44h6.6V14.1h7.28v.63h6.6V10.9h-6.6v.64H48.35V9.15h-6.6v2.39H35Z"/></g><g id="Trackash"><path class="cls-23" d="M115.17,31.05C110.79,16.46,99.92,6,87.94,3.27L84.27.64l-10.09,3C57.58,8.66,49,29,55.08,49.12s24.4,32.37,41,27.38l9-2.72,2.66-4.54C116.26,60.35,119.56,45.64,115.17,31.05Z"/><g class="cls-4"><g class="cls-24"><rect class="cls-6" x="55.89" y="12.29" width="27.68" height="0.99" transform="translate(-0.73 20.63) rotate(-16.74)"/><rect class="cls-6" x="56.09" y="9.12" width="27.68" height="0.99" transform="translate(0.19 20.55) rotate(-16.74)"/><rect class="cls-6" x="55.25" y="6.3" width="27.68" height="0.99" transform="translate(0.97 20.18) rotate(-16.74)"/><rect class="cls-6" x="72.2" y="76.09" width="27.68" height="0.99" transform="translate(-18.41 28.02) rotate(-16.74)"/><rect class="cls-6" x="60.34" y="65.94" width="27.68" height="0.99" transform="translate(-15.99 24.18) rotate(-16.74)"/><rect class="cls-6" x="72.4" y="72.91" width="27.68" height="0.99" transform="translate(-17.49 27.95) rotate(-16.74)"/></g></g><ellipse class="cls-25" cx="93.64" cy="37.53" rx="31.38" ry="38.03" transform="translate(-6.84 28.56) rotate(-16.74)"/><path class="cls-26" d="M84,5.63C69.51,10,62,27.83,67.32,45.44s21.37,28.36,35.91,24,22-22.19,16.73-39.81S98.58,1.26,84,5.63Zm19.07,61.49c-13.56,4.08-28.55-5.93-33.5-22.37s2-33.06,15.61-37.14,28.56,5.94,33.5,22.38S116.67,63.05,103.11,67.12Z"/><g class="cls-27"><rect class="cls-6" x="70.73" y="8.77" width="48.1" height="60.52" transform="translate(-7.23 28.95) rotate(-16.74)"/><path class="cls-28" d="M100.85,27.28l-.61-2-5.06,1.52,2,6.72.31,1,.36,1.21L99,35.38l.88-.26,4.76-1.43,1.16,3.85L101,39l-.88.27L99,39.56l.38,1.26.29,1L101.87,49l1.8-.54,1.17,3.9L96.4,54.9,95.23,51,97,50.46l-2.16-7.21-.3-1L94.19,41l-1.09.33-.88.26-4.91,1.48-1.16-3.85,4.91-1.48.88-.27L93,37.17,92.66,36l-.3-1-2-6.72-5,1.5.61,2.05-3.38,1-1.77-5.89,21.64-6.51,1.78,5.89ZM99.56,30.1l-.62-2-1.12.34,1.35,4.49L105.6,31l2.5,8.32-6.43,1.93,1.51,5,1.75-.53,2.5,8.31-12.28,3.7-2.5-8.31,1.75-.53-1.51-5-6.58,2-2.5-8.31,6.58-2L89,31,88,31.36l.62,2L81.26,35.6,78.14,25.25l25.58-7.69,3.11,10.35Zm0-3.28.6,2,5.52-1.65-2.5-8.32L79.33,26l2.5,8.31,5.51-1.66-.6-2,2.88-.86,1.65,5.46.31,1-.88.26-5.84,1.76,1.9,6.31,5.84-1.75.88-.27.29,1,1.8,6-1.75.53,1.9,6.31,10.53-3.16-1.9-6.32-1.76.53-1.8-6-.29-1,.87-.26,5.69-1.71-1.9-6.32-5.69,1.71-.87.27-.31-1-1.64-5.47Z"/></g></g></g></g></g></svg>